<?xml version="1.0" encoding="UTF-8"?>
<svg version="1.1" xmlns="http://www.w3.org/2000/svg" viewBox="0 0 1110 618">
<path d="M0 0 C3.48472634 1.29224328 6.46364844 2.80583489 9.55908203 4.85742188 C10.86536057 5.71841492 10.86536057 5.71841492 12.19802856 6.59680176 C13.12525726 7.21454468 14.05248596 7.8322876 15.0078125 8.46875 C15.97024872 9.10486206 16.93268494 9.74097412 17.92428589 10.3963623 C20.99401392 12.42668065 24.05953753 14.46324848 27.125 16.5 C29.19634112 17.87150685 31.26795269 19.24260533 33.33984375 20.61328125 C39.56553102 24.73370912 45.78813518 28.85875679 52 33 C55.41834348 32.66776266 57.29928075 31.04381272 59.97265625 29.015625 C62.36767578 27.66601562 62.36767578 27.66601562 65 27 C69.64220832 28.38907007 73.4503739 31.06871183 77.4375 33.75 C78.61155128 34.49989418 79.78828022 35.24561116 80.9675293 35.98730469 C83.41713166 37.53039843 85.85592712 39.08885667 88.29003906 40.65625 C94.16823691 44.40764909 100.24886237 47.81023861 106.3125 51.25 C108.43508885 52.46092471 110.55628414 53.67429689 112.67578125 54.890625 C113.61502441 55.42623047 114.55426758 55.96183594 115.52197266 56.51367188 C117.60230151 57.76145927 119.49164701 59.08118212 121.41796875 60.546875 C123.88243188 62.30839466 123.88243188 62.30839466 126.4609375 61.4765625 C127.71777344 60.74566406 127.71777344 60.74566406 129 60 C130.00289062 59.47148438 131.00578125 58.94296875 132.0390625 58.3984375 C133.23672591 57.72814169 134.43184556 57.05328947 135.625 56.375 C136.30320801 55.99166504 136.98141602 55.60833008 137.68017578 55.21337891 C145.04798544 51.01993813 152.32688708 46.67570326 159.61236572 42.34140015 C171.34088134 35.36457849 183.15060751 28.53386867 194.98339844 21.73535156 C199.70271906 19.02048178 204.4141701 16.2920684 209.125 13.5625 C209.93130859 13.09545654 210.73761719 12.62841309 211.56835938 12.1472168 C213.37901697 11.09833564 215.1895279 10.0492013 217 9 C223.02567377 12.90113612 228.75456524 17.03842436 234.375 21.5 C240.98313021 26.69435977 247.66530014 31.7713211 254.4375 36.75 C255.65348877 37.64428711 255.65348877 37.64428711 256.89404297 38.55664062 C262.31283382 43.15526098 262.31283382 43.15526098 268.71484375 44.8515625 C273.32975635 43.65530692 277.31183207 41.55082253 281.52148438 39.3515625 C284.19209918 38.0257639 286.44475201 37.0168257 289.44921875 36.92578125 C293.47766284 38.62229292 296.7712245 41.19371363 300.25 43.8125 C301.86912628 45.00741256 303.48893376 46.20140255 305.109375 47.39453125 C305.92728516 47.99990723 306.74519531 48.6052832 307.58789062 49.22900391 C311.18826432 51.87243617 314.84174537 54.43758938 318.5 57 C325.1301457 61.66004086 331.7073061 66.38945932 338.26953125 71.14453125 C343.97158198 75.27088575 349.69415586 79.36779817 355.4831686 83.3716011 C359.09966028 85.88682966 362.61229381 88.45946168 366.01734924 91.2555542 C377.27912472 100.31555407 387.21814209 103.67812123 401.33984375 105.953125 C403.32550596 106.3091178 405.31040802 106.66937379 407.29457092 107.03363037 C412.45032694 107.96890478 417.61399009 108.84834398 422.78167725 109.71490479 C428.06805271 110.61125241 433.34511883 111.55930327 438.62304688 112.50390625 C444.54596574 113.56144442 450.46944365 114.61362352 456.39988708 115.62823486 C457.29408356 115.7814772 458.18828003 115.93471954 459.10957336 116.09260559 C460.77775095 116.37754328 462.4462662 116.66051385 464.11517334 116.94114685 C467.17085445 117.46315878 470.0538091 118.01793637 473 119 C473 122.96 473 126.92 473 131 C454.91090433 127.95946262 436.87684605 124.7012141 418.86450195 121.23608398 C418.08896973 121.08749939 417.3134375 120.93891479 416.5144043 120.78582764 C415.05159871 120.50539691 413.58909772 120.22337114 412.12695312 119.93951416 C408.58873249 119.24031452 408.58873249 119.24031452 405 119 C410.61 122.96 416.22 126.92 422 131 C418.5 139.75 418.5 139.75 414 142 C412.42545849 142.0940049 410.84693973 142.12448067 409.26959455 142.1241985 C407.75991473 142.12756944 407.75991473 142.12756944 406.21973634 142.13100848 C405.1035529 142.12838146 403.98736947 142.12575445 402.83736229 142.12304783 C401.6548814 142.12420167 400.4724005 142.12535552 399.25408685 142.12654433 C395.94702429 142.128748 392.64001898 142.12642533 389.33296183 142.12226619 C385.74459471 142.11884539 382.15623083 142.12120022 378.56786311 142.12284368 C372.27063059 142.12492227 365.9734075 142.1232654 359.67617607 142.11920547 C350.31233603 142.11318517 340.94850196 142.1128683 331.58466033 142.11374746 C315.83530169 142.11506326 300.08594724 142.11171277 284.33658981 142.10573006 C268.73606724 142.09981903 253.13554642 142.09596532 237.53502274 142.09487724 C236.56610382 142.0948085 235.5971849 142.09473976 234.5989048 142.09466894 C229.67853132 142.09433062 224.75815784 142.09402923 219.83778436 142.09374207 C184.95988891 142.09164 150.08199573 142.08489802 115.20410156 142.07543945 C81.31445325 142.06625948 47.42480556 142.05917368 13.53515625 142.05493164 C12.49107422 142.05480011 11.44699219 142.05466859 10.37127131 142.05453308 C-0.11354599 142.05321459 -10.5983633 142.05193877 -21.08318061 142.05069422 C-42.4431796 142.0481578 -63.80317856 142.04533655 -85.16317749 142.04234314 C-86.14533967 142.04220585 -87.12750185 142.04206856 -88.13942651 142.04192711 C-153.75961862 142.03272184 -219.37980947 142.0168761 -285 142 C-282.20699904 139.07026404 -279.1009764 137.13275852 -275.62109375 135.11328125 C-274.66868553 134.55268257 -274.66868553 134.55268257 -273.69703674 133.98075867 C-272.32817109 133.17533325 -270.95816953 132.37183591 -269.5871582 131.57006836 C-265.92573111 129.42810232 -262.27336753 127.27080671 -258.62109375 125.11328125 C-257.88361908 124.67791046 -257.14614441 124.24253967 -256.38632202 123.79397583 C-249.87422649 119.94192181 -243.42886241 115.98959103 -237 112 C-226.77071635 105.66162419 -216.45305252 99.48762907 -206.09539795 93.36221313 C-192.97904228 85.60415876 -179.94705938 77.71344052 -166.93457031 69.78271484 C-162.63399908 67.17017149 -158.31914689 64.58169113 -154 62 C-156.36986712 60.50786144 -157.62853141 59.96676062 -160.45556641 60.21972656 C-163.13150669 61.04032771 -165.28807468 62.08563936 -167.7109375 63.484375 C-168.61376465 64.00056396 -169.5165918 64.51675293 -170.44677734 65.04858398 C-171.41309082 65.61005127 -172.3794043 66.17151855 -173.375 66.75 C-175.45824011 67.94417306 -177.54157606 69.13817894 -179.625 70.33203125 C-180.6871875 70.94385254 -181.749375 71.55567383 -182.84375 72.18603516 C-187.67331257 74.96168877 -192.5238639 77.69978434 -197.375 80.4375 C-198.31569336 80.96947998 -199.25638672 81.50145996 -200.22558594 82.04956055 C-207.34692781 86.07506001 -214.48427307 90.07151387 -221.625 94.0625 C-230.12674853 98.81478287 -238.5988161 103.61504834 -247.04736328 108.46118164 C-254.88673816 112.95111343 -262.77006331 117.3608854 -270.65917969 121.76269531 C-278.59958668 126.1987459 -286.50079926 130.70005364 -294.36523438 135.26953125 C-298.1667575 137.46189559 -301.83972736 139.54559574 -306 141 C-306.83848804 139.54462432 -307.67063934 138.08559627 -308.5 136.625 C-309.19609375 135.40683594 -309.19609375 135.40683594 -309.90625 134.1640625 C-311 132 -311 132 -311 130 C-310.23147705 129.5781543 -309.4629541 129.15630859 -308.67114258 128.72167969 C-295.3115107 121.38338849 -281.96133031 114.03668074 -268.74853516 106.43603516 C-262.0919212 102.61038016 -255.39435988 98.86174536 -248.6875 95.125 C-240.33801041 90.47019648 -232.05325138 85.71955077 -223.8125 80.875 C-215.37844128 75.92036788 -206.87134036 71.13751793 -198.26196289 66.49462891 C-190.17889943 62.12893762 -182.19299127 57.5994326 -174.23413086 53.01147461 C-172.85753296 52.2246228 -172.85753296 52.2246228 -171.453125 51.421875 C-170.23351074 50.71949707 -170.23351074 50.71949707 -168.98925781 50.00292969 C-167 49 -167 49 -165 49 C-168.57286822 45.08197219 -172.71623829 42.23096437 -177.0625 39.25 C-177.78244141 38.74339844 -178.50238281 38.23679688 -179.24414062 37.71484375 C-179.93830078 37.23660156 -180.63246094 36.75835937 -181.34765625 36.265625 C-182.29137085 35.61255371 -182.29137085 35.61255371 -183.25415039 34.94628906 C-185.10861168 33.76173764 -185.10861168 33.76173764 -188 34 C-189.86529608 35.06820356 -189.86529608 35.06820356 -191.78125 36.5703125 C-192.53083984 37.12976562 -193.28042969 37.68921875 -194.05273438 38.265625 C-194.86033203 38.87921875 -195.66792969 39.4928125 -196.5 40.125 C-198.22902637 41.41945825 -199.95819699 42.71372384 -201.6875 44.0078125 C-202.57179688 44.67329102 -203.45609375 45.33876953 -204.3671875 46.02441406 C-208.39118142 49.04390208 -212.44587575 52.02116622 -216.5 55 C-218.08350544 56.16643306 -219.6668382 57.33310057 -221.25 58.5 C-237.08333333 70.16666667 -252.91666667 81.83333333 -268.75 93.5 C-269.53383057 94.07758057 -270.31766113 94.65516113 -271.12524414 95.25024414 C-272.70768185 96.41620806 -274.29020131 97.58206104 -275.87280273 98.74780273 C-279.84551887 101.67431443 -283.81676994 104.60277534 -287.78515625 107.53515625 C-291.7202707 110.4426549 -295.66237095 113.34051208 -299.60644531 116.23583984 C-302.09630797 118.07098341 -304.57553507 119.9199518 -307.0546875 121.76953125 C-308.68200961 122.97173606 -310.30960418 124.17357216 -311.9375 125.375 C-312.689104 125.940979 -313.44070801 126.50695801 -314.21508789 127.09008789 C-314.91625732 127.60434326 -315.61742676 128.11859863 -316.33984375 128.6484375 C-316.95206787 129.10395996 -317.56429199 129.55948242 -318.19506836 130.02880859 C-320 131 -320 131 -324 131 C-325.51953125 129.57421875 -325.51953125 129.57421875 -326.8125 127.6875 C-327.25207031 127.07261719 -327.69164062 126.45773438 -328.14453125 125.82421875 C-329 124 -329 124 -328 121 C-326.07274758 119.46242714 -324.15994242 118.06892305 -322.125 116.6875 C-320.83877904 115.79189172 -319.55368226 114.89466747 -318.26953125 113.99609375 C-317.57811035 113.51382324 -316.88668945 113.03155273 -316.17431641 112.53466797 C-312.34429461 109.83137614 -308.58075844 107.03841826 -304.8125 104.25 C-304.01086426 103.65791748 -303.20922852 103.06583496 -302.38330078 102.45581055 C-300.74046627 101.24237178 -299.09788947 100.02858403 -297.45556641 98.81445312 C-293.47350788 95.87205315 -289.48656062 92.9362956 -285.5 90 C-283.91664211 88.83336666 -282.3333088 87.66669996 -280.75 86.5 C-233.25 51.5 -233.25 51.5 -230.87329102 49.7487793 C-229.29560517 48.58624831 -227.71796817 47.42365103 -226.14038086 46.26098633 C-222.09604621 43.28048844 -218.05077703 40.30127242 -214.00390625 37.32421875 C-212.77244873 36.41736328 -212.77244873 36.41736328 -211.51611328 35.4921875 C-209.90027834 34.30370472 -208.28280383 33.11744735 -206.66357422 31.93359375 C-203.16135929 29.36672557 -199.6923562 26.78227399 -196.31640625 24.05078125 C-195.76911865 23.61483643 -195.22183105 23.1788916 -194.65795898 22.72973633 C-193.24242987 21.59420198 -191.84307622 20.43858206 -190.4453125 19.28125 C-188 18 -188 18 -185.65234375 18.453125 C-182.09542093 20.5275601 -178.76966721 22.83394587 -175.4375 25.25 C-173.91573865 26.33906455 -172.39358696 27.42758382 -170.87109375 28.515625 C-170.07558105 29.08603516 -169.28006836 29.65644531 -168.46044922 30.24414062 C-164.32818173 33.19306579 -160.16312196 36.09487803 -156 39 C-151.08824575 42.42946967 -146.18095354 45.86393467 -141.3046875 49.34375 C-140.18320312 50.14232422 -140.18320312 50.14232422 -139.0390625 50.95703125 C-137.65920831 51.9408623 -136.28138115 52.92754691 -134.90625 53.91796875 C-125.57177163 60.56640335 -115.81231659 65.6624992 -105.375 70.375 C-104.18003906 70.92027344 -102.98507812 71.46554688 -101.75390625 72.02734375 C-98.83829721 73.35686147 -95.92035348 74.68094488 -93 76 C-87.41963296 71.89252836 -82.01637996 67.61516331 -76.6875 63.1875 C-75.18890963 61.94778665 -73.69021177 60.70820323 -72.19140625 59.46875 C-71.47227051 58.87320313 -70.75313477 58.27765625 -70.01220703 57.6640625 C-67.39056697 55.49600879 -64.75916815 53.34031656 -62.125 51.1875 C-60.83335937 50.13175781 -60.83335937 50.13175781 -59.515625 49.0546875 C-57.83854167 47.68489583 -56.16145833 46.31510417 -54.484375 44.9453125 C-48.0632012 39.69686804 -41.6594752 34.42755621 -35.25927734 29.15356445 C-31.34508068 25.92885454 -27.42723253 22.70883634 -23.5 19.5 C-18.61737871 15.50925071 -13.74479403 11.50638399 -8.875 7.5 C-7.73514648 6.56317383 -7.73514648 6.56317383 -6.57226562 5.60742188 C-5.86521484 5.02541016 -5.15816406 4.44339844 -4.4296875 3.84375 C-3.79272949 3.31974609 -3.15577148 2.79574219 -2.49951172 2.25585938 C-1.04981068 1.07917215 -1.04981068 1.07917215 0 0 Z M-5 20 C-6.18398932 21.01928311 -7.36889314 22.03750486 -8.5546875 23.0546875 C-9.14088867 23.55838867 -9.72708984 24.06208984 -10.33105469 24.58105469 C-13.34312531 27.14193158 -16.44594123 29.58636049 -19.54296875 32.04296875 C-24.0678414 35.64704061 -28.52825366 39.33038895 -33 43 C-40.01225665 48.74792553 -47.04091401 54.47525142 -54.08105469 60.18896484 C-58.90716082 64.10715545 -63.71511181 68.04658063 -68.515625 71.99609375 C-71.75532879 74.60925105 -75.07364969 77.11235345 -78.41796875 79.58984375 C-78.94003906 80.05519531 -79.46210938 80.52054687 -80 81 C-80 81.66 -80 82.32 -80 83 C-75.25776571 85.31459401 -70.50728387 87.61093021 -65.74829102 89.89086914 C-64.13099322 90.66879959 -62.5160496 91.45164436 -60.90356445 92.23950195 C-58.58367485 93.3719396 -56.25585879 94.48636242 -53.92578125 95.59765625 C-53.20787918 95.952798 -52.48997711 96.30793976 -51.75032043 96.67384338 C-48.98905335 97.97429106 -46.6133276 98.9855287 -43.53735352 99.05810547 C-39.50598249 97.37697759 -36.06020255 94.94927565 -32.4765625 92.47265625 C-31.63389328 91.90029739 -30.79122406 91.32793854 -29.92301941 90.73823547 C-27.151795 88.8538572 -24.38836346 86.95838314 -21.625 85.0625 C-17.74821322 82.41745741 -13.86818188 79.77719085 -9.98828125 77.13671875 C-9.00004868 76.46296204 -8.0118161 75.78920532 -6.99363708 75.09503174 C-0.19515517 70.46742028 6.64618676 65.91007465 13.51953125 61.39453125 C14.42674927 60.79699539 15.33396729 60.19945953 16.26867676 59.58381653 C23.33003409 54.93302489 23.33003409 54.93302489 26.78460693 52.68484497 C29.18928266 51.11921286 31.58553888 49.54142165 33.98046875 47.9609375 C34.69709183 47.49972 35.4137149 47.0385025 36.15205383 46.56330872 C37.82232128 45.45317305 39.42044675 44.2358018 41 43 C41 42.01 41 41.02 41 40 C39.54363251 38.59418449 39.54363251 38.59418449 37.54345703 37.36450195 C36.78912384 36.86420975 36.03479065 36.36391754 35.25759888 35.84846497 C34.43266937 35.31710434 33.60773987 34.78574371 32.7578125 34.23828125 C31.49975296 33.41229683 31.49975296 33.41229683 30.21627808 32.56962585 C28.43891427 31.40565423 26.65821791 30.24675816 24.87451172 29.0925293 C22.13650102 27.31994574 19.40936815 25.53156308 16.68359375 23.74023438 C14.95895114 22.613637 13.23371031 21.48795476 11.5078125 20.36328125 C10.27649094 19.55713127 10.27649094 19.55713127 9.02029419 18.73469543 C8.25965668 18.24385971 7.49901917 17.75302399 6.71533203 17.24731445 C6.04470734 16.81224075 5.37408264 16.37716705 4.68313599 15.9289093 C0.48231931 13.61051214 -1.94366157 17.32755792 -5 20 Z M211.1640625 25.71875 C210.13345703 26.31300781 209.10285156 26.90726563 208.04101562 27.51953125 C206.91373047 28.17308594 205.78644531 28.82664062 204.625 29.5 C203.4472738 30.18100372 202.26953929 30.86199308 201.09179688 31.54296875 C191.74500658 36.95531348 182.45335365 42.45811479 173.17114258 47.98046875 C161.18099729 55.10336198 149.0978687 62.06193791 137 69 C139.67798096 72.0573119 142.99402919 73.94624495 146.4609375 75.9765625 C147.08851959 76.34727875 147.71610168 76.717995 148.36270142 77.09994507 C149.68767888 77.88051383 151.01407854 78.65867284 152.34179688 79.43457031 C154.36588108 80.61966092 156.38226382 81.81713816 158.3984375 83.015625 C159.68965415 83.77420402 160.98130684 84.53204142 162.2734375 85.2890625 C162.87255951 85.6463443 163.47168152 86.0036261 164.08895874 86.37173462 C167.36724514 88.27130406 170.18276523 89.83996473 174 90 C177.17433231 89.018163 177.17433231 89.018163 180.51171875 87.37890625 C181.1450563 87.08789032 181.77839386 86.79687439 182.43092346 86.49703979 C184.52272438 85.53179282 186.60488239 84.5473851 188.6875 83.5625 C190.15084555 82.88242138 191.61472213 82.20348432 193.07910156 81.52563477 C196.94048505 79.73360586 200.7935253 77.92434995 204.64422607 76.10949707 C206.98433573 75.00737739 209.32607894 73.90881278 211.66845703 72.81152344 C218.93613878 69.40675353 226.19855856 65.99121884 233.453125 62.55859375 C240.28177912 59.32787278 247.13418524 56.15110155 254 53 C252.86653385 49.59960154 252.16879733 49.12164474 249.34375 47.1015625 C248.57595215 46.54549316 247.8081543 45.98942383 247.01708984 45.41650391 C245.77113037 44.52970947 245.77113037 44.52970947 244.5 43.625 C242.77236799 42.3764786 241.04582986 41.12644232 239.3203125 39.875 C237.99821777 38.91787109 237.99821777 38.91787109 236.64941406 37.94140625 C231.75469347 34.35471088 226.96237344 30.63428225 222.16992188 26.91259766 C216.85184511 22.63272497 216.85184511 22.63272497 211.1640625 25.71875 Z M67 43 C67.33 43.66 67.66 44.32 68 45 C68.66 44.67 69.32 44.34 70 44 C69.01 43.67 68.02 43.34 67 43 Z M70 45 C74.39280933 49.63084021 79.48769288 52.84455747 84.8125 56.3125 C85.83609619 56.98095947 86.85969238 57.64941895 87.91430664 58.33813477 C95.6740942 63.32426289 103.45310596 67.52993402 112 71 C112.33 70.34 112.66 69.68 113 69 C109.08978321 66.70693826 105.17945869 64.41406036 101.26904297 62.12133789 C99.94447055 61.34469319 98.61992535 60.56800206 97.29541016 59.79125977 C96.33900635 59.23039673 96.33900635 59.23039673 95.36328125 58.65820312 C94.72692749 58.28498932 94.09057373 57.91177551 93.43493652 57.5272522 C92.15672577 56.7780929 90.87816176 56.02953597 89.59924316 55.28158569 C86.53931482 53.49180607 83.48393874 51.69533841 80.43945312 49.87939453 C79.36115234 49.2398584 78.28285156 48.60032227 77.171875 47.94140625 C76.21893555 47.37236572 75.26599609 46.8033252 74.28417969 46.21704102 C72.13718185 44.8432564 72.13718185 44.8432564 70 45 Z M48.52392578 51.2019043 C47.44345474 51.93397346 47.44345474 51.93397346 46.34115601 52.68083191 C45.15521347 53.4943084 45.15521347 53.4943084 43.9453125 54.32421875 C42.69592392 55.1724395 42.69592392 55.1724395 41.42129517 56.03779602 C39.60670437 57.26999724 37.79343792 58.50415044 35.98132324 59.73999023 C31.12750353 63.04944105 26.26339461 66.34366977 21.3984375 69.63671875 C20.38825562 70.32071747 19.37807373 71.00471619 18.33728027 71.70944214 C5.33255212 80.50005487 -7.7920568 89.10866507 -20.91748047 97.7175293 C-21.81069 98.30398727 -22.70389954 98.89044525 -23.62417603 99.49467468 C-25.28080147 100.58208569 -26.93826323 101.66822426 -28.59677124 102.75276184 C-33.14212544 105.73549461 -37.59676417 108.81089705 -42 112 C-41.34 112.33 -40.68 112.66 -40 113 C-37.89473134 112.19684857 -37.89473134 112.19684857 -35.546875 110.89453125 C-34.6297876 110.41218018 -33.7127002 109.9298291 -32.76782227 109.43286133 C-31.77194092 108.89814209 -30.77605957 108.36342285 -29.75 107.8125 C-28.71222412 107.26295654 -27.67444824 106.71341309 -26.60522461 106.1472168 C-19.00622684 102.11051943 -11.44982413 97.9956751 -3.90722656 93.85473633 C4.35492315 89.32652651 12.67428243 84.9097461 21 80.5 C30.58736499 75.42020966 40.16193373 70.32017232 49.6875 65.125 C50.57115234 64.64353516 51.45480469 64.16207031 52.36523438 63.66601562 C56.29127305 61.51745276 60.18669036 59.34545725 64 57 C60.89973691 53.72257902 58.02901106 51.06895163 54 49 C51.45720277 49 50.61607644 49.77412989 48.52392578 51.2019043 Z M282.375 52 C281.14910156 52.556875 281.14910156 52.556875 279.8984375 53.125 C279.27195312 53.41375 278.64546875 53.7025 278 54 C279.64302953 55.68997323 281.31471312 57.35216394 283 59 C283.70125 59.78375 284.4025 60.5675 285.125 61.375 C288.58396652 63.33006803 289.05094218 62.8605059 292.75 62 C299.88452533 61.04234559 303.96639589 64.82317014 309.38549805 68.90600586 C310.86825069 70.04310415 312.34683706 71.18565499 313.82128906 72.33349609 C317.14549015 74.87618958 320.59666258 77.21857935 324.0625 79.5625 C328.21407278 82.38707897 332.34204384 85.23490997 336.41796875 88.16796875 C337.14298584 88.68351318 337.86800293 89.19905762 338.61499023 89.73022461 C340.00850903 90.72218052 341.39513682 91.72390977 342.77368164 92.73657227 C344.85946903 94.25408142 344.85946903 94.25408142 348 96 C350.16659722 95.68864281 350.16659722 95.68864281 352 95 C351.50822266 94.6690332 351.01644531 94.33806641 350.50976562 93.99707031 C341.19910646 87.71648175 332.00730951 81.34648904 323.07788086 74.53344727 C317.11035176 70.01182478 310.95239849 65.7927212 304.73242188 61.62695312 C299.92332994 58.38902519 295.34470782 54.97218327 290.84545898 51.3137207 C287.62312141 49.01984605 285.72174524 50.47005932 282.375 52 Z M258.625 62.97265625 C257.24979025 63.62417741 255.87454441 64.2756224 254.49926758 64.92700195 C253.40094101 65.4484227 253.40094101 65.4484227 252.28042603 65.9803772 C239.50935993 72.04058774 226.69553161 77.99423416 213.8125 83.8125 C200.7871138 89.69704481 187.855615 95.75109964 175 102 C176.5787681 103.7089129 176.5787681 103.7089129 179 105 C185.54901511 104.89657506 191.48836435 102.1172657 197.51953125 99.765625 C198.63993805 99.3355162 199.76034485 98.90540741 200.91470337 98.46226501 C204.54996348 97.06497925 208.18120892 95.65756438 211.8125 94.25 C214.30124218 93.29135874 216.79020336 92.3333119 219.27954102 91.3762207 C224.22264696 89.47478951 229.16413013 87.56919474 234.10449219 85.66064453 C242.48157898 82.42578335 250.86948947 79.2195371 259.25961304 76.01867676 C262.67249879 74.71617054 266.08430909 73.41085586 269.49609375 72.10546875 C270.57044678 71.69449951 271.6447998 71.28353027 272.75170898 70.86010742 C273.49364502 70.57627197 274.23558105 70.29243652 275 70 C275 69.01 275 68.02 275 67 C273.04346909 65.08330871 273.04346909 65.08330871 270.5625 63.3125 C269.73878906 62.68988281 268.91507813 62.06726563 268.06640625 61.42578125 C264.48629492 58.95557211 262.23249714 61.25161478 258.625 62.97265625 Z M-61 105 C-57.83606011 107.53115191 -54.54351484 109.40901101 -50.9375 111.25 C-49.89464844 111.79140625 -48.85179687 112.3328125 -47.77734375 112.890625 C-44.98342782 114.35312697 -44.98342782 114.35312697 -42 113 C-44.60060504 111.65929682 -47.20504916 110.32726646 -49.8125 109 C-50.55048828 108.6184375 -51.28847656 108.236875 -52.04882812 107.84375 C-53.11713867 107.30234375 -53.11713867 107.30234375 -54.20703125 106.75 C-54.8616333 106.41484375 -55.51623535 106.0796875 -56.19067383 105.734375 C-58.13784549 104.81195737 -58.13784549 104.81195737 -61 105 Z M372 112 C375.98654975 115.26241547 380.11210551 118.27381935 384.3125 121.25 C384.95767578 121.70890625 385.60285156 122.1678125 386.26757812 122.640625 C387.84412336 123.76172383 389.42193223 124.88104532 391 126 C391.66 125.67 392.32 125.34 393 125 C390.44854066 123.00626609 387.88211471 121.03276159 385.3125 119.0625 C384.59126953 118.49853516 383.87003906 117.93457031 383.12695312 117.35351562 C382.42119141 116.81533203 381.71542969 116.27714844 380.98828125 115.72265625 C380.34415283 115.22515869 379.70002441 114.72766113 379.03637695 114.21508789 C376.70168761 112.82199967 374.67418608 112.39188908 372 112 Z M393 126 C394.65 127.65 396.3 129.3 398 131 C398.66 130.67 399.32 130.34 400 130 C396.90672105 127.02324541 396.90672105 127.02324541 393 126 Z M400 131 C400.33 131.66 400.66 132.32 401 133 C401.66 132.67 402.32 132.34 403 132 C402.01 131.67 401.02 131.34 400 131 Z M403 133 C403.33 133.66 403.66 134.32 404 135 C404.66 134.67 405.32 134.34 406 134 C405.01 133.67 404.02 133.34 403 133 Z M407 136 C407.33 136.66 407.66 137.32 408 138 C408.66 137.67 409.32 137.34 410 137 C409.01 136.67 408.02 136.34 407 136 Z M410 138 C410.33 138.66 410.66 139.32 411 140 C411.66 139.67 412.32 139.34 413 139 C412.01 138.67 411.02 138.34 410 138 Z " fill="#B86A45" transform="translate(495,24)"/>
<path d="M0 0 C18.15 0 36.3 0 55 0 C60.58103624 17.31892992 66.15516504 34.63988551 71.7076416 51.96795654 C72.56077078 54.63014656 73.41454047 57.29212975 74.2689209 59.95391846 C76.7191772 67.5881826 79.16113704 75.2249971 81.59185791 82.86550903 C82.35205688 85.25117164 83.11479198 87.63602789 83.88031006 90.01998901 C88.86460108 105.55106851 93.26004393 121.12136112 97 137 C99.82642414 129.90335541 101.88404654 122.64952434 103.96484375 115.3046875 C108.93617531 97.93374006 114.35253034 80.7106178 119.81359863 63.48858643 C120.81541823 60.32677191 121.81417505 57.16399398 122.81277561 54.00116158 C128.5003618 35.98737829 134.24262857 17.99178573 140 0 C157.82 0 175.64 0 194 0 C194 63.03 194 126.06 194 191 C182.12 191 170.24 191 158 191 C158 142.49 158 93.98 158 44 C154.7 55.88 151.4 67.76 148 80 C146.1162344 86.15927361 144.21816233 92.29126759 142.1953125 98.40234375 C141.69956933 99.92112372 141.20454978 101.44014004 140.71017456 102.95936584 C139.44276323 106.84813256 138.16633457 110.73386911 136.8873291 114.61883545 C135.61857834 118.47780845 134.35840463 122.33957861 133.09765625 126.20117188 C131.34462443 131.56831607 129.58895047 136.93458072 127.82975388 142.29970741 C124.27859478 153.13149248 120.75643506 163.97259558 117.2421875 174.81640625 C116.84228292 176.0503478 116.84228292 176.0503478 116.43429947 177.30921745 C114.95553214 181.8725959 113.47765694 186.43626164 112 191 C102.43 191 92.86 191 83 191 C80.36526344 184.41315859 77.8897582 177.93080814 75.70703125 171.203125 C75.40376419 170.27668182 75.10049713 169.35023865 74.78804016 168.39572144 C73.7922104 165.34842979 72.80190688 162.29938268 71.8125 159.25 C71.46773621 158.19020935 71.12297241 157.1304187 70.76776123 156.03851318 C65.51322239 139.88117444 60.32044409 123.70397779 55.19491577 107.50524902 C54.50044875 105.31117772 53.8045874 103.11754709 53.10708618 100.92443848 C47.00485977 81.71653443 41.54102531 62.3935886 36 43 C36 91.84 36 140.68 36 191 C24.12 191 12.24 191 0 191 C0 127.97 0 64.94 0 0 Z " fill="#393A3B" transform="translate(409,252)"/>
<path d="M0 0 C3.48472634 1.29224328 6.46364844 2.80583489 9.55908203 4.85742188 C10.86536057 5.71841492 10.86536057 5.71841492 12.19802856 6.59680176 C13.12525726 7.21454468 14.05248596 7.8322876 15.0078125 8.46875 C15.97024872 9.10486206 16.93268494 9.74097412 17.92428589 10.3963623 C20.99401392 12.42668065 24.05953753 14.46324848 27.125 16.5 C29.19634112 17.87150685 31.26795269 19.24260533 33.33984375 20.61328125 C39.56553102 24.73370912 45.78813518 28.85875679 52 33 C55.41834348 32.66776266 57.29928075 31.04381272 59.97265625 29.015625 C62.36767578 27.66601562 62.36767578 27.66601562 65 27 C69.64220832 28.38907007 73.4503739 31.06871183 77.4375 33.75 C78.61155128 34.49989418 79.78828022 35.24561116 80.9675293 35.98730469 C83.41713166 37.53039843 85.85592712 39.08885667 88.29003906 40.65625 C94.16823691 44.40764909 100.24886237 47.81023861 106.3125 51.25 C108.43508885 52.46092471 110.55628414 53.67429689 112.67578125 54.890625 C113.61502441 55.42623047 114.55426758 55.96183594 115.52197266 56.51367188 C117.60230151 57.76145927 119.49164701 59.08118212 121.41796875 60.546875 C123.88243188 62.30839466 123.88243188 62.30839466 126.4609375 61.4765625 C127.71777344 60.74566406 127.71777344 60.74566406 129 60 C130.00289062 59.47148438 131.00578125 58.94296875 132.0390625 58.3984375 C133.23672591 57.72814169 134.43184556 57.05328947 135.625 56.375 C136.30320801 55.99166504 136.98141602 55.60833008 137.68017578 55.21337891 C145.04798544 51.01993813 152.32688708 46.67570326 159.61236572 42.34140015 C171.34088134 35.36457849 183.15060751 28.53386867 194.98339844 21.73535156 C199.70271906 19.02048178 204.4141701 16.2920684 209.125 13.5625 C209.93130859 13.09545654 210.73761719 12.62841309 211.56835938 12.1472168 C213.37901697 11.09833564 215.1895279 10.0492013 217 9 C223.02567377 12.90113612 228.75456524 17.03842436 234.375 21.5 C240.98313021 26.69435977 247.66530014 31.7713211 254.4375 36.75 C255.65348877 37.64428711 255.65348877 37.64428711 256.89404297 38.55664062 C262.31283382 43.15526098 262.31283382 43.15526098 268.71484375 44.8515625 C273.32975635 43.65530692 277.31183207 41.55082253 281.52148438 39.3515625 C284.19209918 38.0257639 286.44475201 37.0168257 289.44921875 36.92578125 C293.47766284 38.62229292 296.7712245 41.19371363 300.25 43.8125 C301.86912628 45.00741256 303.48893376 46.20140255 305.109375 47.39453125 C305.92728516 47.99990723 306.74519531 48.6052832 307.58789062 49.22900391 C311.18826432 51.87243617 314.84174537 54.43758938 318.5 57 C325.1301457 61.66004086 331.7073061 66.38945932 338.26953125 71.14453125 C343.97158198 75.27088575 349.69415586 79.36779817 355.4831686 83.3716011 C359.09966028 85.88682966 362.61229381 88.45946168 366.01734924 91.2555542 C377.27912472 100.31555407 387.21814209 103.67812123 401.33984375 105.953125 C403.32550596 106.3091178 405.31040802 106.66937379 407.29457092 107.03363037 C412.45032694 107.96890478 417.61399009 108.84834398 422.78167725 109.71490479 C428.06805271 110.61125241 433.34511883 111.55930327 438.62304688 112.50390625 C444.54596574 113.56144442 450.46944365 114.61362352 456.39988708 115.62823486 C457.29408356 115.7814772 458.18828003 115.93471954 459.10957336 116.09260559 C460.77775095 116.37754328 462.4462662 116.66051385 464.11517334 116.94114685 C467.17085445 117.46315878 470.0538091 118.01793637 473 119 C473 122.96 473 126.92 473 131 C454.91090433 127.95946262 436.87684605 124.7012141 418.86450195 121.23608398 C418.08896973 121.08749939 417.3134375 120.93891479 416.5144043 120.78582764 C415.05159871 120.50539691 413.58909772 120.22337114 412.12695312 119.93951416 C408.58873249 119.24031452 408.58873249 119.24031452 405 119 C410.61 122.96 416.22 126.92 422 131 C420.29395475 135.26511313 418.90212286 137.61418999 416 141 C411.43745504 138.82051324 407.40969642 135.98176374 403.25 133.125 C402.4154126 132.55362305 401.5808252 131.98224609 400.72094727 131.39355469 C394.32633144 126.98464492 388.07509752 122.40826688 381.90136719 117.69580078 C378.59510713 115.12445293 378.59510713 115.12445293 375 113 C375 112.34 375 111.68 375 111 C374.23429688 110.65775391 374.23429688 110.65775391 373.453125 110.30859375 C370.03951304 108.48763832 366.91912281 106.2713289 363.75 104.0625 C362.30478735 103.06105381 360.85947205 102.05975573 359.4140625 101.05859375 C358.67833008 100.54796387 357.94259766 100.03733398 357.18457031 99.51123047 C355.13633453 98.09431278 353.08177135 96.68735123 351.0234375 95.28515625 C343.19051693 89.9447517 335.45947875 84.48146557 327.78833008 78.91113281 C321.96689972 74.68623395 316.11375022 70.50910331 310.20141602 66.41210938 C306.6700101 63.95131442 303.24864192 61.42708416 299.91796875 58.69921875 C293.87148654 53.3798957 293.87148654 53.3798957 286.55859375 50.7734375 C284.1032175 51.54215566 282.2002216 52.66519889 280 54 C277.81996625 54.91385253 275.63157513 55.8078933 273.4375 56.6875 C267.9171342 59.05242559 262.55905175 61.69010556 257.20629883 64.41381836 C249.75141523 68.1778755 242.18875369 71.711771 234.625 75.25 C233.93425385 75.57314178 233.24350769 75.89628357 232.53182983 76.22921753 C221.9429964 81.17939519 211.34460717 86.10996437 200.71606445 90.97436523 C196.21473483 93.0363014 191.73029066 95.11152962 187.3046875 97.33203125 C186.27226929 97.8425 186.27226929 97.8425 185.21899414 98.36328125 C183.48931021 99.22446848 181.76943399 100.10528481 180.05078125 100.98828125 C172.89088879 103.36268861 167.4946425 100.0448074 161.10327148 96.84790039 C159.99669189 96.27934326 158.8901123 95.71078613 157.75 95.125 C156.60281494 94.54290771 155.45562988 93.96081543 154.27368164 93.36108398 C142.75022109 87.45925451 131.28410647 81.32855631 120.59765625 73.99609375 C116.73022707 71.38601635 112.75256077 69.31271505 108.55810547 67.28222656 C104.0922626 65.04376438 99.84455316 62.4427604 95.5625 59.875 C94.61745605 59.31820557 93.67241211 58.76141113 92.69873047 58.18774414 C87.95572347 55.39053535 83.2605728 52.54470248 78.62890625 49.56640625 C77.36228149 48.77484131 77.36228149 48.77484131 76.07006836 47.96728516 C74.47747139 46.97085854 72.90021185 45.94934731 71.34204102 44.89990234 C69.21177059 43.58797479 67.42232288 42.62558315 65 42 C58.64766902 43.94499206 53.85714914 48.30869855 48.62939453 52.31835938 C44.44577015 55.46280883 40.0889273 58.33232562 35.71484375 61.203125 C34.86446533 61.76133438 34.01408691 62.31954376 33.13793945 62.89466858 C29.45269299 65.30764268 25.76233598 67.71272981 22.0713501 70.11691284 C10.88973656 77.40541111 -0.19705513 84.78431957 -11.09765625 92.48828125 C-14.00330393 94.52200782 -16.91063047 96.55331327 -19.81832886 98.58410645 C-21.68124939 99.89725993 -23.5350418 101.22346488 -25.37918091 102.56286621 C-27.95237559 104.4306307 -30.55334197 106.25163691 -33.1640625 108.06640625 C-33.9133754 108.62934891 -34.66268829 109.19229156 -35.43470764 109.77229309 C-38.62332059 111.93589196 -40.62418447 113.26030879 -44.52015686 112.5231781 C-47.12538901 111.5054129 -49.53691147 110.32250264 -52 109 C-53.23229906 108.4397981 -54.46788858 107.88673407 -55.70776367 107.34350586 C-56.84963135 106.80604736 -57.99149902 106.26858887 -59.16796875 105.71484375 C-60.11734818 105.26930901 -60.11734818 105.26930901 -61.08590698 104.81477356 C-63.12116979 103.85862182 -65.15440976 102.89826157 -67.1875 101.9375 C-68.62875867 101.2586485 -70.07008445 100.57993946 -71.51147461 99.90136719 C-75.67656367 97.93898379 -79.83863063 95.97025615 -84 94 C-85.02319336 93.51611816 -86.04638672 93.03223633 -87.10058594 92.53369141 C-96.1269733 88.25896708 -105.12534657 83.93054146 -114.08210754 79.51168823 C-117.57312882 77.78993439 -121.06675777 76.07349975 -124.56027222 74.35681152 C-126.28967265 73.5048173 -128.01768112 72.64999084 -129.74417114 71.79211426 C-145.73139765 62.47324726 -145.73139765 62.47324726 -163 61 C-165.36068268 62.08519991 -165.36068268 62.08519991 -167.7109375 63.484375 C-168.61376465 64.00056396 -169.5165918 64.51675293 -170.44677734 65.04858398 C-171.41309082 65.61005127 -172.3794043 66.17151855 -173.375 66.75 C-175.45824011 67.94417306 -177.54157606 69.13817894 -179.625 70.33203125 C-180.6871875 70.94385254 -181.749375 71.55567383 -182.84375 72.18603516 C-187.67331257 74.96168877 -192.5238639 77.69978434 -197.375 80.4375 C-198.31569336 80.96947998 -199.25638672 81.50145996 -200.22558594 82.04956055 C-207.34692781 86.07506001 -214.48427307 90.07151387 -221.625 94.0625 C-230.12674853 98.81478287 -238.5988161 103.61504834 -247.04736328 108.46118164 C-254.88673816 112.95111343 -262.77006331 117.3608854 -270.65917969 121.76269531 C-278.59958668 126.1987459 -286.50079926 130.70005364 -294.36523438 135.26953125 C-298.1667575 137.46189559 -301.83972736 139.54559574 -306 141 C-306.83848804 139.54462432 -307.67063934 138.08559627 -308.5 136.625 C-309.19609375 135.40683594 -309.19609375 135.40683594 -309.90625 134.1640625 C-311 132 -311 132 -311 130 C-310.23147705 129.5781543 -309.4629541 129.15630859 -308.67114258 128.72167969 C-295.3115107 121.38338849 -281.96133031 114.03668074 -268.74853516 106.43603516 C-262.0919212 102.61038016 -255.39435988 98.86174536 -248.6875 95.125 C-240.33801041 90.47019648 -232.05325138 85.71955077 -223.8125 80.875 C-215.37844128 75.92036788 -206.87134036 71.13751793 -198.26196289 66.49462891 C-190.17889943 62.12893762 -182.19299127 57.5994326 -174.23413086 53.01147461 C-172.85753296 52.2246228 -172.85753296 52.2246228 -171.453125 51.421875 C-170.23351074 50.71949707 -170.23351074 50.71949707 -168.98925781 50.00292969 C-167 49 -167 49 -165 49 C-168.57286822 45.08197219 -172.71623829 42.23096437 -177.0625 39.25 C-177.78244141 38.74339844 -178.50238281 38.23679688 -179.24414062 37.71484375 C-179.93830078 37.23660156 -180.63246094 36.75835937 -181.34765625 36.265625 C-182.29137085 35.61255371 -182.29137085 35.61255371 -183.25415039 34.94628906 C-185.10861168 33.76173764 -185.10861168 33.76173764 -188 34 C-189.86529608 35.06820356 -189.86529608 35.06820356 -191.78125 36.5703125 C-192.53083984 37.12976562 -193.28042969 37.68921875 -194.05273438 38.265625 C-194.86033203 38.87921875 -195.66792969 39.4928125 -196.5 40.125 C-198.22902637 41.41945825 -199.95819699 42.71372384 -201.6875 44.0078125 C-202.57179688 44.67329102 -203.45609375 45.33876953 -204.3671875 46.02441406 C-208.39118142 49.04390208 -212.44587575 52.02116622 -216.5 55 C-218.08350544 56.16643306 -219.6668382 57.33310057 -221.25 58.5 C-237.08333333 70.16666667 -252.91666667 81.83333333 -268.75 93.5 C-269.53383057 94.07758057 -270.31766113 94.65516113 -271.12524414 95.25024414 C-272.70768185 96.41620806 -274.29020131 97.58206104 -275.87280273 98.74780273 C-279.84551887 101.67431443 -283.81676994 104.60277534 -287.78515625 107.53515625 C-291.7202707 110.4426549 -295.66237095 113.34051208 -299.60644531 116.23583984 C-302.09630797 118.07098341 -304.57553507 119.9199518 -307.0546875 121.76953125 C-308.68200961 122.97173606 -310.30960418 124.17357216 -311.9375 125.375 C-312.689104 125.940979 -313.44070801 126.50695801 -314.21508789 127.09008789 C-314.91625732 127.60434326 -315.61742676 128.11859863 -316.33984375 128.6484375 C-316.95206787 129.10395996 -317.56429199 129.55948242 -318.19506836 130.02880859 C-320 131 -320 131 -324 131 C-325.51953125 129.57421875 -325.51953125 129.57421875 -326.8125 127.6875 C-327.25207031 127.07261719 -327.69164062 126.45773438 -328.14453125 125.82421875 C-329 124 -329 124 -328 121 C-326.07274758 119.46242714 -324.15994242 118.06892305 -322.125 116.6875 C-320.83877904 115.79189172 -319.55368226 114.89466747 -318.26953125 113.99609375 C-317.57811035 113.51382324 -316.88668945 113.03155273 -316.17431641 112.53466797 C-312.34429461 109.83137614 -308.58075844 107.03841826 -304.8125 104.25 C-304.01086426 103.65791748 -303.20922852 103.06583496 -302.38330078 102.45581055 C-300.74046627 101.24237178 -299.09788947 100.02858403 -297.45556641 98.81445312 C-293.47350788 95.87205315 -289.48656062 92.9362956 -285.5 90 C-283.91664211 88.83336666 -282.3333088 87.66669996 -280.75 86.5 C-233.25 51.5 -233.25 51.5 -230.87329102 49.7487793 C-229.29560517 48.58624831 -227.71796817 47.42365103 -226.14038086 46.26098633 C-222.09604621 43.28048844 -218.05077703 40.30127242 -214.00390625 37.32421875 C-212.77244873 36.41736328 -212.77244873 36.41736328 -211.51611328 35.4921875 C-209.90027834 34.30370472 -208.28280383 33.11744735 -206.66357422 31.93359375 C-203.16135929 29.36672557 -199.6923562 26.78227399 -196.31640625 24.05078125 C-195.76911865 23.61483643 -195.22183105 23.1788916 -194.65795898 22.72973633 C-193.24242987 21.59420198 -191.84307622 20.43858206 -190.4453125 19.28125 C-188 18 -188 18 -185.65234375 18.453125 C-182.09542093 20.5275601 -178.76966721 22.83394587 -175.4375 25.25 C-173.91573865 26.33906455 -172.39358696 27.42758382 -170.87109375 28.515625 C-170.07558105 29.08603516 -169.28006836 29.65644531 -168.46044922 30.24414062 C-164.32818173 33.19306579 -160.16312196 36.09487803 -156 39 C-151.08824575 42.42946967 -146.18095354 45.86393467 -141.3046875 49.34375 C-140.18320312 50.14232422 -140.18320312 50.14232422 -139.0390625 50.95703125 C-137.65920831 51.9408623 -136.28138115 52.92754691 -134.90625 53.91796875 C-125.57177163 60.56640335 -115.81231659 65.6624992 -105.375 70.375 C-104.18003906 70.92027344 -102.98507812 71.46554688 -101.75390625 72.02734375 C-98.83829721 73.35686147 -95.92035348 74.68094488 -93 76 C-87.41963296 71.89252836 -82.01637996 67.61516331 -76.6875 63.1875 C-75.18890963 61.94778665 -73.69021177 60.70820323 -72.19140625 59.46875 C-71.47227051 58.87320313 -70.75313477 58.27765625 -70.01220703 57.6640625 C-67.39056697 55.49600879 -64.75916815 53.34031656 -62.125 51.1875 C-60.83335937 50.13175781 -60.83335937 50.13175781 -59.515625 49.0546875 C-57.83854167 47.68489583 -56.16145833 46.31510417 -54.484375 44.9453125 C-48.0632012 39.69686804 -41.6594752 34.42755621 -35.25927734 29.15356445 C-31.34508068 25.92885454 -27.42723253 22.70883634 -23.5 19.5 C-18.61737871 15.50925071 -13.74479403 11.50638399 -8.875 7.5 C-7.73514648 6.56317383 -7.73514648 6.56317383 -6.57226562 5.60742188 C-5.86521484 5.02541016 -5.15816406 4.44339844 -4.4296875 3.84375 C-3.79272949 3.31974609 -3.15577148 2.79574219 -2.49951172 2.25585938 C-1.04981068 1.07917215 -1.04981068 1.07917215 0 0 Z M-5 20 C-6.18398932 21.01928311 -7.36889314 22.03750486 -8.5546875 23.0546875 C-9.14088867 23.55838867 -9.72708984 24.06208984 -10.33105469 24.58105469 C-13.34312531 27.14193158 -16.44594123 29.58636049 -19.54296875 32.04296875 C-24.0678414 35.64704061 -28.52825366 39.33038895 -33 43 C-40.01225665 48.74792553 -47.04091401 54.47525142 -54.08105469 60.18896484 C-58.90716082 64.10715545 -63.71511181 68.04658063 -68.515625 71.99609375 C-71.75532879 74.60925105 -75.07364969 77.11235345 -78.41796875 79.58984375 C-78.94003906 80.05519531 -79.46210938 80.52054687 -80 81 C-80 81.66 -80 82.32 -80 83 C-75.25776571 85.31459401 -70.50728387 87.61093021 -65.74829102 89.89086914 C-64.13099322 90.66879959 -62.5160496 91.45164436 -60.90356445 92.23950195 C-58.58367485 93.3719396 -56.25585879 94.48636242 -53.92578125 95.59765625 C-53.20787918 95.952798 -52.48997711 96.30793976 -51.75032043 96.67384338 C-48.98905335 97.97429106 -46.6133276 98.9855287 -43.53735352 99.05810547 C-39.50598249 97.37697759 -36.06020255 94.94927565 -32.4765625 92.47265625 C-31.63389328 91.90029739 -30.79122406 91.32793854 -29.92301941 90.73823547 C-27.151795 88.8538572 -24.38836346 86.95838314 -21.625 85.0625 C-17.74821322 82.41745741 -13.86818188 79.77719085 -9.98828125 77.13671875 C-9.00004868 76.46296204 -8.0118161 75.78920532 -6.99363708 75.09503174 C-0.19515517 70.46742028 6.64618676 65.91007465 13.51953125 61.39453125 C14.42674927 60.79699539 15.33396729 60.19945953 16.26867676 59.58381653 C23.33003409 54.93302489 23.33003409 54.93302489 26.78460693 52.68484497 C29.18928266 51.11921286 31.58553888 49.54142165 33.98046875 47.9609375 C34.69709183 47.49972 35.4137149 47.0385025 36.15205383 46.56330872 C37.82232128 45.45317305 39.42044675 44.2358018 41 43 C41 42.01 41 41.02 41 40 C39.54363251 38.59418449 39.54363251 38.59418449 37.54345703 37.36450195 C36.78912384 36.86420975 36.03479065 36.36391754 35.25759888 35.84846497 C34.43266937 35.31710434 33.60773987 34.78574371 32.7578125 34.23828125 C31.49975296 33.41229683 31.49975296 33.41229683 30.21627808 32.56962585 C28.43891427 31.40565423 26.65821791 30.24675816 24.87451172 29.0925293 C22.13650102 27.31994574 19.40936815 25.53156308 16.68359375 23.74023438 C14.95895114 22.613637 13.23371031 21.48795476 11.5078125 20.36328125 C10.27649094 19.55713127 10.27649094 19.55713127 9.02029419 18.73469543 C8.25965668 18.24385971 7.49901917 17.75302399 6.71533203 17.24731445 C6.04470734 16.81224075 5.37408264 16.37716705 4.68313599 15.9289093 C0.48231931 13.61051214 -1.94366157 17.32755792 -5 20 Z M211.1640625 25.71875 C210.13345703 26.31300781 209.10285156 26.90726563 208.04101562 27.51953125 C206.91373047 28.17308594 205.78644531 28.82664062 204.625 29.5 C203.4472738 30.18100372 202.26953929 30.86199308 201.09179688 31.54296875 C191.74500658 36.95531348 182.45335365 42.45811479 173.17114258 47.98046875 C161.18099729 55.10336198 149.0978687 62.06193791 137 69 C139.67798096 72.0573119 142.99402919 73.94624495 146.4609375 75.9765625 C147.08851959 76.34727875 147.71610168 76.717995 148.36270142 77.09994507 C149.68767888 77.88051383 151.01407854 78.65867284 152.34179688 79.43457031 C154.36588108 80.61966092 156.38226382 81.81713816 158.3984375 83.015625 C159.68965415 83.77420402 160.98130684 84.53204142 162.2734375 85.2890625 C162.87255951 85.6463443 163.47168152 86.0036261 164.08895874 86.37173462 C167.36724514 88.27130406 170.18276523 89.83996473 174 90 C177.17433231 89.018163 177.17433231 89.018163 180.51171875 87.37890625 C181.1450563 87.08789032 181.77839386 86.79687439 182.43092346 86.49703979 C184.52272438 85.53179282 186.60488239 84.5473851 188.6875 83.5625 C190.15084555 82.88242138 191.61472213 82.20348432 193.07910156 81.52563477 C196.94048505 79.73360586 200.7935253 77.92434995 204.64422607 76.10949707 C206.98433573 75.00737739 209.32607894 73.90881278 211.66845703 72.81152344 C218.93613878 69.40675353 226.19855856 65.99121884 233.453125 62.55859375 C240.28177912 59.32787278 247.13418524 56.15110155 254 53 C252.86653385 49.59960154 252.16879733 49.12164474 249.34375 47.1015625 C248.57595215 46.54549316 247.8081543 45.98942383 247.01708984 45.41650391 C245.77113037 44.52970947 245.77113037 44.52970947 244.5 43.625 C242.77236799 42.3764786 241.04582986 41.12644232 239.3203125 39.875 C237.99821777 38.91787109 237.99821777 38.91787109 236.64941406 37.94140625 C231.75469347 34.35471088 226.96237344 30.63428225 222.16992188 26.91259766 C216.85184511 22.63272497 216.85184511 22.63272497 211.1640625 25.71875 Z " fill="#17181B" transform="translate(495,24)"/>
<path d="M0 0 C2.37612665 0.00314175 4.75098089 -0.02032043 7.12695312 -0.0456543 C26.77254285 -0.12818225 48.40312598 2.10978357 63.27539062 16.31567383 C64.20931641 17.20706055 64.20931641 17.20706055 65.16210938 18.11645508 C73.23499478 26.57459748 76.99503407 37.03390981 79.27539062 48.31567383 C72.26415869 49.80024835 65.25091357 50.9755542 58.15039062 51.94067383 C57.21324219 52.07473633 56.27609375 52.20879883 55.31054688 52.34692383 C49.90783117 53.08743591 44.72792853 53.45679834 39.27539062 53.31567383 C38.29375641 51.37942284 37.31516608 49.44162844 36.33789062 47.50317383 C35.79261719 46.42422852 35.24734375 45.3452832 34.68554688 44.23364258 C33.27539062 41.31567383 33.27539062 41.31567383 32.27539062 38.31567383 C30.42994719 37.19472355 30.42994719 37.19472355 28.27539062 36.31567383 C27.66179687 35.98567383 27.04820312 35.65567383 26.41601562 35.31567383 C25.79210937 34.98567383 25.16820312 34.65567383 24.52539062 34.31567383 C23.91179687 33.98567383 23.29820312 33.65567383 22.66601562 33.31567383 C15.64047538 30.37688575 8.98466375 29.95990813 1.46289062 30.00317383 C0.48964844 30.00663818 -0.48359375 30.01010254 -1.48632812 30.01367188 C-8.26717167 30.116498 -14.39730289 30.71031233 -20.72460938 33.31567383 C-21.85898438 33.76942383 -22.99335938 34.22317383 -24.16210938 34.69067383 C-28.60710137 37.50944924 -31.3715042 41.24152941 -32.72460938 46.31567383 C-33.49766886 53.0858008 -33.01011993 58.83117002 -28.72460938 64.31567383 C-17.09966863 76.31748297 6.8556118 77.9599863 22.52490234 81.33666992 C41.19274327 85.40665004 63.05963577 90.54162234 75.01367188 106.65942383 C84.01506059 120.77574558 86.24883884 136.20732035 83.08789062 152.56567383 C79.92242597 165.63597949 73.23037874 175.65038167 61.90039062 183.12817383 C60.0422943 184.2199656 58.1673587 185.28369124 56.27539062 186.31567383 C55.44652344 186.7771582 54.61765625 187.23864258 53.76367188 187.71411133 C37.46958599 195.94848857 18.58552269 196.5491669 0.71289062 196.56567383 C-0.04372864 196.56668091 -0.8003479 196.56768799 -1.57989502 196.56872559 C-12.56374139 196.55882997 -23.06260381 196.21214373 -33.72460938 193.31567383 C-34.78421875 193.03723633 -35.84382813 192.75879883 -36.93554688 192.47192383 C-54.50220607 187.23353703 -67.87732199 177.1428972 -76.765625 161.19897461 C-79.4312585 155.96407217 -82.72460938 149.21343927 -82.72460938 143.31567383 C-77.83254966 142.45579952 -72.9395656 141.60147022 -68.0456543 140.75219727 C-66.38197905 140.46269349 -64.71856342 140.17169349 -63.05541992 139.87915039 C-60.66066602 139.45818917 -58.26502076 139.04267089 -55.86914062 138.62817383 C-55.12936478 138.49693115 -54.38958893 138.36568848 -53.62739563 138.23046875 C-49.95306321 137.60024353 -46.45462846 137.16199064 -42.72460938 137.31567383 C-42.48226562 137.89575195 -42.23992187 138.47583008 -41.99023438 139.07348633 C-39.93424964 143.86551228 -37.68189976 148.03270155 -34.72460938 152.31567383 C-34.39460938 153.30567383 -34.06460938 154.29567383 -33.72460938 155.31567383 C-31.87077586 156.43815383 -31.87077586 156.43815383 -29.72460938 157.31567383 C-29.14582031 157.63407227 -28.56703125 157.9524707 -27.97070312 158.28051758 C-12.39702566 166.65599423 7.3574825 167.28446105 24.27539062 162.94067383 C28.17620031 161.76642128 31.71200638 160.31464548 35.27539062 158.31567383 C36.01789063 158.00629883 36.76039063 157.69692383 37.52539062 157.37817383 C39.80403513 155.99471109 40.29243003 154.77307532 41.27539062 152.31567383 C41.61699219 151.55641602 41.95859375 150.7971582 42.31054688 150.01489258 C44.35861192 144.28528551 43.8237837 138.2834372 42.21289062 132.50317383 C36.15448709 122.53612286 25.62924289 119.09446841 14.83789062 116.44067383 C13.846521 116.18874268 12.85515137 115.93681152 11.83374023 115.67724609 C5.41881219 114.05883548 -1.01629608 112.52908542 -7.45556641 111.01098633 C-54.59552107 99.87025089 -54.59552107 99.87025089 -66.53710938 82.56567383 C-73.88749642 69.69613804 -75.72972729 54.01745295 -72.41992188 39.65942383 C-68.32770338 25.86542889 -59.6412118 15.83584032 -47.13085938 8.91723633 C-32.09629254 1.84823128 -16.42658713 -0.04518316 0 0 Z " fill="#393A3B" transform="translate(208.724609375,248.684326171875)"/>
<path d="M0 0 C2.18296321 0.0031609 4.36456598 -0.02040973 6.54736328 -0.0456543 C29.91423009 -0.15255508 51.725401 6.67529067 68.97314453 22.88598633 C76.11481037 30.28951325 86.31689453 43.39310216 86.31689453 54.31567383 C81.53255149 55.62643713 76.7454079 56.92620044 71.95532227 58.21582031 C70.32592226 58.65615921 68.6973313 59.09950321 67.06958008 59.54589844 C64.73090053 60.18670091 62.38953269 60.81667078 60.04736328 61.44458008 C59.31913864 61.64660538 58.590914 61.84863068 57.84062195 62.05677795 C52.65850965 63.42954553 52.65850965 63.42954553 49.31689453 62.31567383 C47.95751953 59.83911133 47.95751953 59.83911133 46.56689453 56.69067383 C40.43509108 44.16046678 30.49471802 39.33062693 17.91064453 34.36645508 C2.895142 30.16568949 -14.50487664 33.44235819 -27.92919922 40.60083008 C-40.01224812 48.12488464 -45.66580697 60.42376297 -48.95654297 73.77270508 C-53.31955247 95.04824067 -52.4742624 119.62919872 -42.68310547 139.31567383 C-40.9526401 141.85271204 -39.14816881 144.19288346 -37.13623047 146.51098633 C-35.68310547 148.31567383 -35.68310547 148.31567383 -34.68310547 151.31567383 C-32.85122755 152.38054153 -32.85122755 152.38054153 -30.68310547 153.31567383 C-29.24560547 154.27400716 -27.80810547 155.23234049 -26.37060547 156.19067383 C-13.47511745 163.90527663 1.47833355 165.08203519 16.00439453 162.19067383 C29.57554886 158.59390164 39.56489518 152.00869061 46.68701172 139.83520508 C47.70993194 138.01959188 48.70620803 136.19287568 49.68798828 134.35473633 C51.31689453 131.31567383 51.31689453 131.31567383 53.31689453 128.31567383 C60.94803406 130.50224982 68.42441158 133.02862545 75.87939453 135.75317383 C77.51618164 136.32648438 77.51618164 136.32648438 79.18603516 136.91137695 C80.22050781 137.29100586 81.25498047 137.67063477 82.32080078 138.06176758 C83.72567749 138.56728149 83.72567749 138.56728149 85.15893555 139.08300781 C87.31689453 140.31567383 87.31689453 140.31567383 88.21044922 142.25561523 C88.38763106 145.68465289 86.62561014 148.34219444 85.00439453 151.25317383 C84.64192627 151.91269043 84.27945801 152.57220703 83.90600586 153.25170898 C72.47904175 173.46025989 55.62373809 186.61825601 33.49658203 193.30786133 C23.66335286 195.82657379 14.07213754 196.65000843 3.94189453 196.56567383 C2.75160645 196.55818115 1.56131836 196.55068848 0.33496094 196.54296875 C-22.25182803 196.26608646 -44.15527615 191.2940007 -61.68310547 176.31567383 C-62.43333984 175.70981445 -63.18357422 175.10395508 -63.95654297 174.47973633 C-76.32191118 164.14009397 -83.91222031 150.0265139 -88.49560547 134.75317383 C-88.69049561 134.10590332 -88.88538574 133.45863281 -89.08618164 132.79174805 C-92.27370607 121.39870128 -93.04692414 109.9749068 -92.99560547 98.19067383 C-92.99345032 97.51413757 -92.99129517 96.83760132 -92.98907471 96.14056396 C-92.84524107 67.89679236 -86.4600746 43.37919315 -66.68310547 22.31567383 C-49.02264076 5.04499867 -23.85515899 -0.07190102 0 0 Z " fill="#393A3B" transform="translate(730.68310546875,248.684326171875)"/>
<path d="M0 0 C13.53 0 27.06 0 41 0 C41 63.03 41 126.06 41 191 C27.47 191 13.94 191 0 191 C0 127.97 0 64.94 0 0 Z " fill="#393A3B" transform="translate(932,252)"/>
<path d="M0 0 C13.53 0 27.06 0 41 0 C41 63.03 41 126.06 41 191 C27.47 191 13.94 191 0 191 C0 127.97 0 64.94 0 0 Z " fill="#393A3C" transform="translate(850,252)"/>
<path d="M0 0 C13.53 0 27.06 0 41 0 C41.02254455 24.75565327 41.04097773 49.51129827 41.05181217 74.26695919 C41.05697575 85.76057743 41.06401963 97.25418886 41.07543945 108.74780273 C41.08538439 118.76175187 41.09185297 128.77569608 41.09408849 138.78965002 C41.09539593 144.09545443 41.09848381 149.40124471 41.10573006 154.7070446 C41.11248728 159.69490771 41.11461757 164.68275081 41.11310768 169.67061806 C41.11338414 171.50690189 41.11539102 173.34318635 41.11920547 175.17946625 C41.12413808 177.67520616 41.1229999 180.17086924 41.12025452 182.66661072 C41.12316736 183.40297805 41.1260802 184.13934539 41.12908131 184.89802688 C41.11412121 189.88587879 41.11412121 189.88587879 40 191 C26.8 191 13.6 191 0 191 C0 127.97 0 64.94 0 0 Z " fill="#38393A" transform="translate(327,252)"/>
<path d="M0 0 C3.55692282 2.0744351 6.88267654 4.38082087 10.21484375 6.796875 C11.7366051 7.88593955 13.25875679 8.97445882 14.78125 10.0625 C15.5767627 10.63291016 16.37227539 11.20332031 17.19189453 11.79101562 C21.32416983 14.73994636 25.48962991 17.64115646 29.65234375 20.546875 C31.32957255 21.72114642 33.00665637 22.89562495 34.68359375 24.0703125 C37.97150599 26.37262409 41.26373829 28.66857625 44.55859375 30.9609375 C46.08994752 32.03110153 47.62120221 33.10140735 49.15234375 34.171875 C49.85230469 34.6565625 50.55226563 35.14125 51.2734375 35.640625 C54.70806359 38.04826388 57.79574216 40.44250694 60.65234375 43.546875 C56.27990573 42.18501531 52.26315126 40.48633963 48.15234375 38.47265625 C46.92352972 37.88142797 45.6943518 37.29095552 44.46484375 36.70117188 C42.55222534 35.78003557 40.64235742 34.85445189 38.73828125 33.91577148 C36.88291412 33.00359703 35.01885499 32.1117574 33.15234375 31.22265625 C32.04890625 30.68552002 30.94546875 30.14838379 29.80859375 29.5949707 C26.70148927 28.29036139 26.70148927 28.29036139 23.54956055 29.06494141 C20.65234375 29.546875 20.65234375 29.546875 18.18286133 28.37524414 C17.39548584 27.78348389 16.60811035 27.19172363 15.796875 26.58203125 C14.49266602 25.62973633 14.49266602 25.62973633 13.16210938 24.65820312 C12.27201172 23.98208984 11.38191406 23.30597656 10.46484375 22.609375 C8.68412318 21.2817899 6.89915394 19.95987884 5.109375 18.64453125 C3.93338745 17.75519897 3.93338745 17.75519897 2.73364258 16.84790039 C0.63744415 15.28184424 0.63744415 15.28184424 -2.34765625 15.546875 C-4.21295233 16.61507856 -4.21295233 16.61507856 -6.12890625 18.1171875 C-6.87849609 18.67664063 -7.62808594 19.23609375 -8.40039062 19.8125 C-9.20798828 20.42609375 -10.01558594 21.0396875 -10.84765625 21.671875 C-12.57668262 22.96633325 -14.30585324 24.26059884 -16.03515625 25.5546875 C-16.91945313 26.22016602 -17.80375 26.88564453 -18.71484375 27.57128906 C-22.73883767 30.59077708 -26.793532 33.56804122 -30.84765625 36.546875 C-32.43116169 37.71330806 -34.01449445 38.87997557 -35.59765625 40.046875 C-51.43098958 51.71354167 -67.26432292 63.38020833 -83.09765625 75.046875 C-83.88148682 75.62445557 -84.66531738 76.20203613 -85.47290039 76.79711914 C-87.0553381 77.96308306 -88.63785756 79.12893604 -90.22045898 80.29467773 C-94.19317512 83.22118943 -98.16442619 86.14965034 -102.1328125 89.08203125 C-106.06792695 91.9895299 -110.0100272 94.88738708 -113.95410156 97.78271484 C-116.44396422 99.61785841 -118.92319132 101.4668268 -121.40234375 103.31640625 C-123.02966586 104.51861106 -124.65726043 105.72044716 -126.28515625 106.921875 C-127.03676025 107.487854 -127.78836426 108.05383301 -128.56274414 108.63696289 C-129.26391357 109.15121826 -129.96508301 109.66547363 -130.6875 110.1953125 C-131.29972412 110.65083496 -131.91194824 111.10635742 -132.54272461 111.57568359 C-134.34765625 112.546875 -134.34765625 112.546875 -138.34765625 112.546875 C-139.8671875 111.12109375 -139.8671875 111.12109375 -141.16015625 109.234375 C-141.59972656 108.61949219 -142.03929687 108.00460938 -142.4921875 107.37109375 C-143.34765625 105.546875 -143.34765625 105.546875 -142.34765625 102.546875 C-140.42040383 101.00930214 -138.50759867 99.61579805 -136.47265625 98.234375 C-135.18643529 97.33876672 -133.90133851 96.44154247 -132.6171875 95.54296875 C-131.9257666 95.06069824 -131.2343457 94.57842773 -130.52197266 94.08154297 C-126.69195086 91.37825114 -122.92841469 88.58529326 -119.16015625 85.796875 C-118.35852051 85.20479248 -117.55688477 84.61270996 -116.73095703 84.00268555 C-115.08812252 82.78924678 -113.44554572 81.57545903 -111.80322266 80.36132812 C-107.82116413 77.41892815 -103.83421687 74.4831706 -99.84765625 71.546875 C-98.26429836 70.38024166 -96.68096505 69.21357496 -95.09765625 68.046875 C-47.59765625 33.046875 -47.59765625 33.046875 -45.22094727 31.2956543 C-43.64326142 30.13312331 -42.06562442 28.97052603 -40.48803711 27.80786133 C-36.44370246 24.82736344 -32.39843328 21.84814742 -28.3515625 18.87109375 C-27.12010498 17.96423828 -27.12010498 17.96423828 -25.86376953 17.0390625 C-24.24793459 15.85057972 -22.63046008 14.66432235 -21.01123047 13.48046875 C-17.50901554 10.91360057 -14.04001245 8.32914899 -10.6640625 5.59765625 C-10.1167749 5.16171143 -9.5694873 4.7257666 -9.00561523 4.27661133 C-7.59008612 3.14107698 -6.19073247 1.98545706 -4.79296875 0.828125 C-2.34765625 -0.453125 -2.34765625 -0.453125 0 0 Z " fill="#898B8D" transform="translate(309.34765625,42.453125)"/>
<path d="M0 0 C3.47607909 1.29001546 6.45323032 2.79772222 9.54321289 4.84155273 C10.41083755 5.4123204 11.27846222 5.98308807 12.17237854 6.57115173 C13.09647018 7.1857576 14.02056183 7.80036346 14.97265625 8.43359375 C15.93272079 9.06733414 16.89278534 9.70107452 17.88194275 10.35401917 C19.90811875 11.69265048 21.93287326 13.03343555 23.95629883 14.3762207 C27.05188853 16.43045821 30.15149834 18.47850515 33.25195312 20.52539062 C35.22159126 21.8277665 37.1910001 23.13048924 39.16015625 24.43359375 C40.54933006 25.3524662 40.54933006 25.3524662 41.96656799 26.28990173 C42.8310405 26.86382156 43.695513 27.43774139 44.58618164 28.02905273 C45.72271935 28.78278419 45.72271935 28.78278419 46.88221741 29.55174255 C51.24723037 32.53678103 51.24723037 32.53678103 53 34 C53 34.66 53 35.32 53 36 C51.20703125 37.578125 51.20703125 37.578125 48.8125 39.25 C48.03519531 39.81203125 47.25789062 40.3740625 46.45703125 40.953125 C44 42 44 42 41.86914062 41.40576172 C37.88876268 39.4555391 34.30523132 37.03350856 30.63671875 34.5546875 C29.84473587 34.02481232 29.05275299 33.49493713 28.23677063 32.94900513 C25.71741592 31.26199484 23.20242622 29.56860319 20.6875 27.875 C18.97619578 26.72744047 17.26461033 25.58030022 15.55273438 24.43359375 C11.36521524 21.62724371 7.18159816 18.81516418 3 16 C-0.21448686 17.54974409 -2.79037373 19.30186985 -5.5625 21.5625 C-6.44164062 22.27664062 -7.32078125 22.99078125 -8.2265625 23.7265625 C-9.14179688 24.47679688 -10.05703125 25.22703125 -11 26 C-11.89460938 26.72960937 -12.78921875 27.45921875 -13.7109375 28.2109375 C-16.47725356 30.46996351 -19.23891056 32.73459001 -22 35 C-23.83310162 36.50028317 -25.66643427 38.00028408 -27.5 39.5 C-30.19209947 41.70228166 -32.88392614 43.90488636 -35.57421875 46.109375 C-41.73019971 51.15194236 -47.90230431 56.17434787 -54.08105469 61.18896484 C-58.04316923 64.40570305 -61.99476434 67.63454685 -65.9375 70.875 C-66.79601562 71.57109375 -67.65453125 72.2671875 -68.5390625 72.984375 C-70.20029974 74.34500741 -71.84077127 75.73133755 -73.4609375 77.140625 C-79.18144835 81.96789994 -79.18144835 81.96789994 -83.1875 82.125 C-86.22928212 80.90828715 -89.12615372 79.57377296 -92 78 C-90.48318506 74.18653872 -88.25546974 72.32747903 -85.0625 69.8125 C-84.07378906 69.02488281 -83.08507812 68.23726563 -82.06640625 67.42578125 C-80.54853516 66.22501953 -80.54853516 66.22501953 -79 65 C-77.16368682 63.50364943 -75.33027886 62.00372551 -73.5 60.5 C-69.83333333 57.5 -66.16666667 54.5 -62.5 51.5 C-61.12714844 50.37658203 -61.12714844 50.37658203 -59.7265625 49.23046875 C-57.97182216 47.79500065 -56.21664845 46.36006204 -54.4609375 44.92578125 C-48.04718247 39.68432888 -41.65162647 34.42108858 -35.25927734 29.15356445 C-31.34508068 25.92885454 -27.42723253 22.70883634 -23.5 19.5 C-18.61737871 15.50925071 -13.74479403 11.50638399 -8.875 7.5 C-8.11509766 6.87544922 -7.35519531 6.25089844 -6.57226562 5.60742188 C-5.86521484 5.02541016 -5.15816406 4.44339844 -4.4296875 3.84375 C-3.79272949 3.31974609 -3.15577148 2.79574219 -2.49951172 2.25585938 C-1.04981068 1.07917215 -1.04981068 1.07917215 0 0 Z " fill="#898B8D" transform="translate(495,24)"/>
<path d="M0 0 C6.02561835 3.90110024 11.75496526 8.03797105 17.375 12.5 C24.73444345 18.29347141 32.21321585 23.89698718 39.80615234 29.38085938 C43.47317334 32.04806934 46.92862848 34.63298844 50 38 C48.61518672 38.87191947 47.21654754 39.72190384 45.8125 40.5625 C45.03519531 41.03816406 44.25789062 41.51382813 43.45703125 42.00390625 C40.41268748 43.23809967 39.12996947 42.88046009 36 42 C33.95800781 40.80761719 33.95800781 40.80761719 31.953125 39.296875 C30.82064331 38.45310303 30.82064331 38.45310303 29.6652832 37.59228516 C28.86823975 36.98433105 28.07119629 36.37637695 27.25 35.75 C26.42395264 35.13044434 25.59790527 34.51088867 24.74682617 33.87255859 C22.15674266 31.92512367 19.57723723 29.96439617 17 28 C16.15969238 27.3615918 15.31938477 26.72318359 14.45361328 26.06542969 C9.62282228 22.39361019 4.80585675 18.70438638 0 15 C-6.7986376 18.28986677 -13.33896504 21.86306684 -19.8125 25.75 C-21.74185484 26.89899627 -23.6715613 28.04740226 -25.6015625 29.1953125 C-26.62797852 29.80665039 -27.65439453 30.41798828 -28.71191406 31.04785156 C-35.92680328 35.33135722 -43.16634341 39.57347048 -50.4152832 43.79907227 C-51.6349949 44.5104654 -52.85464087 45.22197124 -54.07421875 45.93359375 C-54.66695084 46.27940994 -55.25968292 46.62522614 -55.87037659 46.98152161 C-59.57067995 49.14643471 -63.24007503 51.35636559 -66.89453125 53.59765625 C-67.76827393 54.12601074 -68.6420166 54.65436523 -69.54223633 55.19873047 C-71.13054879 56.16083729 -72.71055405 57.13685563 -74.2800293 58.12939453 C-79.31137585 61.14902333 -79.31137585 61.14902333 -82.76171875 60.40234375 C-83.50035156 59.93957031 -84.23898437 59.47679687 -85 59 C-85.66644531 58.64679688 -86.33289063 58.29359375 -87.01953125 57.9296875 C-88.6796875 56.953125 -90.33984375 55.9765625 -92 55 C-88.88872633 51.54472801 -85.49201231 49.41553746 -81.4375 47.25 C-73.90220827 43.11866116 -66.50620277 38.77505884 -59.125 34.375 C-46.81969601 27.04923558 -34.4339611 19.86973192 -22.01660156 12.73535156 C-17.29728094 10.02048178 -12.5858299 7.2920684 -7.875 4.5625 C-7.06869141 4.09545654 -6.26238281 3.62841309 -5.43164062 3.1472168 C-3.62098303 2.09833564 -1.8104721 1.0492013 0 0 Z " fill="#898B8D" transform="translate(712,33)"/>
<path d="M0 0 C5.83058412 0.58053943 11.56238748 1.38101124 17.31787109 2.47460938 C18.0946521 2.61945267 18.87143311 2.76429596 19.67175293 2.91352844 C22.20626936 3.38701694 24.7398628 3.86525025 27.2734375 4.34375 C29.04696422 4.67645824 30.8205347 5.00893331 32.59414673 5.34118652 C36.29444244 6.03510606 39.9943031 6.73128637 43.69384766 7.42919922 C48.43779844 8.32402791 53.18264428 9.21400112 57.92780113 10.10240936 C61.58259489 10.78707442 65.23698811 11.47385706 68.89125443 12.16133118 C70.64147135 12.49041744 72.39179395 12.81894216 74.14222336 13.14689636 C76.58138033 13.60430416 79.02000355 14.06445567 81.45849609 14.52539062 C82.18162994 14.66048538 82.90476379 14.79558014 83.64981079 14.93476868 C86.5155317 15.47897237 89.22825339 16.07608446 92 17 C92 20.96 92 24.92 92 29 C84.66015708 27.77472927 77.3286216 26.50957021 70.00192261 25.20837402 C65.04952537 24.33701757 60.08898199 23.54021801 55.11978149 22.77095032 C14.42687032 16.40120765 14.42687032 16.40120765 2 3 C1.34 2.01 0.68 1.02 0 0 Z " fill="#898B8D" transform="translate(876,126)"/>
<path d="M0 0 C3.63 0 7.26 0 11 0 C11.84304688 1.48113281 12.68609375 2.96226562 13.5546875 4.48828125 C14.66140136 6.42971998 15.76817532 8.37112445 16.875 10.3125 C17.43058594 11.28896484 17.98617188 12.26542969 18.55859375 13.27148438 C19.09355469 14.20927734 19.62851562 15.14707031 20.1796875 16.11328125 C20.67194824 16.97735596 21.16420898 17.84143066 21.67138672 18.73168945 C22.72125453 20.52410435 23.84774821 22.27162232 25 24 C25.33 16.08 25.66 8.16 26 0 C28.64 0 31.28 0 34 0 C34 12.87 34 25.74 34 39 C30.37 39 26.74 39 23 39 C22.40832031 37.865625 21.81664062 36.73125 21.20703125 35.5625 C20.40901803 34.04158068 19.61083165 32.5207522 18.8125 31 C18.42513672 30.25621094 18.03777344 29.51242187 17.63867188 28.74609375 C17.24873047 28.00488281 16.85878906 27.26367188 16.45703125 26.5 C16.10616455 25.8296875 15.75529785 25.159375 15.39379883 24.46875 C13.38353184 20.90808792 11.16713759 17.46742014 9 14 C9 22.25 9 30.5 9 39 C6.03 39 3.06 39 0 39 C0 26.13 0 13.26 0 0 Z " fill="#4D748F" transform="translate(419,463)"/>
<path d="M0 0 C6.249375 -0.0928125 6.249375 -0.0928125 12.625 -0.1875 C13.92775879 -0.21481201 15.23051758 -0.24212402 16.57275391 -0.27026367 C27.31178703 -0.34757673 27.31178703 -0.34757673 32 3 C34.44340191 5.93208229 34.96659534 7.68822321 35.375 11.5 C34.75594301 17.27786527 32.01595241 20.05872439 28 24 C28.6496875 24.99902344 29.299375 25.99804688 29.96875 27.02734375 C30.81261881 28.33065225 31.65636236 29.63404185 32.5 30.9375 C32.92925781 31.59685547 33.35851562 32.25621094 33.80078125 32.93554688 C37 37.88671875 37 37.88671875 37 39 C33.08421478 39.84218175 29.87465873 40.13053703 26 39 C23.93469052 36.30995277 22.46702145 33.72403375 20.9375 30.72314453 C18.96913435 27.05207225 18.96913435 27.05207225 15.5078125 24.9140625 C12.75241029 24.59464587 12.75241029 24.59464587 9 25 C9 29.62 9 34.24 9 39 C6.03 39 3.06 39 0 39 C0 26.13 0 13.26 0 0 Z M9 7 C9 10.63 9 14.26 9 18 C16.23477757 18.41776811 16.23477757 18.41776811 23.125 16.75 C25.06369777 15.12351854 25.06369777 15.12351854 26.0625 13.0625 C26.19277389 10.83553706 26.19277389 10.83553706 24.41796875 8.88671875 C21.20947669 6.38316194 19.26746677 6.58930133 15.25 6.75 C14.07953125 6.78609375 12.9090625 6.8221875 11.703125 6.859375 C10.81109375 6.90578125 9.9190625 6.9521875 9 7 Z " fill="#4D7490" transform="translate(693,463)"/>
<path d="M0 0 C6.249375 -0.0928125 6.249375 -0.0928125 12.625 -0.1875 C13.92775879 -0.21481201 15.23051758 -0.24212402 16.57275391 -0.27026367 C23.51515986 -0.32024384 28.43520138 -0.08949213 33.875 4.625 C35.85814554 8.81164059 35.81260542 13.66544298 34.29296875 18.03125 C32.59756231 20.61277522 30.4706808 22.17949836 28 24 C28.6496875 24.99902344 29.299375 25.99804688 29.96875 27.02734375 C30.81261881 28.33065225 31.65636236 29.63404185 32.5 30.9375 C32.92925781 31.59685547 33.35851562 32.25621094 33.80078125 32.93554688 C37 37.88671875 37 37.88671875 37 39 C33.11213733 39.75929325 29.85004625 40.04250582 26 39 C22.73608091 35.29049469 19 30.1270674 19 25 C15.7 25 12.4 25 9 25 C9 29.62 9 34.24 9 39 C6.03 39 3.06 39 0 39 C0 26.13 0 13.26 0 0 Z M9 7 C9 10.63 9 14.26 9 18 C11.5678125 18.061875 11.5678125 18.061875 14.1875 18.125 C15.63189453 18.15980469 15.63189453 18.15980469 17.10546875 18.1953125 C20.18373524 17.98760221 22.28256296 17.45283934 25 16 C26.16448881 13.09648876 26.16448881 13.09648876 26 10 C25.0145166 8.17284845 25.0145166 8.17284845 23 7 C19.56919882 6.63601382 19.56919882 6.63601382 15.8125 6.8125 C13.90404297 6.85310547 13.90404297 6.85310547 11.95703125 6.89453125 C10.98121094 6.92933594 10.00539063 6.96414063 9 7 Z " fill="#4D7490" transform="translate(651,463)"/>
<path d="M0 0 C6.001875 -0.0928125 6.001875 -0.0928125 12.125 -0.1875 C13.37555176 -0.21481201 14.62610352 -0.24212402 15.91455078 -0.27026367 C26.40939193 -0.34888621 26.40939193 -0.34888621 31 3 C33.80295101 5.85639711 34.45107698 7.96862006 34.5 11.9375 C34.39438343 15.90985667 34.13919216 16.81685242 31.625 20.125 C29 22 29 22 27 22 C27.93347358 23.75215106 28.8719532 25.50163563 29.8125 27.25 C30.33457031 28.22453125 30.85664062 29.1990625 31.39453125 30.203125 C32.90755519 32.97792831 32.90755519 32.97792831 34.69921875 35.234375 C36 37 36 37 36 39 C32.42583455 39.79100383 29.5434665 40.01385302 26 39 C22.6295491 35.41418483 18 30.15240018 18 25 C15.03 25 12.06 25 9 25 C9 29.62 9 34.24 9 39 C6.03 39 3.06 39 0 39 C0 26.13 0 13.26 0 0 Z M9 7 C9 10.63 9 14.26 9 18 C16.86670653 18.58767944 16.86670653 18.58767944 24 16 C25.16448881 13.09648876 25.16448881 13.09648876 25 10 C23.98210121 8.18288829 23.98210121 8.18288829 22 7 C18.79861932 6.6363838 18.79861932 6.6363838 15.3125 6.8125 C14.13300781 6.83957031 12.95351563 6.86664063 11.73828125 6.89453125 C10.38283203 6.94673828 10.38283203 6.94673828 9 7 Z " fill="#4D7490" transform="translate(832,463)"/>
<path d="M0 0 C3.3 0 6.6 0 10 0 C12.45901033 2.79973594 13.7483825 4.6868558 15.3125 7.9375 C15.89741211 9.04061523 15.89741211 9.04061523 16.49414062 10.16601562 C17.23812757 11.57405703 17.96678707 12.9904106 18.6730957 14.41772461 C20.68372774 18.33059583 22.86354628 22.1543833 25 26 C25.33 17.42 25.66 8.84 26 0 C28.64 0 31.28 0 34 0 C34 12.87 34 25.74 34 39 C30.37 39 26.74 39 23 39 C20.33056036 35.54543105 18.81764689 32.87508888 17 29 C15.9708311 27.13755374 14.9089936 25.29714511 13.8371582 23.45898438 C12.20404387 20.65127763 10.60555264 17.82355809 9 15 C8.67 22.92 8.34 30.84 8 39 C5.36 39 2.72 39 0 39 C0 26.13 0 13.26 0 0 Z " fill="#4D7490" transform="translate(167,463)"/>
<path d="M0 0 C2.26653735 1.89395587 3.40026982 3.44043172 5 6 C4.67 6.99 4.34 7.98 4 9 C1.36 9.33 -1.28 9.66 -4 10 C-4.33 9.01 -4.66 8.02 -5 7 C-7.94826763 6.01724412 -9.92652504 5.86585275 -13 5.875 C-13.86625 5.87242187 -14.7325 5.86984375 -15.625 5.8671875 C-18.15011695 5.90405795 -18.15011695 5.90405795 -21 7 C-23.83871532 12.97624277 -23.48042741 19.06405472 -22.4375 25.4375 C-21.16439715 28.29534961 -21.16439715 28.29534961 -17.875 29.4375 C-12.33623718 30.24151396 -7.39173872 29.57259046 -2 28 C-2 26.35 -2 24.7 -2 23 C-5.3 23 -8.6 23 -12 23 C-12 20.69 -12 18.38 -12 16 C-6.06 16 -0.12 16 6 16 C6.0825 18.3925 6.165 20.785 6.25 23.25 C6.28641602 23.99668945 6.32283203 24.74337891 6.36035156 25.51269531 C6.41558142 28.82470505 6.23769967 30.67302851 4.2734375 33.375 C-2.12214913 37.94641587 -10.33258324 38.90352538 -18 38 C-24.22739451 36.6912656 -27.44626921 34.2260747 -31 29 C-34.02705694 22.72205444 -34.21900139 15.19072909 -32.27734375 8.515625 C-29.82354834 3.23052719 -26.58607695 0.17548952 -21.25 -2.25 C-13.91756418 -3.94210057 -6.75668691 -3.52182522 0 0 Z " fill="#4D7490" transform="translate(367,465)"/>
<path d="M0 0 C4.58949004 3.14645889 6.14840734 5.80530896 7.65234375 11.1328125 C8.46952912 18.79154985 8.42849098 25.81144117 3.65234375 32.1328125 C-0.98214693 36.89255969 -6.35304431 38.19127156 -12.84765625 38.4453125 C-18.56121539 38.2898415 -22.6691415 36.50614275 -27.09765625 32.8828125 C-31.88022314 27.03745296 -32.86662338 22.20220415 -32.6328125 14.78125 C-31.95329622 8.47012623 -29.29251138 4.17860306 -24.34765625 0.1328125 C-16.62860319 -4.34423828 -7.76801021 -4.54325342 0 0 Z M-19.34765625 7.1328125 C-22.34017634 10.32483393 -23.26711127 13.06559153 -23.59765625 17.4453125 C-23.27751665 22.16737156 -21.74788059 25.1024872 -19.09765625 28.9453125 C-16.23147406 30.89022184 -13.76962825 31.01681345 -10.34765625 31.1328125 C-6.51007649 29.87821912 -4.82138537 28.79603326 -2.47265625 25.5078125 C-0.62621607 19.96849195 -0.65890377 15.32061448 -2.41015625 9.7578125 C-5.03023858 6.20802353 -7.19598477 5.51670299 -11.34765625 4.1328125 C-14.08449368 4.1328125 -16.9569774 5.8505393 -19.34765625 7.1328125 Z " fill="#4D7490" transform="translate(817.34765625,464.8671875)"/>
<path d="M0 0 C10.56 0 21.12 0 32 0 C32 2.31 32 4.62 32 7 C24.41 7 16.82 7 9 7 C9 9.97 9 12.94 9 16 C15.93 16 22.86 16 30 16 C30 18.31 30 20.62 30 23 C23.07 23 16.14 23 9 23 C9 25.97 9 28.94 9 32 C16.92 32 24.84 32 33 32 C33 34.31 33 36.62 33 39 C22.11 39 11.22 39 0 39 C0 26.13 0 13.26 0 0 Z " fill="#4D748F" transform="translate(612,463)"/>
<path d="M0 0 C10.56 0 21.12 0 32 0 C32 2.31 32 4.62 32 7 C24.41 7 16.82 7 9 7 C9 9.97 9 12.94 9 16 C15.93 16 22.86 16 30 16 C30 18.31 30 20.62 30 23 C23.07 23 16.14 23 9 23 C9 25.97 9 28.94 9 32 C16.92 32 24.84 32 33 32 C33 34.31 33 36.62 33 39 C22.11 39 11.22 39 0 39 C0 26.13 0 13.26 0 0 Z " fill="#4D748F" transform="translate(244,463)"/>
<path d="M0 0 C10.23 0 20.46 0 31 0 C31 2.31 31 4.62 31 7 C23.74 7 16.48 7 9 7 C9 9.97 9 12.94 9 16 C15.6 16 22.2 16 29 16 C29 18.31 29 20.62 29 23 C22.4 23 15.8 23 9 23 C9 25.97 9 28.94 9 32 C16.59 32 24.18 32 32 32 C32 34.31 32 36.62 32 39 C21.44 39 10.88 39 0 39 C0 26.13 0 13.26 0 0 Z " fill="#4D748F" transform="translate(381,463)"/>
<path d="M0 0 C2.12550023 1.89278123 3.39272468 3.58908702 5 6 C5 6.99 5 7.98 5 9 C-0.17478389 10.84187223 -0.17478389 10.84187223 -3 11 C-5.6875 8.6875 -5.6875 8.6875 -8 6 C-11.52522436 4.51569501 -12.97335724 4.9918717 -16.6875 6.125 C-20.01665878 7.6851749 -20.01665878 7.6851749 -21.4375 10.125 C-22.50024141 15.55678945 -22.6566384 20.19424439 -20.75 25.4375 C-18.54518085 28.70682126 -18.54518085 28.70682126 -15 30 C-9.73531024 30.09702768 -9.73531024 30.09702768 -5.37109375 27.58984375 C-3.82317926 25.77750096 -3.82317926 25.77750096 -2 23 C0.64 23.99 3.28 24.98 6 26 C3.6180897 31.51600279 0.99285008 34.28979996 -4.1875 37.25 C-10.58072738 38.95486063 -17.14578711 38.65953158 -23.24609375 36.046875 C-27.84666532 33.30087682 -30.35649865 29.01014509 -32 24 C-32.69457013 16.8738909 -32.85899441 10.17439106 -29 4 C-21.39528071 -4.15103533 -9.65882016 -5.78244223 0 0 Z " fill="#4D7490" transform="translate(492,465)"/>
<path d="M0 0 C3.63 0 7.26 0 11 0 C12.99586982 5.3927159 14.989644 10.78619999 16.98144531 16.18041992 C17.65989982 18.01689804 18.33893534 19.85316162 19.01855469 21.68920898 C19.99305145 24.32219696 20.96548352 26.95593929 21.9375 29.58984375 C22.24373291 30.41588608 22.54996582 31.24192841 22.86547852 32.09300232 C25 37.88612829 25 37.88612829 25 39 C21.7 39 18.4 39 15 39 C13.515 34.545 13.515 34.545 12 30 C5.07 29.505 5.07 29.505 -2 29 C-2.309375 30.464375 -2.61875 31.92875 -2.9375 33.4375 C-3.875 37.875 -3.875 37.875 -5 39 C-8.00003445 39.14177857 -10.99757235 39.04228771 -14 39 C-11.70870967 30.84065639 -8.84482081 22.93378642 -5.875 15 C-5.41996094 13.77410156 -4.96492187 12.54820312 -4.49609375 11.28515625 C-1.15094021 2.30188041 -1.15094021 2.30188041 0 0 Z M5 8 C4.32779649 9.93558599 3.66241923 11.87354372 3 13.8125 C2.62875 14.89144531 2.2575 15.97039062 1.875 17.08203125 C0.85638488 19.97120802 0.85638488 19.97120802 1 23 C3.97 23 6.94 23 10 23 C9.32584613 17.7415998 7.75734451 12.97361654 6 8 C5.67 8 5.34 8 5 8 Z " fill="#4D7490" transform="translate(902,463)"/>
<path d="M0 0 C1.51400391 0.01740234 1.51400391 0.01740234 3.05859375 0.03515625 C4.07050781 0.04417969 5.08242188 0.05320312 6.125 0.0625 C7.29869141 0.07990234 7.29869141 0.07990234 8.49609375 0.09765625 C10.49196357 5.49037215 12.48573775 10.88385624 14.47753906 16.27807617 C15.15599357 18.11455429 15.83502909 19.95081787 16.51464844 21.78686523 C17.4891452 24.41985321 18.46157727 27.05359554 19.43359375 29.6875 C19.73982666 30.51354233 20.04605957 31.33958466 20.36157227 32.19065857 C22.49609375 37.98378454 22.49609375 37.98378454 22.49609375 39.09765625 C19.19609375 39.09765625 15.89609375 39.09765625 12.49609375 39.09765625 C11.01109375 34.14765625 11.01109375 34.14765625 9.49609375 29.09765625 C4.87609375 29.09765625 0.25609375 29.09765625 -4.50390625 29.09765625 C-5.49390625 32.39765625 -6.48390625 35.69765625 -7.50390625 39.09765625 C-10.47390625 39.09765625 -13.44390625 39.09765625 -16.50390625 39.09765625 C-15.77912667 34.68715933 -14.3499751 30.60615382 -12.81640625 26.42578125 C-12.55384033 25.70275818 -12.29127441 24.97973511 -12.02075195 24.23480225 C-11.46773174 22.71465405 -10.91292875 21.19515336 -10.35644531 19.67626953 C-9.50228143 17.34321824 -8.65505343 15.00773099 -7.80859375 12.671875 C-7.26994085 11.19386107 -6.73089229 9.71599128 -6.19140625 8.23828125 C-5.93721924 7.53729309 -5.68303223 6.83630493 -5.42114258 6.11407471 C-3.21940917 0.12556198 -3.21940917 0.12556198 0 0 Z M2.49609375 9.09765625 C1.84699221 10.67965256 1.20194681 12.26331349 0.55859375 13.84765625 C0.19894531 14.729375 -0.16070313 15.61109375 -0.53125 16.51953125 C-1.63508882 19.29506706 -1.63508882 19.29506706 -2.50390625 23.09765625 C0.79609375 23.09765625 4.09609375 23.09765625 7.49609375 23.09765625 C7.044666 21.32504994 6.58468852 19.55461945 6.12109375 17.78515625 C5.86585938 16.79902344 5.610625 15.81289063 5.34765625 14.796875 C4.57696201 11.91707465 4.57696201 11.91707465 2.49609375 9.09765625 Z " fill="#4D7490" transform="translate(534.50390625,462.90234375)"/>
<path d="M0 0 C11.55 0 23.1 0 35 0 C35 2.31 35 4.62 35 7 C30.71 7 26.42 7 22 7 C22 17.56 22 28.12 22 39 C19.03 39 16.06 39 13 39 C13 28.44 13 17.88 13 7 C8.71 7 4.42 7 0 7 C0 4.69 0 2.38 0 0 Z " fill="#4D748F" transform="translate(205,463)"/>
<path d="M0 0 C11.22 0 22.44 0 34 0 C34 2.31 34 4.62 34 7 C29.71 7 25.42 7 21 7 C21 17.56 21 28.12 21 39 C18.03 39 15.06 39 12 39 C12 28.44 12 17.88 12 7 C8.04 7 4.08 7 0 7 C0 4.69 0 2.38 0 0 Z " fill="#4D748F" transform="translate(749,463)"/>
<path d="M0 0 C11.22 0 22.44 0 34 0 C34 2.31 34 4.62 34 7 C29.71 7 25.42 7 21 7 C21 17.56 21 28.12 21 39 C18.03 39 15.06 39 12 39 C12 28.44 12 17.88 12 7 C8.04 7 4.08 7 0 7 C0 4.69 0 2.38 0 0 Z " fill="#4D748F" transform="translate(574,463)"/>
<path d="M0 0 C2.97 0 5.94 0 9 0 C9 10.56 9 21.12 9 32 C15.93 32 22.86 32 30 32 C30 34.31 30 36.62 30 39 C20.1 39 10.2 39 0 39 C0 26.13 0 13.26 0 0 Z " fill="#4D748F" transform="translate(932,463)"/>
<path d="M0 0 C2.97 0 5.94 0 9 0 C9 10.56 9 21.12 9 32 C15.93 32 22.86 32 30 32 C30 34.31 30 36.62 30 39 C20.1 39 10.2 39 0 39 C0 26.13 0 13.26 0 0 Z " fill="#4D748F" transform="translate(283,463)"/>
<path d="M0 0 C2.97 0 5.94 0 9 0 C9 12.87 9 25.74 9 39 C6.03 39 3.06 39 0 39 C0 26.13 0 13.26 0 0 Z " fill="#4D7490" transform="translate(874,463)"/>
<path d="M0 0 C2.97 0 5.94 0 9 0 C9 12.87 9 25.74 9 39 C6.03 39 3.06 39 0 39 C0 26.13 0 13.26 0 0 Z " fill="#4D748F" transform="translate(735,463)"/>
<path d="M0 0 C2.97 0 5.94 0 9 0 C9 12.87 9 25.74 9 39 C6.03 39 3.06 39 0 39 C0 26.13 0 13.26 0 0 Z " fill="#4D7490" transform="translate(503,463)"/>
<path d="M0 0 C2.97 0 5.94 0 9 0 C9 12.87 9 25.74 9 39 C6.03 39 3.06 39 0 39 C0 26.13 0 13.26 0 0 Z " fill="#4D7490" transform="translate(319,463)"/>
<path d="M0 0 C2.97 0 5.94 0 9 0 C9 12.87 9 25.74 9 39 C6.03 39 3.06 39 0 39 C0 26.13 0 13.26 0 0 Z " fill="#4D7490" transform="translate(150,463)"/>
<path d="M0 0 C2.86254883 1.67407227 2.86254883 1.67407227 5.95703125 3.81640625 C6.50485764 4.19232407 7.05268402 4.56824188 7.61711121 4.95555115 C9.35432971 6.15022331 11.0834071 7.35610575 12.8125 8.5625 C13.99362018 9.37770769 15.17525579 10.19216914 16.35742188 11.00585938 C19.24429804 12.99530287 22.12398783 14.99487284 25 17 C24.01 17.495 24.01 17.495 23 18 C21.30761719 17.33154297 21.30761719 17.33154297 19.296875 16.2421875 C18.56339844 15.86449219 17.82992187 15.48679687 17.07421875 15.09765625 C15.53370773 14.28726978 13.99967235 13.46444336 12.47265625 12.62890625 C10.30881755 11.5299934 8.3545831 10.59485393 6 10 C2.76398551 11.22188314 2.76398551 11.22188314 0 13 C-4.0200023 12.81089519 -6.5628568 11.21710045 -9.8125 8.9375 C-10.60269531 8.38964844 -11.39289062 7.84179688 -12.20703125 7.27734375 C-12.79871094 6.85582031 -13.39039063 6.43429688 -14 6 C-9.67397454 1.35352821 -6.46618237 -1.93770106 0 0 Z " fill="#898A8C" transform="translate(562,67)"/>
<path d="M0 0 C2.67578125 1.62890625 2.67578125 1.62890625 5.3125 3.5625 C6.19550781 4.20316406 7.07851563 4.84382813 7.98828125 5.50390625 C8.65214844 5.99761719 9.31601562 6.49132812 10 7 C8.54978611 9.90042778 6.67895099 10.12473896 3.6875 11.25 C2.72199219 11.62640625 1.75648438 12.0028125 0.76171875 12.390625 C-2 13 -2 13 -4.08984375 12.296875 C-4.72019531 11.86890625 -5.35054687 11.4409375 -6 11 C-6.70640625 10.525625 -7.4128125 10.05125 -8.140625 9.5625 C-8.83671875 9.046875 -9.5328125 8.53125 -10.25 8 C-10.95640625 7.484375 -11.6628125 6.96875 -12.390625 6.4375 C-13.18726563 5.7259375 -13.18726563 5.7259375 -14 5 C-14 4.34 -14 3.68 -14 3 C-12.61256594 2.29570341 -11.21455365 1.61222402 -9.8125 0.9375 C-9.03519531 0.55464844 -8.25789062 0.17179687 -7.45703125 -0.22265625 C-4.43539699 -1.17862639 -2.99797926 -0.99932642 0 0 Z " fill="#898A8C" transform="translate(775,80)"/>
<path d="M0 0 C6.65342135 0.29922794 10.49489811 2.95889441 15.75 6.875 C16.50410156 7.41769531 17.25820313 7.96039063 18.03515625 8.51953125 C21.24432886 10.850884 24.25013807 13.1301634 27 16 C22.51232482 16.41981966 20.35788146 15.29538486 16.69921875 12.75390625 C15.72275391 12.08166016 14.74628906 11.40941406 13.74023438 10.71679688 C12.73283203 10.00587891 11.72542969 9.29496094 10.6875 8.5625 C9.66076172 7.85544922 8.63402344 7.14839844 7.57617188 6.41992188 C2.15794332 2.65776318 2.15794332 2.65776318 0 1 C0 0.67 0 0.34 0 0 Z " fill="#878686" transform="translate(843,120)"/>
<path d="M0 0 C5.7097955 0.41778991 8.60957142 2.57546571 13 6 C10 7 10 7 7.51953125 6.00390625 C6.62621094 5.52824219 5.73289062 5.05257812 4.8125 4.5625 C3.91144531 4.08941406 3.01039063 3.61632812 2.08203125 3.12890625 C1.39496094 2.75636719 0.70789063 2.38382812 0 2 C0 1.34 0 0.68 0 0 Z " fill="#858485" transform="translate(607,94)"/>
</svg>
