<?xml version="1.0" encoding="UTF-8"?>
<svg version="1.1" xmlns="http://www.w3.org/2000/svg" viewBox="0 0 1110 614">
<path d="M0 0 C3.56248523 1.03177877 6.46027608 2.80840349 9.52734375 4.85742188 C10.39174072 5.43141724 11.2561377 6.0054126 12.14672852 6.59680176 C13.06768311 7.21454468 13.9886377 7.8322876 14.9375 8.46875 C16.37403931 9.42291809 16.37403931 9.42291809 17.83959961 10.3963623 C21.93045852 13.11376859 26.01419072 15.84180997 30.09863281 18.56884766 C33.0841599 20.55999164 36.073227 22.545736 39.0625 24.53125 C40.44393188 25.45786438 40.44393188 25.45786438 41.85327148 26.40319824 C42.71766846 26.9771936 43.58206543 27.55118896 44.47265625 28.14257812 C45.22812744 28.64728638 45.98359863 29.15199463 46.76196289 29.67199707 C49.13502675 31.08012196 51.36762939 32.16643867 54 33 C56.3728407 31.86319857 56.3728407 31.86319857 58.5 30 C60.71875 28.1875 60.71875 28.1875 63 27 C66.82130164 28.21887048 70.19313402 30.14639285 73.6640625 32.1328125 C74.77386475 32.76711182 75.88366699 33.40141113 77.02709961 34.05493164 C77.61345184 34.39235382 78.19980408 34.729776 78.80392456 35.0774231 C80.64776764 36.13809713 82.49471562 37.19320742 84.34204102 38.24780273 C90.83824392 41.96682376 97.28477713 45.75520376 103.67578125 49.65234375 C104.90731936 50.39904118 106.13892631 51.14562509 107.37060547 51.89208984 C109.71731332 53.31504866 112.05097278 54.75683398 114.37939453 56.20947266 C115.43884277 56.85319824 116.49829102 57.49692383 117.58984375 58.16015625 C118.51659912 58.73386963 119.44335449 59.30758301 120.39819336 59.89868164 C123.56659891 61.23983557 124.77446115 61.11538198 128 60 C129.98213048 59.0220356 131.92655389 57.96598131 133.83984375 56.859375 C134.97389648 56.20759277 136.10794922 55.55581055 137.27636719 54.88427734 C138.49687575 54.17307626 139.71725018 53.46164494 140.9375 52.75 C142.20316538 52.01854935 143.46911928 51.28759773 144.73535156 50.55712891 C154.04288417 45.17805128 163.3038392 39.71950417 172.546875 34.23046875 C180.50953401 29.50500634 188.50801009 24.8412603 196.51953125 20.19921875 C199.85618959 18.26311887 203.16739623 16.29709619 206.44921875 14.26953125 C207.09375 13.87870361 207.73828125 13.48787598 208.40234375 13.08520508 C210.03994584 12.08969888 211.66702025 11.07692825 213.29296875 10.0625 C216 9 216 9 218.35546875 9.421875 C222.20534137 11.71928791 225.63327248 14.44570397 229.125 17.25 C237.88783269 24.18203628 246.81591377 30.86166266 255.86499023 37.41503906 C257.32781445 38.50099158 258.76679082 39.6196047 260.18383789 40.76464844 C260.87985107 41.3218457 261.57586426 41.87904297 262.29296875 42.453125 C262.9068042 42.96004883 263.52063965 43.46697266 264.15307617 43.98925781 C265.9702593 45.20018426 265.9702593 45.20018426 268.18505859 44.84448242 C270.61159769 44.12409438 272.73485501 43.13429635 275 42 C277.24545413 40.88661787 279.49570805 39.78287749 281.75 38.6875 C282.81734375 38.13449219 283.8846875 37.58148438 284.984375 37.01171875 C288 36 288 36 290.37890625 36.46875 C294.16503985 38.68061941 297.66529256 41.20503323 301.1875 43.8125 C302.80588677 44.99623432 304.42437929 46.17982409 306.04296875 47.36328125 C307.27926025 48.27134521 307.27926025 48.27134521 308.54052734 49.19775391 C312.3454214 51.98589446 316.17302556 54.74229012 320 57.5 C321.49884431 58.58182846 322.99754178 59.66386038 324.49609375 60.74609375 C325.23843262 61.28218262 325.98077148 61.81827148 326.74560547 62.37060547 C329.00994999 64.00719149 331.27273581 65.64591165 333.53515625 67.28515625 C342.43188372 73.72924159 342.43188372 73.72924159 351.3828125 80.09765625 C352.09566406 80.60022949 352.80851563 81.10280273 353.54296875 81.62060547 C354.96899287 82.62096529 356.39868097 83.61612293 357.83203125 84.60595703 C361.20545036 86.94973505 364.44798641 89.32966765 367.5546875 92.01953125 C374.45984511 97.87917631 380.47674525 100.80824242 389.41015625 102.42578125 C390.43779083 102.62584778 391.46542542 102.82591431 392.52420044 103.03204346 C396.01299201 103.70579298 399.50608462 104.35337852 403 105 C404.96156644 105.37137043 406.92312801 105.74276828 408.8844347 106.11550808 C418.78154465 107.99580607 428.68727295 109.82919807 438.59362793 111.66003418 C442.93130162 112.46184731 447.26852115 113.26603298 451.60512161 114.07363129 C453.61337657 114.44661333 455.62226301 114.81604896 457.63119507 115.18536377 C458.83490753 115.4093988 460.03862 115.63343384 461.27880859 115.86425781 C462.86899307 116.15807343 462.86899307 116.15807343 464.49130249 116.45782471 C467 117 467 117 469 118 C469 121.96 469 125.92 469 130 C467.58895996 129.73783691 466.17791992 129.47567383 464.72412109 129.20556641 C459.42794348 128.22236103 454.13106693 127.24296562 448.83398438 126.26464844 C446.55287113 125.84281637 444.27194202 125.4199872 441.99121094 124.99609375 C430.01787689 122.7714252 418.07728292 120.58590584 406 119 C413.92 124.94 413.92 124.94 422 131 C420.20893495 134.58213009 418.35198072 137.76602651 416 141 C415.34 141 414.68 141 414 141 C414 141.33 414 141.66 414 142 C183 142 -48 142 -286 142 C-283.02273574 139.02273574 -281.23747681 137.35076582 -277.78125 135.36328125 C-276.94674316 134.87778809 -276.11223633 134.39229492 -275.25244141 133.89208984 C-274.34413574 133.3708252 -273.43583008 132.84956055 -272.5 132.3125 C-270.49643688 131.14617703 -268.49387945 129.97812519 -266.4921875 128.80859375 C-265.43225586 128.18968262 -264.37232422 127.57077148 -263.28027344 126.93310547 C-258.27552084 123.98374323 -253.31690338 120.95988005 -248.35864258 117.93319702 C-236.94911524 110.96894268 -225.48035715 104.11042088 -213.97683716 97.30270386 C-203.7119263 91.22615335 -193.49490697 85.0757871 -183.30847168 78.86868286 C-173.92596607 73.15222569 -164.49795592 67.52238294 -155 62 C-157.79887294 59.69094258 -157.79887294 59.69094258 -160.86401367 60.20825195 C-164.02689574 61.00679041 -166.35487257 62.0475709 -169.17578125 63.66796875 C-170.15546875 64.22419922 -171.13515625 64.78042969 -172.14453125 65.35351562 C-173.18996094 65.95873047 -174.23539063 66.56394531 -175.3125 67.1875 C-177.56887501 68.47289396 -179.82538929 69.75804349 -182.08203125 71.04296875 C-183.24440749 71.70863987 -184.40667965 72.37449275 -185.56884766 73.04052734 C-190.85969359 76.06203933 -196.18022454 79.02982363 -201.5 82 C-203.58088474 83.16508676 -205.66161341 84.33045232 -207.7421875 85.49609375 C-211.93419757 87.84369801 -216.12697809 90.18991843 -220.3203125 92.53515625 C-231.3359862 98.69738956 -242.34050498 104.8783559 -253.32324219 111.09912109 C-258.34025078 113.9387583 -263.36399659 116.76558658 -268.3984375 119.57421875 C-269.47005127 120.17226318 -270.54166504 120.77030762 -271.64575195 121.38647461 C-273.77638127 122.57477524 -275.9077146 123.76181455 -278.03979492 124.94750977 C-282.80918205 127.60981762 -287.54753165 130.30255305 -292.21484375 133.140625 C-292.99939941 133.61604736 -293.78395508 134.09146973 -294.59228516 134.58129883 C-296.02730212 135.45786791 -297.4559109 136.34505445 -298.87646484 137.24487305 C-303.50009664 140.07188341 -303.50009664 140.07188341 -306.12060547 139.69506836 C-309.67690347 138.37982019 -310.46078259 135.30646702 -312 132 C-310.66239025 127.98717076 -309.05396924 127.64684601 -305.3671875 125.6640625 C-304.78762299 125.34862488 -304.20805847 125.03318726 -303.6109314 124.70819092 C-301.70338535 123.67203602 -299.78920001 122.64880141 -297.875 121.625 C-295.87273333 120.54030043 -293.87234604 119.45218565 -291.87194824 118.36404419 C-290.52074287 117.62943699 -289.16893154 116.89594334 -287.81652832 116.1635437 C-281.92155199 112.96963972 -276.07778586 109.68990157 -270.25 106.375 C-268.38818475 105.31872145 -266.52620499 104.2627328 -264.6640625 103.20703125 C-263.74012695 102.68318848 -262.81619141 102.1593457 -261.86425781 101.61962891 C-256.7930309 98.75204287 -251.70905892 95.90725525 -246.625 93.0625 C-245.58714355 92.48169678 -244.54928711 91.90089355 -243.47998047 91.30249023 C-239.26497422 88.94424158 -235.04946845 86.58688658 -230.83398438 84.22949219 C-209.47883143 72.28564352 -188.14550041 60.31225753 -167 48 C-170.59797321 44.02329276 -174.83206405 41.22391095 -179.25 38.25 C-179.99507812 37.74339844 -180.74015625 37.23679688 -181.5078125 36.71484375 C-183.33594311 35.47265244 -185.166687 34.23452418 -187 33 C-193.09798867 36.98984227 -199.02844776 41.15131964 -204.875 45.5 C-206.54815876 46.73830601 -208.22133638 47.97658653 -209.89453125 49.21484375 C-210.74096191 49.84245605 -211.58739258 50.47006836 -212.45947266 51.11669922 C-216.48964939 54.1042817 -220.52510505 57.08468155 -224.5625 60.0625 C-225.34802246 60.64193359 -226.13354492 61.22136719 -226.94287109 61.81835938 C-233.0113896 66.28766533 -239.11696419 70.7038406 -245.23291016 75.10791016 C-253.06877486 80.75718083 -260.83992854 86.49312892 -268.60888672 92.23388672 C-273.35704579 95.7409505 -278.11085907 99.24034663 -282.86376953 102.7409668 C-286.88672419 105.70444103 -290.90788819 108.67029093 -294.92578125 111.640625 C-304.22518547 118.51148708 -313.56324907 125.31884192 -323 132 C-325.58377644 129.45893061 -327.89144281 126.95198007 -330 124 C-328.65008634 120.84921991 -327.33725021 119.21336882 -324.53515625 117.2578125 C-323.8275415 116.75644775 -323.11992676 116.25508301 -322.39086914 115.73852539 C-321.62250732 115.20606201 -320.85414551 114.67359863 -320.0625 114.125 C-318.41598355 112.96060078 -316.77017241 111.79520369 -315.125 110.62890625 C-314.27550781 110.02965332 -313.42601562 109.43040039 -312.55078125 108.81298828 C-308.51754803 105.94633534 -304.53979232 103.0060358 -300.5625 100.0625 C-298.97008785 98.88667031 -297.37763975 97.7108893 -295.78515625 96.53515625 C-294.99512207 95.95137207 -294.20508789 95.36758789 -293.39111328 94.76611328 C-288.64000853 91.25687377 -283.88318709 87.75538724 -279.12744141 84.25244141 C-275.15468511 81.32579251 -271.18332154 78.39729226 -267.21484375 75.46484375 C-258.76659743 69.22528928 -250.28993416 63.0293578 -241.76708984 56.89208984 C-233.94737957 51.25446572 -226.19229605 45.53032251 -218.43945312 39.80126953 C-215.91444686 37.93682835 -213.38724594 36.0753988 -210.859375 34.21484375 C-209.59178345 33.28176392 -209.59178345 33.28176392 -208.29858398 32.32983398 C-206.69666914 31.15077558 -205.09462809 29.97188861 -203.49243164 28.79321289 C-202.75887451 28.25301514 -202.02531738 27.71281738 -201.26953125 27.15625 C-200.56006348 26.63804688 -199.8505957 26.11984375 -199.11962891 25.5859375 C-197.66207454 24.4953739 -196.22764869 23.37342418 -194.81396484 22.2265625 C-194.11609863 21.66710937 -193.41823242 21.10765625 -192.69921875 20.53125 C-192.08264404 20.02142578 -191.46606934 19.51160156 -190.83081055 18.98632812 C-189 18 -189 18 -187.05712891 18.15209961 C-184.57153311 19.17660402 -182.5833821 20.48128865 -180.38671875 22.03515625 C-179.47994385 22.67171143 -178.57316895 23.3082666 -177.63891602 23.96411133 C-176.66494873 24.65657959 -175.69098145 25.34904785 -174.6875 26.0625 C-172.60687544 27.52619038 -170.5261432 28.98972769 -168.4453125 30.453125 C-167.37829102 31.20658203 -166.31126953 31.96003906 -165.21191406 32.73632812 C-159.20547305 36.96950851 -153.17183832 41.16393843 -147.12646484 45.34130859 C-143.03583939 48.17102441 -138.9604438 51.00301398 -134.984375 53.9921875 C-126.60490158 60.20316747 -117.6665826 64.83129457 -108.25 69.25 C-107.62364655 69.54715912 -106.99729309 69.84431824 -106.35195923 70.15048218 C-104.5591608 70.99514426 -102.75628565 71.8183161 -100.953125 72.640625 C-99.90286133 73.12047852 -98.85259766 73.60033203 -97.77050781 74.09472656 C-94.84051377 75.0521127 -93.77690831 75.22571032 -91 74 C-89.18702678 72.81787292 -89.18702678 72.81787292 -87.453125 71.296875 C-86.78104004 70.73508545 -86.10895508 70.1732959 -85.41650391 69.59448242 C-84.70155762 68.98580322 -83.98661133 68.37712402 -83.25 67.75 C-81.72182489 66.4694901 -80.19316746 65.18955563 -78.6640625 63.91015625 C-77.88836914 63.25805176 -77.11267578 62.60594727 -76.31347656 61.93408203 C-72.78103326 58.98093557 -69.20451926 56.08325203 -65.625 53.1875 C-64.30062065 52.11347925 -62.97639747 51.03926591 -61.65234375 49.96484375 C-61.03085449 49.46065918 -60.40936523 48.95647461 -59.76904297 48.43701172 C-55.50212405 44.97094979 -51.2520694 41.48424503 -47 38 C-45.16678352 36.49985719 -43.33344854 34.99985918 -41.5 33.5 C-40.5925 32.7575 -39.685 32.015 -38.75 31.25 C-19.5 15.5 -19.5 15.5 -16.78125 13.27734375 C-14.84145315 11.68899886 -12.90414382 10.09761327 -10.96875 8.50390625 C-9.49921875 7.29541016 -9.49921875 7.29541016 -8 6.0625 C-7.113125 5.33160156 -6.22625 4.60070312 -5.3125 3.84765625 C-3 2 -3 2 0 0 Z M1 14 C0.22398437 14.66644531 -0.55203125 15.33289063 -1.3515625 16.01953125 C-7.12130906 20.95043639 -12.93918467 25.78647247 -18.9375 30.4375 C-24.44662733 34.71349305 -29.76498426 39.17130978 -35.03759766 43.73461914 C-39.01201379 47.169706 -43.05805603 50.48823653 -47.1796875 53.74609375 C-51.71490944 57.37050242 -56.18295341 61.07625452 -60.65991211 64.7722168 C-65.72007337 68.94920741 -70.79874894 73.10177352 -75.8984375 77.23046875 C-77.70027861 78.74763236 -79.37026075 80.30191685 -81 82 C-76.51348753 84.29965094 -72.00519496 86.54811277 -67.47802734 88.76660156 C-64.90130636 90.04912318 -62.35281145 91.38006301 -59.80078125 92.7109375 C-58.05567126 93.58010299 -56.30959187 94.44732514 -54.5625 95.3125 C-53.74749023 95.75198975 -52.93248047 96.19147949 -52.09277344 96.64428711 C-49.65123588 97.82012723 -47.67517145 98.56575157 -45 99 C-42.82302877 98.2880468 -42.82302877 98.2880468 -40.77270508 96.95141602 C-39.98905075 96.48126572 -39.20539642 96.01111542 -38.397995 95.52671814 C-34.53759841 93.06894091 -30.72282609 90.5600879 -26.9453125 87.9765625 C-26.09736618 87.40152481 -25.24941986 86.82648712 -24.3757782 86.23402405 C-22.56188462 85.00374383 -20.74903863 83.77191788 -18.93716431 82.53866577 C-14.15807262 79.28651434 -9.3704548 76.04698391 -4.58203125 72.80859375 C-3.61514877 72.1545607 -2.6482663 71.50052765 -1.65208435 70.82667542 C7.90962919 64.36841667 17.53616014 58.01080922 27.1875 51.6875 C27.94923523 51.18833069 28.71097046 50.68916138 29.49578857 50.17486572 C33.6614205 47.4461674 37.82946987 44.72120552 42 42 C39.02862702 38.9124226 36.17499757 36.24854945 32.55859375 33.94921875 C31.73294922 33.41917236 30.90730469 32.88912598 30.05664062 32.34301758 C29.19232422 31.79669678 28.32800781 31.25037598 27.4375 30.6875 C25.64414385 29.53966754 23.85117394 28.3912314 22.05859375 27.2421875 C20.75897705 26.41219238 20.75897705 26.41219238 19.43310547 25.56542969 C15.34897194 22.93774916 11.33061197 20.21569155 7.3125 17.48828125 C5.25539294 16.16436607 3.21171936 15.03930331 1 14 Z M210.3984375 25.5703125 C209.44582031 26.12976563 208.49320313 26.68921875 207.51171875 27.265625 C206.47660156 27.87921875 205.44148437 28.4928125 204.375 29.125 C202.17454611 30.41938464 199.9740234 31.7136523 197.7734375 33.0078125 C196.08105957 34.00603027 196.08105957 34.00603027 194.35449219 35.02441406 C189.24604425 38.03297016 184.1227873 41.01595094 179 44 C177.02339104 45.15356623 175.04682885 46.30721259 173.0703125 47.4609375 C168.83890102 49.92960623 164.60399182 52.39216134 160.3671875 54.8515625 C159.28050781 55.48320313 158.19382812 56.11484375 157.07421875 56.765625 C154.99699247 57.97290181 152.91891564 59.17871681 150.83984375 60.3828125 C146.12555919 63.12472835 141.48896869 65.9015536 137 69 C140.49901353 71.92254462 144.05261205 74.32502985 148 76.6015625 C149.134375 77.25640625 150.26875 77.91125 151.4375 78.5859375 C152.02273438 78.92077148 152.60796875 79.25560547 153.2109375 79.60058594 C154.99810574 80.62391535 156.78050284 81.65519768 158.5625 82.6875 C165.50446337 86.97085281 165.50446337 86.97085281 173 90 C175.61650504 89.37891853 175.61650504 89.37891853 178.2421875 87.984375 C179.81299072 87.23341553 179.81299072 87.23341553 181.41552734 86.46728516 C183.12796631 85.617229 183.12796631 85.617229 184.875 84.75 C186.08838381 84.16383721 187.30276917 83.57974388 188.51806641 82.99755859 C190.49395576 82.05070145 192.4690442 81.10242159 194.44125366 80.1479187 C199.94154845 77.48860984 205.47831794 74.91454985 211.03125 72.3671875 C211.8873587 71.97430542 212.74346741 71.58142334 213.6255188 71.17663574 C216.20838737 69.99211927 218.79164309 68.808451 221.375 67.625 C232.34749619 62.59840944 243.24743508 57.48422242 254 52 C250.92138916 48.83520986 247.82414197 45.95734704 244.3046875 43.29296875 C243.42852783 42.62716797 242.55236816 41.96136719 241.6496582 41.27539062 C240.734021 40.58638672 239.81838379 39.89738281 238.875 39.1875 C237.93809326 38.47916016 237.00118652 37.77082031 236.03588867 37.04101562 C233.36097039 35.02234953 230.68135864 33.01009981 228 31 C227.33339355 30.49807129 226.66678711 29.99614258 225.97998047 29.47900391 C218.64738608 23.09628299 218.64738608 23.09628299 210.3984375 25.5703125 Z M67 43 C71.37516029 47.61192775 76.44309309 50.80213525 81.75 54.25 C82.77319336 54.91515625 83.79638672 55.5803125 84.85058594 56.265625 C90.85118911 60.11443029 96.8857253 63.78325784 103.25 67 C103.89807617 67.33161133 104.54615234 67.66322266 105.21386719 68.00488281 C108.96068742 69.86620495 108.96068742 69.86620495 113 69 C112.44876465 68.67427002 111.8975293 68.34854004 111.32958984 68.01293945 C109.6503485 67.02066048 107.97115402 66.02830219 106.29199219 65.03588867 C104.33204193 63.87793011 102.3717501 62.72054951 100.41113281 61.5637207 C95.16963041 58.46992935 89.93435553 55.36642908 84.7109375 52.2421875 C83.71143066 51.64623779 82.71192383 51.05028809 81.68212891 50.4362793 C79.74742398 49.28238326 77.81475657 48.12506318 75.88427734 46.96411133 C75.00980957 46.44357178 74.1353418 45.92303223 73.234375 45.38671875 C72.46319336 44.92483154 71.69201172 44.46294434 70.89746094 43.98706055 C69.06075909 42.84616903 69.06075909 42.84616903 67 43 Z M47.296875 51.2019043 C46.57671707 51.68994537 45.85655914 52.17798645 45.11457825 52.68081665 C43.94411201 53.49430069 43.94411201 53.49430069 42.75 54.32421875 C41.91985886 54.88974457 41.08971771 55.45527039 40.23442078 56.03793335 C38.43031546 57.26811062 36.62900773 58.50239828 34.83016968 59.74026489 C30.01022896 63.05651757 25.16989438 66.34278712 20.33203125 69.6328125 C19.32823929 70.31660477 18.32444733 71.00039703 17.29023743 71.70491028 C6.16512104 79.27243905 -5.0673617 86.67499406 -16.3125 94.0625 C-18.21029648 95.31012472 -20.10808319 96.55776432 -22.00585938 97.80541992 C-24.57339021 99.49310725 -27.14116224 101.18041768 -29.71003723 102.86605835 C-30.45323715 103.35377716 -31.19643707 103.84149597 -31.9621582 104.34399414 C-32.6545459 104.79667664 -33.34693359 105.24935913 -34.06030273 105.71575928 C-35.31161193 106.54422991 -36.55444705 107.38571465 -37.78637695 108.24273682 C-41.76147237 111.00233089 -41.76147237 111.00233089 -44.3984375 110.9765625 C-48.62631876 109.38951998 -52.62198997 107.38810546 -56.6484375 105.3515625 C-60.66519225 103.23466472 -60.66519225 103.23466472 -65 104 C-61.80849248 105.74122921 -58.5947946 107.43673496 -55.375 109.125 C-54.47136719 109.61871094 -53.56773437 110.11242187 -52.63671875 110.62109375 C-51.75371094 111.07871094 -50.87070312 111.53632813 -49.9609375 112.0078125 C-49.15446777 112.43723145 -48.34799805 112.86665039 -47.51708984 113.30908203 C-41.91976493 114.84549614 -36.58842106 110.88783032 -31.75 108.2890625 C-31.0636145 107.92499298 -30.377229 107.56092346 -29.67004395 107.18582153 C-27.44420075 106.0035029 -25.22203921 104.81445013 -23 103.625 C-21.45261856 102.80083521 -19.90509144 101.9769439 -18.35742188 101.15332031 C-8.32168071 95.80587783 1.67891831 90.39570775 11.6484375 84.92578125 C17.78799887 81.56045191 23.9572738 78.25083386 30.125 74.9375 C33.37053595 73.19036677 36.61544315 71.44207548 39.85986328 69.69287109 C41.93325993 68.57508752 44.0071439 67.45820733 46.08154297 66.34228516 C48.91175709 64.81739531 51.73773384 63.2849527 54.5625 61.75 C55.8302124 61.06925415 55.8302124 61.06925415 57.12353516 60.37475586 C57.88843262 59.95718018 58.65333008 59.53960449 59.44140625 59.109375 C60.10857666 58.74811523 60.77574707 58.38685547 61.46313477 58.01464844 C63.17374676 57.06919703 63.17374676 57.06919703 64 55 C62.59138651 53.98868775 61.17274547 52.99133233 59.75 52 C58.56664062 51.1646875 58.56664062 51.1646875 57.359375 50.3125 C53.39418762 48.1067004 50.81140784 48.78631705 47.296875 51.2019043 Z M281.8125 52 C281.09707031 52.37125 280.38164063 52.7425 279.64453125 53.125 C278.83048828 53.558125 278.83048828 53.558125 278 54 C281.38341221 57.58243646 284.64853282 60.64295527 289 63 C291.58439837 62.81540012 293.46677882 62.20876739 295.86010742 61.27172852 C298.94934621 60.87944982 300.1156111 62.04019697 302.61328125 63.83984375 C303.52094238 64.48348877 304.42860352 65.12713379 305.36376953 65.7902832 C306.82339111 66.85315552 306.82339111 66.85315552 308.3125 67.9375 C310.37868501 69.40916483 312.44509819 70.88050936 314.51171875 72.3515625 C315.57696777 73.11629883 316.6422168 73.88103516 317.73974609 74.66894531 C322.99694864 78.4374575 328.31373414 82.12080913 333.625 85.8125 C334.58962158 86.48724365 335.55424316 87.1619873 336.5480957 87.85717773 C337.45261475 88.48825439 338.35713379 89.11933105 339.2890625 89.76953125 C340.47556396 90.59868042 340.47556396 90.59868042 341.68603516 91.44458008 C342.44964355 91.95786865 343.21325195 92.47115723 344 93 C345.29043213 93.87338013 345.29043213 93.87338013 346.60693359 94.7644043 C347.39664551 95.17215088 348.18635742 95.57989746 349 96 C349.99 95.67 350.98 95.34 352 95 C342.51291911 88.11797134 333.0019764 81.27438813 323.4140625 74.53344727 C318.10069793 70.79178875 312.82622778 66.99859874 307.5625 63.1875 C306.06257165 62.10406747 304.56257432 61.02073041 303.0625 59.9375 C300.61995878 58.17344245 298.18240203 56.40299945 295.75 54.625 C294.863125 53.985625 293.97625 53.34625 293.0625 52.6875 C292.33160156 52.15511719 291.60070312 51.62273437 290.84765625 51.07421875 C287.37283938 49.05397638 285.08897745 50.28119216 281.8125 52 Z M257.52734375 62.97265625 C256.86519363 63.28705154 256.20304352 63.60144684 255.52082825 63.92536926 C254.08139933 64.60894209 252.64272478 65.29410513 251.20471191 65.98065186 C247.34280212 67.82344384 243.47436172 69.65239288 239.60546875 71.48046875 C238.80863678 71.85709656 238.01180481 72.23372437 237.19082642 72.62176514 C229.07812608 76.4484739 220.92109584 80.1749491 212.75 83.875 C211.72579956 84.33897186 211.72579956 84.33897186 210.6809082 84.81231689 C207.3655903 86.31372516 204.04952557 87.81347207 200.73291016 89.31201172 C195.13006878 91.84421674 189.53401602 94.39135401 183.9375 96.9375 C182.17581286 97.73835079 180.414098 98.53914061 178.65234375 99.33984375 C177.94070068 99.66331787 177.22905762 99.98679199 176.49584961 100.32006836 C176.00221924 100.5444458 175.50858887 100.76882324 175 101 C175 101.66 175 102.32 175 103 C177.39239243 104.56425659 178.68641139 105.02768889 181.56591797 104.7734375 C186.00065109 103.77462942 190.09142851 102.21277318 194.3203125 100.5625 C195.23686111 100.21005219 196.15340973 99.85760437 197.09773254 99.49447632 C200.10892933 98.33503428 203.11694897 97.1675763 206.125 96 C208.21277861 95.1943229 210.30075317 94.38915338 212.38891602 93.58447266 C217.8290499 91.48659694 223.26656257 89.38200954 228.70355225 87.27600098 C234.09890023 85.18755007 239.49678382 83.10567716 244.89453125 81.0234375 C255.26539357 77.02174958 265.63357135 73.01315816 276 69 C276 68.34 276 67.68 276 67 C273.82541722 65.178958 273.82541722 65.178958 271.125 63.375 C270.22007812 62.74335937 269.31515625 62.11171875 268.3828125 61.4609375 C264.18116095 58.88484294 261.59876751 61.01432213 257.52734375 62.97265625 Z M373 112 C376.59797321 115.97670724 380.83206405 118.77608905 385.25 121.75 C385.99507812 122.25660156 386.74015625 122.76320313 387.5078125 123.28515625 C389.33594311 124.52734756 391.166687 125.76547582 393 127 C393.66 126.67 394.32 126.34 395 126 C392.39682213 124.04034952 389.79228758 122.08251018 387.1875 120.125 C386.44951172 119.56941406 385.71152344 119.01382813 384.95117188 118.44140625 C384.23896484 117.90644531 383.52675781 117.37148437 382.79296875 116.8203125 C382.1383667 116.32805176 381.48376465 115.83579102 380.80932617 115.32861328 C377.29180323 112.62620145 377.29180323 112.62620145 373 112 Z M395 127 C396.65 128.65 398.3 130.3 400 132 C400.66 131.67 401.32 131.34 402 131 C398.90672105 128.02324541 398.90672105 128.02324541 395 127 Z M402 132 C402.33 132.66 402.66 133.32 403 134 C403.66 133.67 404.32 133.34 405 133 C404.01 132.67 403.02 132.34 402 132 Z M405 134 C405.33 134.66 405.66 135.32 406 136 C406.66 135.67 407.32 135.34 408 135 C407.01 134.67 406.02 134.34 405 134 Z M409 137 C409.33 137.66 409.66 138.32 410 139 C410.66 138.67 411.32 138.34 412 138 C411.01 137.67 410.02 137.34 409 137 Z " fill="#B86B45" transform="translate(495,25)"/>
<path d="M0 0 C18.15 0 36.3 0 55 0 C62.9375 25.1875 62.9375 25.1875 65.59082031 33.60864258 C69.59443571 46.29929111 73.62532078 58.97971452 77.734375 71.63671875 C92.28560237 116.49607955 92.28560237 116.49607955 97 137 C99.58811596 130.50418777 101.53477175 123.8950483 103.43901253 117.17023277 C106.91664769 104.91475124 110.5839801 92.72514688 114.41015625 80.57421875 C114.64042889 79.84281803 114.87070152 79.11141731 115.10795212 78.35785294 C116.51803912 73.88317226 117.93320455 69.4101099 119.35003662 64.93756104 C121.24703897 58.94655686 123.13748375 52.95347744 125.0285759 46.96060562 C125.71491624 44.78623957 126.40196246 42.61209736 127.08901978 40.43795776 C130.32359217 30.19367588 133.50165719 19.93317824 136.62452698 9.65422058 C136.9255986 8.66722672 137.22667023 7.68023285 137.53686523 6.66333008 C137.79717026 5.80532303 138.05747528 4.94731598 138.32566833 4.06330872 C139 2 139 2 140 0 C157.82 0 175.64 0 194 0 C194 63.03 194 126.06 194 191 C182.12 191 170.24 191 158 191 C158 142.49 158 93.98 158 44 C154.04 57.86 150.08 71.72 146 86 C142.61533848 96.75533243 139.21217179 107.4932624 135.69208527 118.20335388 C134.49778834 121.84300183 133.31258839 125.4856117 132.12646484 129.12792969 C130.26642645 134.83678136 128.4022077 140.54424618 126.53417969 146.25048828 C123.46662931 155.62231805 120.42670583 165.00303949 117.390625 174.38510132 C116.21287586 178.02298851 115.03236898 181.65997925 113.8515625 185.296875 C113.24054688 187.17890625 112.62953125 189.0609375 112 191 C102.43 191 92.86 191 83 191 C81.15867957 186.70358565 79.48535888 182.69906315 78.0456543 178.30395508 C77.69013992 177.22358978 77.33462555 176.14322449 76.96833801 175.03012085 C76.59077866 173.87162628 76.2132193 172.71313171 75.82421875 171.51953125 C75.42236862 170.29464996 75.02051849 169.06976868 74.60649109 167.80776978 C73.52080192 164.49722251 72.43942995 161.1852818 71.35942841 157.87287521 C70.68479496 155.80420536 70.009299 153.73581901 69.33355713 151.66751099 C66.62573205 143.37816307 63.92585185 135.08625556 61.23199463 126.7923584 C60.10686546 123.32895608 58.98008573 119.86609516 57.85302734 116.40332031 C56.29616758 111.6154211 54.74858724 106.82462205 53.20913696 102.03109741 C52.67382363 100.3666378 52.1363906 98.70285758 51.59628296 97.03994751 C45.80313879 79.17921893 41.03263188 61.11747478 36 43 C36 91.84 36 140.68 36 191 C24.12 191 12.24 191 0 191 C0 127.97 0 64.94 0 0 Z " fill="#F4F2EB" transform="translate(409,247)"/>
<path d="M0 0 C3.56248523 1.03177877 6.46027608 2.80840349 9.52734375 4.85742188 C10.39174072 5.43141724 11.2561377 6.0054126 12.14672852 6.59680176 C13.06768311 7.21454468 13.9886377 7.8322876 14.9375 8.46875 C16.37403931 9.42291809 16.37403931 9.42291809 17.83959961 10.3963623 C21.93045852 13.11376859 26.01419072 15.84180997 30.09863281 18.56884766 C33.0841599 20.55999164 36.073227 22.545736 39.0625 24.53125 C40.44393188 25.45786438 40.44393188 25.45786438 41.85327148 26.40319824 C42.71766846 26.9771936 43.58206543 27.55118896 44.47265625 28.14257812 C45.22812744 28.64728638 45.98359863 29.15199463 46.76196289 29.67199707 C49.13502675 31.08012196 51.36762939 32.16643867 54 33 C56.3728407 31.86319857 56.3728407 31.86319857 58.5 30 C60.71875 28.1875 60.71875 28.1875 63 27 C66.82130164 28.21887048 70.19313402 30.14639285 73.6640625 32.1328125 C74.77386475 32.76711182 75.88366699 33.40141113 77.02709961 34.05493164 C77.61345184 34.39235382 78.19980408 34.729776 78.80392456 35.0774231 C80.64776764 36.13809713 82.49471562 37.19320742 84.34204102 38.24780273 C90.83824392 41.96682376 97.28477713 45.75520376 103.67578125 49.65234375 C104.90731936 50.39904118 106.13892631 51.14562509 107.37060547 51.89208984 C109.71731332 53.31504866 112.05097278 54.75683398 114.37939453 56.20947266 C115.43884277 56.85319824 116.49829102 57.49692383 117.58984375 58.16015625 C118.51659912 58.73386963 119.44335449 59.30758301 120.39819336 59.89868164 C123.56659891 61.23983557 124.77446115 61.11538198 128 60 C129.98213048 59.0220356 131.92655389 57.96598131 133.83984375 56.859375 C134.97389648 56.20759277 136.10794922 55.55581055 137.27636719 54.88427734 C138.49687575 54.17307626 139.71725018 53.46164494 140.9375 52.75 C142.20316538 52.01854935 143.46911928 51.28759773 144.73535156 50.55712891 C154.04288417 45.17805128 163.3038392 39.71950417 172.546875 34.23046875 C180.50953401 29.50500634 188.50801009 24.8412603 196.51953125 20.19921875 C199.85618959 18.26311887 203.16739623 16.29709619 206.44921875 14.26953125 C207.09375 13.87870361 207.73828125 13.48787598 208.40234375 13.08520508 C210.03994584 12.08969888 211.66702025 11.07692825 213.29296875 10.0625 C216 9 216 9 218.35546875 9.421875 C222.20534137 11.71928791 225.63327248 14.44570397 229.125 17.25 C237.88783269 24.18203628 246.81591377 30.86166266 255.86499023 37.41503906 C257.32781445 38.50099158 258.76679082 39.6196047 260.18383789 40.76464844 C260.87985107 41.3218457 261.57586426 41.87904297 262.29296875 42.453125 C262.9068042 42.96004883 263.52063965 43.46697266 264.15307617 43.98925781 C265.9702593 45.20018426 265.9702593 45.20018426 268.18505859 44.84448242 C270.61159769 44.12409438 272.73485501 43.13429635 275 42 C277.24545413 40.88661787 279.49570805 39.78287749 281.75 38.6875 C282.81734375 38.13449219 283.8846875 37.58148438 284.984375 37.01171875 C288 36 288 36 290.37890625 36.46875 C294.16503985 38.68061941 297.66529256 41.20503323 301.1875 43.8125 C302.80588677 44.99623432 304.42437929 46.17982409 306.04296875 47.36328125 C307.27926025 48.27134521 307.27926025 48.27134521 308.54052734 49.19775391 C312.3454214 51.98589446 316.17302556 54.74229012 320 57.5 C321.49884431 58.58182846 322.99754178 59.66386038 324.49609375 60.74609375 C325.23843262 61.28218262 325.98077148 61.81827148 326.74560547 62.37060547 C329.00994999 64.00719149 331.27273581 65.64591165 333.53515625 67.28515625 C342.43188372 73.72924159 342.43188372 73.72924159 351.3828125 80.09765625 C352.09566406 80.60022949 352.80851563 81.10280273 353.54296875 81.62060547 C354.96899287 82.62096529 356.39868097 83.61612293 357.83203125 84.60595703 C361.20545036 86.94973505 364.44798641 89.32966765 367.5546875 92.01953125 C374.45984511 97.87917631 380.47674525 100.80824242 389.41015625 102.42578125 C390.43779083 102.62584778 391.46542542 102.82591431 392.52420044 103.03204346 C396.01299201 103.70579298 399.50608462 104.35337852 403 105 C404.96156644 105.37137043 406.92312801 105.74276828 408.8844347 106.11550808 C418.78154465 107.99580607 428.68727295 109.82919807 438.59362793 111.66003418 C442.93130162 112.46184731 447.26852115 113.26603298 451.60512161 114.07363129 C453.61337657 114.44661333 455.62226301 114.81604896 457.63119507 115.18536377 C458.83490753 115.4093988 460.03862 115.63343384 461.27880859 115.86425781 C462.86899307 116.15807343 462.86899307 116.15807343 464.49130249 116.45782471 C467 117 467 117 469 118 C469 121.96 469 125.92 469 130 C467.58895996 129.73783691 466.17791992 129.47567383 464.72412109 129.20556641 C459.42794348 128.22236103 454.13106693 127.24296562 448.83398438 126.26464844 C446.55287113 125.84281637 444.27194202 125.4199872 441.99121094 124.99609375 C430.01787689 122.7714252 418.07728292 120.58590584 406 119 C413.92 124.94 413.92 124.94 422 131 C420.21739173 134.56521654 418.24007711 137.71455357 416 141 C402.80155345 133.00534625 390.4957385 123.66136945 378.1875 114.37890625 C368.3565758 107.04185621 358.42314144 99.87367631 348.16796875 93.140625 C343.35936492 89.89140811 338.67912593 86.46937756 333.984375 83.05859375 C328.85133364 79.33092599 323.69059397 75.64705132 318.5 72 C311.55761556 67.11997702 304.6676828 62.17044747 297.79882812 57.1875 C297.08404297 56.66929688 296.36925781 56.15109375 295.6328125 55.6171875 C295.00262207 55.15940918 294.37243164 54.70163086 293.72314453 54.22998047 C290.59298847 51.71299002 290.59298847 51.71299002 286.80078125 51.18359375 C283.16169633 52.24435909 279.68338919 53.61046092 276.1875 55.0625 C275.20620117 55.45598633 275.20620117 55.45598633 274.20507812 55.85742188 C268.44318956 58.23185595 262.89941251 61.0190519 257.33901978 63.82421875 C249.97415892 67.53405574 242.52820797 71.06109292 235.0625 74.5625 C233.99021652 75.0665033 233.99021652 75.0665033 232.89627075 75.58068848 C217.75073673 82.69705616 202.54190571 89.67855398 187.26904297 96.51757812 C185.25078056 97.43280511 183.24207051 98.36987928 181.25048828 99.34179688 C180.46786621 99.71884766 179.68524414 100.09589844 178.87890625 100.484375 C177.91513062 100.96729004 177.91513062 100.96729004 176.93188477 101.45996094 C171.78956357 102.89744539 167.15683069 99.75553824 162.71484375 97.4296875 C162.01790909 97.0703714 161.32097443 96.7110553 160.60292053 96.34085083 C159.12803795 95.57881976 157.65471392 94.81376556 156.18286133 94.04589844 C153.97252282 92.8932635 151.75730283 91.75052187 149.54101562 90.609375 C130.13743483 80.58069258 130.13743483 80.58069258 125 77 C125 76.34 125 75.68 125 75 C124.34902344 74.75894531 123.69804688 74.51789063 123.02734375 74.26953125 C119.08831035 72.61767853 115.34105184 70.6754709 111.5625 68.6875 C110.73919189 68.25453613 109.91588379 67.82157227 109.06762695 67.37548828 C102.50264159 63.88178716 96.07957771 60.17445585 89.6875 56.375 C88.76219482 55.82529541 87.83688965 55.27559082 86.88354492 54.70922852 C83.49417697 52.69083407 80.10657208 50.66989896 76.73193359 48.62695312 C74.78551859 47.449397 72.83138459 46.28588506 70.875 45.125 C69.82054687 44.48820312 68.76609375 43.85140625 67.6796875 43.1953125 C65.15577583 41.81260621 65.15577583 41.81260621 62.828125 42.17578125 C60.00691541 43.44773686 57.56111809 45.27402912 55 47 C54.34 47 53.68 47 53 47 C53 47.66 53 48.32 53 49 C51.61894226 50.14631653 51.61894226 50.14631653 49.64331055 51.42895508 C48.8996373 51.91685013 48.15596405 52.40474518 47.38975525 52.90742493 C46.5637532 53.43942001 45.73775116 53.9714151 44.88671875 54.51953125 C44.02603287 55.08218185 43.16534698 55.64483246 42.27857971 56.22453308 C40.40356753 57.44956634 38.52655566 58.67154295 36.64782715 59.89086914 C31.62944362 63.14844175 26.62566338 66.42829143 21.62109375 69.70703125 C20.58546295 70.3848465 19.54983215 71.06266174 18.4828186 71.76101685 C5.48706927 80.28019478 -7.37295064 88.99979811 -20.2355957 97.71801758 C-21.10168961 98.30440506 -21.96778351 98.89079254 -22.86012268 99.49494934 C-24.4615351 100.57946235 -26.06207101 101.66527143 -27.66148376 102.75273132 C-29.08262811 103.71550037 -30.5077571 104.67242188 -31.93737793 105.62255859 C-33.34975504 106.56575936 -34.74948385 107.52810088 -36.13781738 108.50634766 C-41.26459168 111.98868492 -41.26459168 111.98868492 -44.49121094 112.03833008 C-45.31911133 111.69568115 -46.14701172 111.35303223 -47 111 C-47.58011841 110.76066742 -48.16023682 110.52133484 -48.75793457 110.27474976 C-50.90860502 109.35731961 -53.02340256 108.37884514 -55.140625 107.38671875 C-55.93129364 107.02123428 -56.72196228 106.65574982 -57.53659058 106.27919006 C-60.11033341 105.08748764 -62.68024944 103.88778411 -65.25 102.6875 C-67.03357019 101.85878855 -68.81726235 101.03033956 -70.60107422 100.20214844 C-83.06260293 94.40778252 -95.48105321 88.52836592 -107.84521484 82.52880859 C-111.43179322 80.79075305 -115.02226344 79.06088966 -118.61328125 77.33203125 C-120.58068234 76.38435054 -122.54801889 75.43653606 -124.51531982 74.48864746 C-125.77231296 73.88300132 -127.02935052 73.27744738 -128.28643799 72.67199707 C-134.84908385 69.50996865 -141.39535395 66.32820337 -147.87426758 62.99731445 C-153.34397137 60.43113322 -158.04964736 59.64044341 -164 61 C-166.62368026 62.14826859 -166.62368026 62.14826859 -169.17578125 63.66796875 C-170.15546875 64.22419922 -171.13515625 64.78042969 -172.14453125 65.35351562 C-173.18996094 65.95873047 -174.23539063 66.56394531 -175.3125 67.1875 C-177.56887501 68.47289396 -179.82538929 69.75804349 -182.08203125 71.04296875 C-183.24440749 71.70863987 -184.40667965 72.37449275 -185.56884766 73.04052734 C-190.85969359 76.06203933 -196.18022454 79.02982363 -201.5 82 C-203.58088474 83.16508676 -205.66161341 84.33045232 -207.7421875 85.49609375 C-211.93419757 87.84369801 -216.12697809 90.18991843 -220.3203125 92.53515625 C-231.3359862 98.69738956 -242.34050498 104.8783559 -253.32324219 111.09912109 C-258.34025078 113.9387583 -263.36399659 116.76558658 -268.3984375 119.57421875 C-269.47005127 120.17226318 -270.54166504 120.77030762 -271.64575195 121.38647461 C-273.77638127 122.57477524 -275.9077146 123.76181455 -278.03979492 124.94750977 C-282.80918205 127.60981762 -287.54753165 130.30255305 -292.21484375 133.140625 C-292.99939941 133.61604736 -293.78395508 134.09146973 -294.59228516 134.58129883 C-296.02730212 135.45786791 -297.4559109 136.34505445 -298.87646484 137.24487305 C-303.50009664 140.07188341 -303.50009664 140.07188341 -306.12060547 139.69506836 C-309.67690347 138.37982019 -310.46078259 135.30646702 -312 132 C-310.66239025 127.98717076 -309.05396924 127.64684601 -305.3671875 125.6640625 C-304.78762299 125.34862488 -304.20805847 125.03318726 -303.6109314 124.70819092 C-301.70338535 123.67203602 -299.78920001 122.64880141 -297.875 121.625 C-295.87273333 120.54030043 -293.87234604 119.45218565 -291.87194824 118.36404419 C-290.52074287 117.62943699 -289.16893154 116.89594334 -287.81652832 116.1635437 C-281.92155199 112.96963972 -276.07778586 109.68990157 -270.25 106.375 C-268.38818475 105.31872145 -266.52620499 104.2627328 -264.6640625 103.20703125 C-263.74012695 102.68318848 -262.81619141 102.1593457 -261.86425781 101.61962891 C-256.7930309 98.75204287 -251.70905892 95.90725525 -246.625 93.0625 C-245.58714355 92.48169678 -244.54928711 91.90089355 -243.47998047 91.30249023 C-239.26497422 88.94424158 -235.04946845 86.58688658 -230.83398438 84.22949219 C-209.47883143 72.28564352 -188.14550041 60.31225753 -167 48 C-170.59797321 44.02329276 -174.83206405 41.22391095 -179.25 38.25 C-179.99507812 37.74339844 -180.74015625 37.23679688 -181.5078125 36.71484375 C-183.33594311 35.47265244 -185.166687 34.23452418 -187 33 C-193.09798867 36.98984227 -199.02844776 41.15131964 -204.875 45.5 C-206.54815876 46.73830601 -208.22133638 47.97658653 -209.89453125 49.21484375 C-210.74096191 49.84245605 -211.58739258 50.47006836 -212.45947266 51.11669922 C-216.48964939 54.1042817 -220.52510505 57.08468155 -224.5625 60.0625 C-225.34802246 60.64193359 -226.13354492 61.22136719 -226.94287109 61.81835938 C-233.0113896 66.28766533 -239.11696419 70.7038406 -245.23291016 75.10791016 C-253.06877486 80.75718083 -260.83992854 86.49312892 -268.60888672 92.23388672 C-273.35704579 95.7409505 -278.11085907 99.24034663 -282.86376953 102.7409668 C-286.88672419 105.70444103 -290.90788819 108.67029093 -294.92578125 111.640625 C-304.22518547 118.51148708 -313.56324907 125.31884192 -323 132 C-325.58377644 129.45893061 -327.89144281 126.95198007 -330 124 C-328.65008634 120.84921991 -327.33725021 119.21336882 -324.53515625 117.2578125 C-323.8275415 116.75644775 -323.11992676 116.25508301 -322.39086914 115.73852539 C-321.62250732 115.20606201 -320.85414551 114.67359863 -320.0625 114.125 C-318.41598355 112.96060078 -316.77017241 111.79520369 -315.125 110.62890625 C-314.27550781 110.02965332 -313.42601562 109.43040039 -312.55078125 108.81298828 C-308.51754803 105.94633534 -304.53979232 103.0060358 -300.5625 100.0625 C-298.97008785 98.88667031 -297.37763975 97.7108893 -295.78515625 96.53515625 C-294.99512207 95.95137207 -294.20508789 95.36758789 -293.39111328 94.76611328 C-288.64000853 91.25687377 -283.88318709 87.75538724 -279.12744141 84.25244141 C-275.15468511 81.32579251 -271.18332154 78.39729226 -267.21484375 75.46484375 C-258.76659743 69.22528928 -250.28993416 63.0293578 -241.76708984 56.89208984 C-233.94737957 51.25446572 -226.19229605 45.53032251 -218.43945312 39.80126953 C-215.91444686 37.93682835 -213.38724594 36.0753988 -210.859375 34.21484375 C-209.59178345 33.28176392 -209.59178345 33.28176392 -208.29858398 32.32983398 C-206.69666914 31.15077558 -205.09462809 29.97188861 -203.49243164 28.79321289 C-202.75887451 28.25301514 -202.02531738 27.71281738 -201.26953125 27.15625 C-200.56006348 26.63804688 -199.8505957 26.11984375 -199.11962891 25.5859375 C-197.66207454 24.4953739 -196.22764869 23.37342418 -194.81396484 22.2265625 C-194.11609863 21.66710937 -193.41823242 21.10765625 -192.69921875 20.53125 C-192.08264404 20.02142578 -191.46606934 19.51160156 -190.83081055 18.98632812 C-189 18 -189 18 -187.05712891 18.15209961 C-184.57153311 19.17660402 -182.5833821 20.48128865 -180.38671875 22.03515625 C-179.47994385 22.67171143 -178.57316895 23.3082666 -177.63891602 23.96411133 C-176.66494873 24.65657959 -175.69098145 25.34904785 -174.6875 26.0625 C-172.60687544 27.52619038 -170.5261432 28.98972769 -168.4453125 30.453125 C-167.37829102 31.20658203 -166.31126953 31.96003906 -165.21191406 32.73632812 C-159.20547305 36.96950851 -153.17183832 41.16393843 -147.12646484 45.34130859 C-143.03583939 48.17102441 -138.9604438 51.00301398 -134.984375 53.9921875 C-126.60490158 60.20316747 -117.6665826 64.83129457 -108.25 69.25 C-107.62364655 69.54715912 -106.99729309 69.84431824 -106.35195923 70.15048218 C-104.5591608 70.99514426 -102.75628565 71.8183161 -100.953125 72.640625 C-99.90286133 73.12047852 -98.85259766 73.60033203 -97.77050781 74.09472656 C-94.84051377 75.0521127 -93.77690831 75.22571032 -91 74 C-89.18702678 72.81787292 -89.18702678 72.81787292 -87.453125 71.296875 C-86.78104004 70.73508545 -86.10895508 70.1732959 -85.41650391 69.59448242 C-84.70155762 68.98580322 -83.98661133 68.37712402 -83.25 67.75 C-81.72182489 66.4694901 -80.19316746 65.18955563 -78.6640625 63.91015625 C-77.88836914 63.25805176 -77.11267578 62.60594727 -76.31347656 61.93408203 C-72.78103326 58.98093557 -69.20451926 56.08325203 -65.625 53.1875 C-64.30062065 52.11347925 -62.97639747 51.03926591 -61.65234375 49.96484375 C-61.03085449 49.46065918 -60.40936523 48.95647461 -59.76904297 48.43701172 C-55.50212405 44.97094979 -51.2520694 41.48424503 -47 38 C-45.16678352 36.49985719 -43.33344854 34.99985918 -41.5 33.5 C-40.5925 32.7575 -39.685 32.015 -38.75 31.25 C-19.5 15.5 -19.5 15.5 -16.78125 13.27734375 C-14.84145315 11.68899886 -12.90414382 10.09761327 -10.96875 8.50390625 C-9.49921875 7.29541016 -9.49921875 7.29541016 -8 6.0625 C-7.113125 5.33160156 -6.22625 4.60070312 -5.3125 3.84765625 C-3 2 -3 2 0 0 Z M1 14 C0.22398437 14.66644531 -0.55203125 15.33289063 -1.3515625 16.01953125 C-7.12130906 20.95043639 -12.93918467 25.78647247 -18.9375 30.4375 C-24.44662733 34.71349305 -29.76498426 39.17130978 -35.03759766 43.73461914 C-39.01201379 47.169706 -43.05805603 50.48823653 -47.1796875 53.74609375 C-51.71490944 57.37050242 -56.18295341 61.07625452 -60.65991211 64.7722168 C-65.72007337 68.94920741 -70.79874894 73.10177352 -75.8984375 77.23046875 C-77.70027861 78.74763236 -79.37026075 80.30191685 -81 82 C-76.51348753 84.29965094 -72.00519496 86.54811277 -67.47802734 88.76660156 C-64.90130636 90.04912318 -62.35281145 91.38006301 -59.80078125 92.7109375 C-58.05567126 93.58010299 -56.30959187 94.44732514 -54.5625 95.3125 C-53.74749023 95.75198975 -52.93248047 96.19147949 -52.09277344 96.64428711 C-49.65123588 97.82012723 -47.67517145 98.56575157 -45 99 C-42.82302877 98.2880468 -42.82302877 98.2880468 -40.77270508 96.95141602 C-39.98905075 96.48126572 -39.20539642 96.01111542 -38.397995 95.52671814 C-34.53759841 93.06894091 -30.72282609 90.5600879 -26.9453125 87.9765625 C-26.09736618 87.40152481 -25.24941986 86.82648712 -24.3757782 86.23402405 C-22.56188462 85.00374383 -20.74903863 83.77191788 -18.93716431 82.53866577 C-14.15807262 79.28651434 -9.3704548 76.04698391 -4.58203125 72.80859375 C-3.61514877 72.1545607 -2.6482663 71.50052765 -1.65208435 70.82667542 C7.90962919 64.36841667 17.53616014 58.01080922 27.1875 51.6875 C27.94923523 51.18833069 28.71097046 50.68916138 29.49578857 50.17486572 C33.6614205 47.4461674 37.82946987 44.72120552 42 42 C39.02862702 38.9124226 36.17499757 36.24854945 32.55859375 33.94921875 C31.73294922 33.41917236 30.90730469 32.88912598 30.05664062 32.34301758 C29.19232422 31.79669678 28.32800781 31.25037598 27.4375 30.6875 C25.64414385 29.53966754 23.85117394 28.3912314 22.05859375 27.2421875 C20.75897705 26.41219238 20.75897705 26.41219238 19.43310547 25.56542969 C15.34897194 22.93774916 11.33061197 20.21569155 7.3125 17.48828125 C5.25539294 16.16436607 3.21171936 15.03930331 1 14 Z M210.3984375 25.5703125 C209.44582031 26.12976563 208.49320313 26.68921875 207.51171875 27.265625 C206.47660156 27.87921875 205.44148437 28.4928125 204.375 29.125 C202.17454611 30.41938464 199.9740234 31.7136523 197.7734375 33.0078125 C196.08105957 34.00603027 196.08105957 34.00603027 194.35449219 35.02441406 C189.24604425 38.03297016 184.1227873 41.01595094 179 44 C177.02339104 45.15356623 175.04682885 46.30721259 173.0703125 47.4609375 C168.83890102 49.92960623 164.60399182 52.39216134 160.3671875 54.8515625 C159.28050781 55.48320313 158.19382812 56.11484375 157.07421875 56.765625 C154.99699247 57.97290181 152.91891564 59.17871681 150.83984375 60.3828125 C146.12555919 63.12472835 141.48896869 65.9015536 137 69 C140.49901353 71.92254462 144.05261205 74.32502985 148 76.6015625 C149.134375 77.25640625 150.26875 77.91125 151.4375 78.5859375 C152.02273438 78.92077148 152.60796875 79.25560547 153.2109375 79.60058594 C154.99810574 80.62391535 156.78050284 81.65519768 158.5625 82.6875 C165.50446337 86.97085281 165.50446337 86.97085281 173 90 C175.61650504 89.37891853 175.61650504 89.37891853 178.2421875 87.984375 C179.81299072 87.23341553 179.81299072 87.23341553 181.41552734 86.46728516 C183.12796631 85.617229 183.12796631 85.617229 184.875 84.75 C186.08838381 84.16383721 187.30276917 83.57974388 188.51806641 82.99755859 C190.49395576 82.05070145 192.4690442 81.10242159 194.44125366 80.1479187 C199.94154845 77.48860984 205.47831794 74.91454985 211.03125 72.3671875 C211.8873587 71.97430542 212.74346741 71.58142334 213.6255188 71.17663574 C216.20838737 69.99211927 218.79164309 68.808451 221.375 67.625 C232.34749619 62.59840944 243.24743508 57.48422242 254 52 C250.92138916 48.83520986 247.82414197 45.95734704 244.3046875 43.29296875 C243.42852783 42.62716797 242.55236816 41.96136719 241.6496582 41.27539062 C240.734021 40.58638672 239.81838379 39.89738281 238.875 39.1875 C237.93809326 38.47916016 237.00118652 37.77082031 236.03588867 37.04101562 C233.36097039 35.02234953 230.68135864 33.01009981 228 31 C227.33339355 30.49807129 226.66678711 29.99614258 225.97998047 29.47900391 C218.64738608 23.09628299 218.64738608 23.09628299 210.3984375 25.5703125 Z " fill="#F4F1EA" transform="translate(495,25)"/>
<path d="M0 0 C1.03646667 -0.00285507 1.03646667 -0.00285507 2.09387207 -0.00576782 C23.58069248 0.00093126 46.55307845 2.51785774 62.796875 17.83984375 C70.40318412 25.90601143 74.67121494 35.6807885 77.1875 46.375 C76.8575 47.365 76.5275 48.355 76.1875 49.375 C56.8825 51.85 56.8825 51.85 37.1875 54.375 C35.8675 51.075 34.5475 47.775 33.1875 44.375 C28.90071909 37.61821675 23.42350081 33.88588581 15.83203125 31.6953125 C2.09957994 28.66212356 -14.82552658 28.73411005 -27.375 35.5625 C-31.38362062 38.41853626 -33.51942411 41.63639891 -34.8125 46.375 C-35.66195454 51.92476968 -35.58486272 56.76914495 -32.8125 61.75 C-28.02149298 68.11128614 -21.09928354 71.01956802 -13.625 73.125 C-12.80402832 73.36541016 -11.98305664 73.60582031 -11.13720703 73.85351562 C-5.09868835 75.57180196 0.9873205 77.0768398 7.08984375 78.546875 C7.88382065 78.73828064 8.67779755 78.92968628 9.49583435 79.12689209 C13.48095166 80.08430913 17.46859719 81.02847057 21.46166992 81.95214844 C29.41516647 83.81373556 37.22681441 85.90498707 44.984375 88.47265625 C45.72475006 88.71669189 46.46512512 88.96072754 47.22793579 89.2121582 C53.05392871 91.19658905 58.21645432 93.70677484 63.1875 97.375 C63.90164063 97.89707031 64.61578125 98.41914063 65.3515625 98.95703125 C74.65550379 106.39669966 79.39760425 117.32046913 81.9375 128.75 C83.10529361 145.68300735 81.32066526 161.28517655 70 174.5625 C55.61017137 189.71218757 34.76204274 195.84885692 14.28051758 196.49902344 C10.39843919 196.57970382 6.51712369 196.60590995 2.63427734 196.61523438 C0.22066808 196.62486762 -2.19206093 196.65593284 -4.60546875 196.6875 C-27.67535006 196.84373211 -51.36871426 192.25683124 -68.59765625 175.75390625 C-77.31589436 166.38987272 -82.28978411 155.81094745 -84.8125 143.375 C-79.75948564 142.51633772 -74.70577257 141.66195944 -69.65136719 140.81152344 C-67.93241881 140.5216819 -66.21366638 140.23067568 -64.49511719 139.93847656 C-62.02329429 139.51840955 -59.55079438 139.10255141 -57.078125 138.6875 C-56.31131409 138.55625732 -55.54450317 138.42501465 -54.75445557 138.28979492 C-51.37062202 137.72558616 -48.25505823 137.375 -44.8125 137.375 C-44.37550781 138.55255859 -44.37550781 138.55255859 -43.9296875 139.75390625 C-40.23475509 149.22362296 -36.57799604 155.59855085 -27.3671875 160.3125 C-9.5729606 167.71315706 12.17316325 167.15006239 30.015625 160.47265625 C32.21955333 159.35880039 33.48742237 158.13008014 35.1875 156.375 C35.8475 156.375 36.5075 156.375 37.1875 156.375 C40.99092571 149.31149511 42.77293863 142.0544827 40.5703125 134.1640625 C37.47738476 127.02022055 31.63241015 123.21489246 24.59375 120.37890625 C19.26170374 118.30495244 13.8725173 116.88028714 8.3125 115.5625 C7.28946777 115.31169678 6.26643555 115.06089355 5.21240234 114.80249023 C0.6914386 113.69487794 -3.8338741 112.60673732 -8.36328125 111.53417969 C-56.81220095 100.05183821 -56.81220095 100.05183821 -67.8125 83.375 C-75.82995532 69.92885807 -77.80668387 55.89703034 -74.5625 40.5625 C-71.18764151 27.65134411 -63.76330152 18.22999457 -52.5078125 10.8984375 C-36.30548123 1.74059809 -18.23981731 0.00538789 0 0 Z " fill="#F4F2EB" transform="translate(210.8125,243.625)"/>
<path d="M0 0 C0.72832031 0.56589844 1.45664062 1.13179688 2.20703125 1.71484375 C12.10469858 9.75788126 20.72932249 23.37186963 23 36 C18.37696075 37.31255041 13.75056648 38.61222461 9.12060547 39.90014648 C7.54637676 40.3399902 5.97311887 40.78332414 4.40087891 41.23022461 C2.13951421 41.87234933 -0.12505569 42.50180156 -2.390625 43.12890625 C-3.09181458 43.33093155 -3.79300415 43.53295685 -4.51544189 43.74110413 C-10.83863509 45.46712353 -10.83863509 45.46712353 -14 44 C-15.2734375 41.9609375 -15.2734375 41.9609375 -16.375 39.375 C-21.81394823 27.80487376 -31.14008973 21.35072546 -43 17 C-56.12965011 12.33167996 -73.32592664 13.97021243 -85.92578125 19.21875 C-99.19538504 25.8260216 -106.3413292 36.33336051 -111.0625 50.09765625 C-113.83538697 59.78942947 -114.20895049 69.02076273 -114.25 79.0625 C-114.270625 80.29677734 -114.29125 81.53105469 -114.3125 82.80273438 C-114.38735858 100.68457694 -110.04050437 118.3642927 -98 132 C-88.09637254 141.92241992 -74.97514809 145.20585187 -61.375 145.25 C-47.40592273 145.24371781 -34.30662219 142.07238077 -24 132 C-18.21637259 125.44948277 -14.20804561 117.60438699 -10 110 C-2.36886047 112.18657599 5.10751705 114.71295162 12.5625 117.4375 C14.19928711 118.01081055 14.19928711 118.01081055 15.86914062 118.59570312 C16.90361328 118.97533203 17.93808594 119.35496094 19.00390625 119.74609375 C20.40878296 120.25160767 20.40878296 120.25160767 21.84204102 120.76733398 C24 122 24 122 24.89794922 123.93334961 C25.07038201 127.42531997 23.21757257 130.16272454 21.5625 133.125 C21.19560059 133.79297607 20.82870117 134.46095215 20.45068359 135.14916992 C17.18851148 140.93781694 13.46653894 146.07112062 9 151 C8.25105469 151.84175781 7.50210938 152.68351563 6.73046875 153.55078125 C-7.63652925 168.84617977 -28.22422109 177.27353858 -49.08251953 178.12597656 C-78.10667658 178.77598603 -106.86058979 176.15092488 -128.87475586 155.19750977 C-148.48529601 135.8254359 -156.06656944 110.45125372 -156.29980469 83.35668945 C-156.30522821 81.98779717 -156.30947277 80.61889968 -156.3125 79.25 C-156.31797852 77.95989014 -156.32345703 76.66978027 -156.32910156 75.34057617 C-156.22771871 61.64777349 -154.22032959 48.99045687 -150 36 C-149.72542969 35.13890625 -149.45085938 34.2778125 -149.16796875 33.390625 C-142.62233497 15.09871689 -128.30026909 -0.42118576 -111 -9 C-77.14110272 -23.51095598 -29.56114285 -24.32486956 0 0 Z " fill="#F4F2EB" transform="translate(794,262)"/>
<path d="M0 0 C13.53 0 27.06 0 41 0 C41 63.03 41 126.06 41 191 C27.47 191 13.94 191 0 191 C0 127.97 0 64.94 0 0 Z " fill="#F4F2EB" transform="translate(932,247)"/>
<path d="M0 0 C13.53 0 27.06 0 41 0 C41 63.03 41 126.06 41 191 C27.47 191 13.94 191 0 191 C0 127.97 0 64.94 0 0 Z " fill="#F4F2EB" transform="translate(850,247)"/>
<path d="M0 0 C13.2 0 26.4 0 40 0 C40 63.03 40 126.06 40 191 C26.8 191 13.6 191 0 191 C0 127.97 0 64.94 0 0 Z " fill="#F4F1EA" transform="translate(327,247)"/>
<path d="M0 0 C2.4855958 1.02450442 4.47374681 2.32918904 6.67041016 3.88305664 C7.57734619 4.51969238 8.48428223 5.15632813 9.41870117 5.81225586 C10.39250732 6.50464355 11.36631348 7.19703125 12.36962891 7.91040039 C14.4476138 9.37283907 16.52574298 10.83507276 18.60400391 12.29711914 C19.67070312 13.05041504 20.73740234 13.80371094 21.83642578 14.57983398 C25.93959694 17.46934733 30.06222985 20.33020793 34.18652344 23.18945312 C43.53084272 29.66763153 52.83398525 36.19828556 62.05712891 42.84790039 C61.06712891 43.34290039 61.06712891 43.34290039 60.05712891 43.84790039 C57.66288775 42.8499825 55.38717359 41.78980007 53.07275391 40.62915039 C51.6484838 39.93731358 50.22399763 39.24592144 48.79931641 38.55493164 C46.55372457 37.45469955 44.31076059 36.34970671 42.07177734 35.23608398 C39.91192929 34.16570414 37.74327137 33.11518713 35.57275391 32.06665039 C34.91003479 31.73024536 34.24731567 31.39384033 33.56451416 31.04724121 C29.19891687 28.95580585 26.71882729 28.89600516 22.05712891 29.84790039 C20.01831055 29.01513672 20.01831055 29.01513672 18.21728516 27.67993164 C17.21084961 26.95773438 17.21084961 26.95773438 16.18408203 26.22094727 C15.16217773 25.44847656 15.16217773 25.44847656 14.11962891 24.66040039 C12.75825217 23.66430266 11.39498584 22.67078199 10.02978516 21.67993164 C9.37252441 21.19991699 8.71526367 20.71990234 8.03808594 20.2253418 C5.15098629 18.21782193 2.14191975 16.53307297 -0.94287109 14.84790039 C-2.36212891 15.92104492 -2.36212891 15.92104492 -3.81005859 17.01586914 C-11.0725243 22.49272669 -18.37070099 27.91173428 -25.75537109 33.22290039 C-34.40356929 39.4429614 -42.98436774 45.75103977 -51.55175781 52.08178711 C-56.30286257 55.59102662 -61.05968401 59.09251315 -65.81542969 62.59545898 C-69.78818598 65.52210788 -73.75954956 68.45060814 -77.72802734 71.38305664 C-86.16742405 77.61607512 -94.63404282 83.80719139 -103.14941406 89.93603516 C-109.63082803 94.60707398 -116.06531757 99.34036701 -122.48779297 104.09204102 C-126.94368538 107.38653662 -131.42421608 110.63995458 -135.94287109 113.84790039 C-138.54895382 111.33168259 -140.83668794 108.7965568 -142.94287109 105.84790039 C-141.59295744 102.6971203 -140.28012131 101.06126922 -137.47802734 99.10571289 C-136.7704126 98.60434814 -136.06279785 98.1029834 -135.33374023 97.58642578 C-134.56537842 97.0539624 -133.7970166 96.52149902 -133.00537109 95.97290039 C-131.35885464 94.80850117 -129.7130435 93.64310408 -128.06787109 92.47680664 C-127.21837891 91.87755371 -126.36888672 91.27830078 -125.49365234 90.66088867 C-121.46041912 87.79423573 -117.48266342 84.85393619 -113.50537109 81.91040039 C-111.91295894 80.7345707 -110.32051085 79.55878969 -108.72802734 78.38305664 C-107.93799316 77.79927246 -107.14795898 77.21548828 -106.33398438 76.61401367 C-101.58287962 73.10477416 -96.82605818 69.60328763 -92.0703125 66.1003418 C-88.09755621 63.1736929 -84.12619263 60.24519265 -80.15771484 57.31274414 C-71.70946853 51.07318967 -63.23280526 44.87725819 -54.70996094 38.73999023 C-46.89025066 33.10236611 -39.13516715 27.3782229 -31.38232422 21.64916992 C-28.85731795 19.78472874 -26.33011703 17.92329919 -23.80224609 16.06274414 C-22.95718506 15.44069092 -22.11212402 14.8186377 -21.24145508 14.17773438 C-19.63954023 12.99867597 -18.03749918 11.819789 -16.43530273 10.64111328 C-15.70174561 10.10091553 -14.96818848 9.56071777 -14.21240234 9.00415039 C-13.14820068 8.2268457 -13.14820068 8.2268457 -12.0625 7.43383789 C-10.60494563 6.34327429 -9.17051978 5.22132457 -7.75683594 4.07446289 C-7.05896973 3.51500977 -6.36110352 2.95555664 -5.64208984 2.37915039 C-5.02551514 1.86932617 -4.40894043 1.35950195 -3.77368164 0.83422852 C-1.94287109 -0.15209961 -1.94287109 -0.15209961 0 0 Z " fill="#8A8C8E" transform="translate(307.94287109375,43.152099609375)"/>
<path d="M0 0 C3.55218229 1.03215094 6.46840869 2.80411991 9.54321289 4.82568359 C10.41083755 5.39322357 11.27846222 5.96076355 12.17237854 6.54550171 C13.09647018 7.15697052 14.02056183 7.76843933 14.97265625 8.3984375 C15.93272079 9.02980621 16.89278534 9.66117493 17.88194275 10.31167603 C19.90819822 11.64598389 21.932951 12.98257614 23.95629883 14.32128906 C27.05034183 16.36696144 30.15076713 18.40267724 33.25195312 20.4375 C35.22174671 21.73638406 37.19116067 23.03584406 39.16015625 24.3359375 C40.54933006 25.24706802 40.54933006 25.24706802 41.96656799 26.17660522 C42.8310405 26.75044952 43.695513 27.32429382 44.58618164 27.91552734 C45.72271935 28.66592789 45.72271935 28.66592789 46.88221741 29.43148804 C49.14851132 31.10999324 51.055568 32.96186811 53 35 C51.59447701 36.03612271 50.17508306 37.05344925 48.75 38.0625 C47.96109375 38.63097656 47.1721875 39.19945312 46.359375 39.78515625 C44 41 44 41 42.16503906 40.76953125 C39.48356327 39.81644017 37.37554016 38.47167613 35 36.90234375 C33.55330933 35.95234497 33.55330933 35.95234497 32.07739258 34.9831543 C31.06185303 34.30808838 30.04631348 33.63302246 29 32.9375 C27.96576904 32.2566333 26.93153809 31.5757666 25.8659668 30.87426758 C19.62213056 26.75868822 13.39341572 22.61951622 7.20703125 18.41796875 C5.18744417 17.12042873 3.16953582 16.02242493 1 15 C0.22398437 15.66644531 -0.55203125 16.33289063 -1.3515625 17.01953125 C-7.12130906 21.95043639 -12.93918467 26.78647247 -18.9375 31.4375 C-24.44662733 35.71349305 -29.76498426 40.17130978 -35.03759766 44.73461914 C-39.01201379 48.169706 -43.05805603 51.48823653 -47.1796875 54.74609375 C-50.96464928 57.77091778 -54.6999361 60.85442724 -58.4375 63.9375 C-59.17234619 64.54223145 -59.90719238 65.14696289 -60.66430664 65.77001953 C-63.91004142 68.44255212 -67.15032135 71.12014825 -70.36328125 73.83203125 C-71.31589844 74.62996094 -72.26851563 75.42789063 -73.25 76.25 C-74.05953125 76.93578125 -74.8690625 77.6215625 -75.703125 78.328125 C-78.1648678 80.12000581 -80.03354279 81.27781165 -83 82 C-85.67578125 81.1015625 -85.67578125 81.1015625 -88.3125 79.625 C-89.19550781 79.14289063 -90.07851563 78.66078125 -90.98828125 78.1640625 C-91.98408203 77.58785156 -91.98408203 77.58785156 -93 77 C-86.00593684 69.7803219 -78.3636528 63.43461031 -70.43579102 57.27880859 C-66.37262117 54.11234954 -62.41108633 50.85201804 -58.5 47.5 C-54.10654634 43.73609 -49.63394006 40.10797067 -45.0625 36.5625 C-39.55796744 32.28997076 -34.2432477 27.83664895 -28.97558594 23.27636719 C-24.87739497 19.73354936 -20.70501325 16.30708414 -16.453125 12.94921875 C-12.71121978 9.9759533 -9.03260172 6.92620632 -5.34765625 3.8828125 C-3 2 -3 2 0 0 Z " fill="#8A8C8E" transform="translate(495,25)"/>
<path d="M0 0 C3.8498656 2.29740872 7.27784458 5.02378717 10.76953125 7.828125 C18.07353363 13.60753846 25.48353187 19.20846137 33.01025391 24.69433594 C38.30062528 28.55766117 43.49431879 32.52984674 48.64453125 36.578125 C44.64031275 39.74151393 40.8262936 42.14365579 35.64453125 42.578125 C32.31468485 41.2340022 29.91959306 39.02462603 27.26953125 36.640625 C25.70756822 35.33763601 24.14369927 34.03692902 22.578125 32.73828125 C21.77487793 32.05652832 20.97163086 31.37477539 20.14404297 30.67236328 C15.9716252 27.17646568 11.67128677 23.86310402 7.33203125 20.578125 C6.53812988 19.94914307 5.74422852 19.32016113 4.92626953 18.67211914 C4.17716309 18.10485107 3.42805664 17.53758301 2.65625 16.953125 C1.67338013 16.19128906 1.67338013 16.19128906 0.6706543 15.4140625 C-1.38595327 14.3237707 -1.38595327 14.3237707 -3.75219727 15.23388672 C-6.54295367 16.67493565 -9.29320179 18.15065343 -12.01953125 19.7109375 C-13.12820557 20.34427002 -14.23687988 20.97760254 -15.37915039 21.63012695 C-16.57970915 22.320919 -17.78014544 23.01192392 -18.98046875 23.703125 C-20.22971079 24.41955951 -21.47897879 25.13594876 -22.72827148 25.85229492 C-31.33292638 30.79560466 -39.88582277 35.82342159 -48.41796875 40.890625 C-49.53147705 41.55006104 -50.64498535 42.20949707 -51.79223633 42.88891602 C-56.89998778 45.91681013 -61.99417012 48.96263142 -67.05859375 52.0625 C-68.76163646 53.08867825 -70.46475602 54.11472897 -72.16796875 55.140625 C-72.92021729 55.61218018 -73.67246582 56.08373535 -74.44750977 56.56958008 C-77.7982848 58.56967909 -79.65246273 59.59156359 -83.625 59.515625 C-87.56702242 58.16214091 -90.07811639 56.13445984 -93.35546875 53.578125 C-90.03345643 50.81421975 -86.70809714 48.49788311 -82.953125 46.36328125 C-81.90946777 45.76636475 -80.86581055 45.16944824 -79.79052734 44.55444336 C-78.67758301 43.9228833 -77.56463867 43.29132324 -76.41796875 42.640625 C-74.05604722 41.29123301 -71.6959985 39.93858024 -69.3359375 38.5859375 C-68.44669586 38.07700203 -68.44669586 38.07700203 -67.53948975 37.55778503 C-62.07377205 34.42616712 -56.64715538 31.23108251 -51.23046875 28.015625 C-41.45958557 22.2223566 -31.6645829 16.47213598 -21.8359375 10.77734375 C-18.49927916 8.84124387 -15.18807252 6.87522119 -11.90625 4.84765625 C-11.26171875 4.45682861 -10.6171875 4.06600098 -9.953125 3.66333008 C-8.31552291 2.66782388 -6.6884485 1.65505325 -5.0625 0.640625 C-2.35546875 -0.421875 -2.35546875 -0.421875 0 0 Z " fill="#8A8C8E" transform="translate(713.35546875,34.421875)"/>
<path d="M0 0 C18.41817809 3.26193868 36.82101204 6.59867073 55.20996094 10.02197266 C58.54241128 10.64166378 61.87535114 11.25858646 65.20854378 11.87426376 C68.43378858 12.47084073 71.65824805 13.07163333 74.8828125 13.671875 C76.07520538 13.89164001 77.26759827 14.11140503 78.49612427 14.33782959 C79.5868222 14.54184387 80.67752014 14.74585815 81.80126953 14.95605469 C82.76050323 15.13416687 83.71973694 15.31227905 84.70803833 15.49578857 C87 16 87 16 89 17 C89 20.96 89 24.92 89 29 C82.36893493 27.79484279 75.73852202 26.58617442 69.10864258 25.37451172 C66.86206575 24.96441085 64.61532575 24.55520262 62.3684082 24.14697266 C55.90938997 22.97313009 49.45459002 21.77946603 43.00387573 20.56079102 C40.1674566 20.03126233 37.32766476 19.52520198 34.48657227 19.02148438 C25.73801468 17.41021253 18.59777129 15.78280692 11.5625 10 C10.87091797 9.47921875 10.17933594 8.9584375 9.46679688 8.421875 C6.05866571 5.81894358 3.02197036 3.04401609 0 0 Z " fill="#8A8C8E" transform="translate(875,126)"/>
<path d="M0 0 C3.63 0 7.26 0 11 0 C11.84304688 1.48113281 12.68609375 2.96226562 13.5546875 4.48828125 C14.66140136 6.42971998 15.76817532 8.37112445 16.875 10.3125 C17.43058594 11.28896484 17.98617188 12.26542969 18.55859375 13.27148438 C19.09355469 14.20927734 19.62851562 15.14707031 20.1796875 16.11328125 C20.67194824 16.97735596 21.16420898 17.84143066 21.67138672 18.73168945 C22.72125453 20.52410435 23.84774821 22.27162232 25 24 C25.33 16.08 25.66 8.16 26 0 C28.64 0 31.28 0 34 0 C34 12.87 34 25.74 34 39 C30.37 39 26.74 39 23 39 C22.40832031 37.865625 21.81664062 36.73125 21.20703125 35.5625 C20.40901803 34.04158068 19.61083165 32.5207522 18.8125 31 C18.42513672 30.25621094 18.03777344 29.51242187 17.63867188 28.74609375 C17.24873047 28.00488281 16.85878906 27.26367188 16.45703125 26.5 C16.10616455 25.8296875 15.75529785 25.159375 15.39379883 24.46875 C13.38353184 20.90808792 11.16713759 17.46742014 9 14 C9 22.25 9 30.5 9 39 C6.03 39 3.06 39 0 39 C0 26.13 0 13.26 0 0 Z " fill="#F7F4EE" transform="translate(419,463)"/>
<path d="M0 0 C6.249375 -0.0928125 6.249375 -0.0928125 12.625 -0.1875 C13.92775879 -0.21481201 15.23051758 -0.24212402 16.57275391 -0.27026367 C27.31178703 -0.34757673 27.31178703 -0.34757673 32 3 C34.44340191 5.93208229 34.96659534 7.68822321 35.375 11.5 C34.75594301 17.27786527 32.01595241 20.05872439 28 24 C28.6496875 24.99902344 29.299375 25.99804688 29.96875 27.02734375 C30.81261881 28.33065225 31.65636236 29.63404185 32.5 30.9375 C32.92925781 31.59685547 33.35851562 32.25621094 33.80078125 32.93554688 C37 37.88671875 37 37.88671875 37 39 C33.08421478 39.84218175 29.87465873 40.13053703 26 39 C23.93469052 36.30995277 22.46702145 33.72403375 20.9375 30.72314453 C18.96913435 27.05207225 18.96913435 27.05207225 15.5078125 24.9140625 C12.75241029 24.59464587 12.75241029 24.59464587 9 25 C9 29.62 9 34.24 9 39 C6.03 39 3.06 39 0 39 C0 26.13 0 13.26 0 0 Z M9 7 C9 10.63 9 14.26 9 18 C16.23477757 18.41776811 16.23477757 18.41776811 23.125 16.75 C25.06369777 15.12351854 25.06369777 15.12351854 26.0625 13.0625 C26.19277389 10.83553706 26.19277389 10.83553706 24.41796875 8.88671875 C21.20947669 6.38316194 19.26746677 6.58930133 15.25 6.75 C14.07953125 6.78609375 12.9090625 6.8221875 11.703125 6.859375 C10.81109375 6.90578125 9.9190625 6.9521875 9 7 Z " fill="#F7F4EE" transform="translate(693,463)"/>
<path d="M0 0 C6.249375 -0.0928125 6.249375 -0.0928125 12.625 -0.1875 C13.92775879 -0.21481201 15.23051758 -0.24212402 16.57275391 -0.27026367 C23.51515986 -0.32024384 28.43520138 -0.08949213 33.875 4.625 C35.85814554 8.81164059 35.81260542 13.66544298 34.29296875 18.03125 C32.59756231 20.61277522 30.4706808 22.17949836 28 24 C28.6496875 24.99902344 29.299375 25.99804688 29.96875 27.02734375 C30.81261881 28.33065225 31.65636236 29.63404185 32.5 30.9375 C32.92925781 31.59685547 33.35851562 32.25621094 33.80078125 32.93554688 C37 37.88671875 37 37.88671875 37 39 C33.11213733 39.75929325 29.85004625 40.04250582 26 39 C22.73608091 35.29049469 19 30.1270674 19 25 C15.7 25 12.4 25 9 25 C9 29.62 9 34.24 9 39 C6.03 39 3.06 39 0 39 C0 26.13 0 13.26 0 0 Z M9 7 C9 10.63 9 14.26 9 18 C11.5678125 18.061875 11.5678125 18.061875 14.1875 18.125 C15.63189453 18.15980469 15.63189453 18.15980469 17.10546875 18.1953125 C20.18373524 17.98760221 22.28256296 17.45283934 25 16 C26.16448881 13.09648876 26.16448881 13.09648876 26 10 C25.0145166 8.17284845 25.0145166 8.17284845 23 7 C19.56919882 6.63601382 19.56919882 6.63601382 15.8125 6.8125 C13.90404297 6.85310547 13.90404297 6.85310547 11.95703125 6.89453125 C10.98121094 6.92933594 10.00539063 6.96414063 9 7 Z " fill="#F7F4EE" transform="translate(651,463)"/>
<path d="M0 0 C6.001875 -0.0928125 6.001875 -0.0928125 12.125 -0.1875 C13.37555176 -0.21481201 14.62610352 -0.24212402 15.91455078 -0.27026367 C26.40939193 -0.34888621 26.40939193 -0.34888621 31 3 C33.80295101 5.85639711 34.45107698 7.96862006 34.5 11.9375 C34.39438343 15.90985667 34.13919216 16.81685242 31.625 20.125 C29 22 29 22 27 22 C27.93347358 23.75215106 28.8719532 25.50163563 29.8125 27.25 C30.33457031 28.22453125 30.85664062 29.1990625 31.39453125 30.203125 C32.90755519 32.97792831 32.90755519 32.97792831 34.69921875 35.234375 C36 37 36 37 36 39 C32.42583455 39.79100383 29.5434665 40.01385302 26 39 C22.6295491 35.41418483 18 30.15240018 18 25 C15.03 25 12.06 25 9 25 C9 29.62 9 34.24 9 39 C6.03 39 3.06 39 0 39 C0 26.13 0 13.26 0 0 Z M9 7 C9 10.63 9 14.26 9 18 C16.86670653 18.58767944 16.86670653 18.58767944 24 16 C25.16448881 13.09648876 25.16448881 13.09648876 25 10 C23.98210121 8.18288829 23.98210121 8.18288829 22 7 C18.79861932 6.6363838 18.79861932 6.6363838 15.3125 6.8125 C14.13300781 6.83957031 12.95351563 6.86664063 11.73828125 6.89453125 C10.38283203 6.94673828 10.38283203 6.94673828 9 7 Z " fill="#F7F4EE" transform="translate(832,463)"/>
<path d="M0 0 C3.3 0 6.6 0 10 0 C12.45901033 2.79973594 13.7483825 4.6868558 15.3125 7.9375 C15.89741211 9.04061523 15.89741211 9.04061523 16.49414062 10.16601562 C17.23812757 11.57405703 17.96678707 12.9904106 18.6730957 14.41772461 C20.68372774 18.33059583 22.86354628 22.1543833 25 26 C25.33 17.42 25.66 8.84 26 0 C28.64 0 31.28 0 34 0 C34 12.87 34 25.74 34 39 C30.37 39 26.74 39 23 39 C20.33056036 35.54543105 18.81764689 32.87508888 17 29 C15.9708311 27.13755374 14.9089936 25.29714511 13.8371582 23.45898438 C12.20404387 20.65127763 10.60555264 17.82355809 9 15 C8.67 22.92 8.34 30.84 8 39 C5.36 39 2.72 39 0 39 C0 26.13 0 13.26 0 0 Z " fill="#F7F4EE" transform="translate(167,463)"/>
<path d="M0 0 C2.26653735 1.89395587 3.40026982 3.44043172 5 6 C4.67 6.99 4.34 7.98 4 9 C1.36 9.33 -1.28 9.66 -4 10 C-4.33 9.01 -4.66 8.02 -5 7 C-7.94826763 6.01724412 -9.92652504 5.86585275 -13 5.875 C-13.86625 5.87242187 -14.7325 5.86984375 -15.625 5.8671875 C-18.15011695 5.90405795 -18.15011695 5.90405795 -21 7 C-23.83871532 12.97624277 -23.48042741 19.06405472 -22.4375 25.4375 C-21.16439715 28.29534961 -21.16439715 28.29534961 -17.875 29.4375 C-12.33623718 30.24151396 -7.39173872 29.57259046 -2 28 C-2 26.35 -2 24.7 -2 23 C-5.3 23 -8.6 23 -12 23 C-12 20.69 -12 18.38 -12 16 C-6.06 16 -0.12 16 6 16 C6.0825 18.3925 6.165 20.785 6.25 23.25 C6.28641602 23.99668945 6.32283203 24.74337891 6.36035156 25.51269531 C6.41558142 28.82470505 6.23769967 30.67302851 4.2734375 33.375 C-2.12214913 37.94641587 -10.33258324 38.90352538 -18 38 C-24.22739451 36.6912656 -27.44626921 34.2260747 -31 29 C-34.02705694 22.72205444 -34.21900139 15.19072909 -32.27734375 8.515625 C-29.82354834 3.23052719 -26.58607695 0.17548952 -21.25 -2.25 C-13.91756418 -3.94210057 -6.75668691 -3.52182522 0 0 Z " fill="#F7F4EE" transform="translate(367,465)"/>
<path d="M0 0 C4.58949004 3.14645889 6.14840734 5.80530896 7.65234375 11.1328125 C8.46952912 18.79154985 8.42849098 25.81144117 3.65234375 32.1328125 C-0.98214693 36.89255969 -6.35304431 38.19127156 -12.84765625 38.4453125 C-18.56121539 38.2898415 -22.6691415 36.50614275 -27.09765625 32.8828125 C-31.88022314 27.03745296 -32.86662338 22.20220415 -32.6328125 14.78125 C-31.95329622 8.47012623 -29.29251138 4.17860306 -24.34765625 0.1328125 C-16.62860319 -4.34423828 -7.76801021 -4.54325342 0 0 Z M-19.34765625 7.1328125 C-22.34017634 10.32483393 -23.26711127 13.06559153 -23.59765625 17.4453125 C-23.27751665 22.16737156 -21.74788059 25.1024872 -19.09765625 28.9453125 C-16.23147406 30.89022184 -13.76962825 31.01681345 -10.34765625 31.1328125 C-6.51007649 29.87821912 -4.82138537 28.79603326 -2.47265625 25.5078125 C-0.62621607 19.96849195 -0.65890377 15.32061448 -2.41015625 9.7578125 C-5.03023858 6.20802353 -7.19598477 5.51670299 -11.34765625 4.1328125 C-14.08449368 4.1328125 -16.9569774 5.8505393 -19.34765625 7.1328125 Z " fill="#F7F4EE" transform="translate(817.34765625,464.8671875)"/>
<path d="M0 0 C10.56 0 21.12 0 32 0 C32 2.31 32 4.62 32 7 C24.41 7 16.82 7 9 7 C9 9.97 9 12.94 9 16 C15.93 16 22.86 16 30 16 C30 18.31 30 20.62 30 23 C23.07 23 16.14 23 9 23 C9 25.97 9 28.94 9 32 C16.92 32 24.84 32 33 32 C33 34.31 33 36.62 33 39 C22.11 39 11.22 39 0 39 C0 26.13 0 13.26 0 0 Z " fill="#F6F4ED" transform="translate(612,463)"/>
<path d="M0 0 C10.56 0 21.12 0 32 0 C32 2.31 32 4.62 32 7 C24.41 7 16.82 7 9 7 C9 9.97 9 12.94 9 16 C15.93 16 22.86 16 30 16 C30 18.31 30 20.62 30 23 C23.07 23 16.14 23 9 23 C9 25.97 9 28.94 9 32 C16.92 32 24.84 32 33 32 C33 34.31 33 36.62 33 39 C22.11 39 11.22 39 0 39 C0 26.13 0 13.26 0 0 Z " fill="#F6F4ED" transform="translate(244,463)"/>
<path d="M0 0 C10.23 0 20.46 0 31 0 C31 2.31 31 4.62 31 7 C23.74 7 16.48 7 9 7 C9 9.97 9 12.94 9 16 C15.6 16 22.2 16 29 16 C29 18.31 29 20.62 29 23 C22.4 23 15.8 23 9 23 C9 25.97 9 28.94 9 32 C16.59 32 24.18 32 32 32 C32 34.31 32 36.62 32 39 C21.44 39 10.88 39 0 39 C0 26.13 0 13.26 0 0 Z " fill="#F6F4ED" transform="translate(381,463)"/>
<path d="M0 0 C2.12550023 1.89278123 3.39272468 3.58908702 5 6 C5 6.99 5 7.98 5 9 C-0.17478389 10.84187223 -0.17478389 10.84187223 -3 11 C-5.6875 8.6875 -5.6875 8.6875 -8 6 C-11.52522436 4.51569501 -12.97335724 4.9918717 -16.6875 6.125 C-20.01665878 7.6851749 -20.01665878 7.6851749 -21.4375 10.125 C-22.50024141 15.55678945 -22.6566384 20.19424439 -20.75 25.4375 C-18.54518085 28.70682126 -18.54518085 28.70682126 -15 30 C-9.73531024 30.09702768 -9.73531024 30.09702768 -5.37109375 27.58984375 C-3.82317926 25.77750096 -3.82317926 25.77750096 -2 23 C0.64 23.99 3.28 24.98 6 26 C3.6180897 31.51600279 0.99285008 34.28979996 -4.1875 37.25 C-10.58072738 38.95486063 -17.14578711 38.65953158 -23.24609375 36.046875 C-27.84666532 33.30087682 -30.35649865 29.01014509 -32 24 C-32.69457013 16.8738909 -32.85899441 10.17439106 -29 4 C-21.39528071 -4.15103533 -9.65882016 -5.78244223 0 0 Z " fill="#F7F4EE" transform="translate(492,465)"/>
<path d="M0 0 C3.63 0 7.26 0 11 0 C12.99586982 5.3927159 14.989644 10.78619999 16.98144531 16.18041992 C17.65989982 18.01689804 18.33893534 19.85316162 19.01855469 21.68920898 C19.99305145 24.32219696 20.96548352 26.95593929 21.9375 29.58984375 C22.24373291 30.41588608 22.54996582 31.24192841 22.86547852 32.09300232 C25 37.88612829 25 37.88612829 25 39 C21.7 39 18.4 39 15 39 C13.515 34.545 13.515 34.545 12 30 C5.07 29.505 5.07 29.505 -2 29 C-2.309375 30.464375 -2.61875 31.92875 -2.9375 33.4375 C-3.875 37.875 -3.875 37.875 -5 39 C-8.00003445 39.14177857 -10.99757235 39.04228771 -14 39 C-11.70870967 30.84065639 -8.84482081 22.93378642 -5.875 15 C-5.41996094 13.77410156 -4.96492187 12.54820312 -4.49609375 11.28515625 C-1.15094021 2.30188041 -1.15094021 2.30188041 0 0 Z M5 8 C4.32779649 9.93558599 3.66241923 11.87354372 3 13.8125 C2.62875 14.89144531 2.2575 15.97039062 1.875 17.08203125 C0.85638488 19.97120802 0.85638488 19.97120802 1 23 C3.97 23 6.94 23 10 23 C9.32584613 17.7415998 7.75734451 12.97361654 6 8 C5.67 8 5.34 8 5 8 Z " fill="#F7F4EE" transform="translate(902,463)"/>
<path d="M0 0 C1.51400391 0.01740234 1.51400391 0.01740234 3.05859375 0.03515625 C4.07050781 0.04417969 5.08242188 0.05320312 6.125 0.0625 C7.29869141 0.07990234 7.29869141 0.07990234 8.49609375 0.09765625 C10.49196357 5.49037215 12.48573775 10.88385624 14.47753906 16.27807617 C15.15599357 18.11455429 15.83502909 19.95081787 16.51464844 21.78686523 C17.4891452 24.41985321 18.46157727 27.05359554 19.43359375 29.6875 C19.73982666 30.51354233 20.04605957 31.33958466 20.36157227 32.19065857 C22.49609375 37.98378454 22.49609375 37.98378454 22.49609375 39.09765625 C19.19609375 39.09765625 15.89609375 39.09765625 12.49609375 39.09765625 C11.01109375 34.14765625 11.01109375 34.14765625 9.49609375 29.09765625 C4.87609375 29.09765625 0.25609375 29.09765625 -4.50390625 29.09765625 C-5.49390625 32.39765625 -6.48390625 35.69765625 -7.50390625 39.09765625 C-10.47390625 39.09765625 -13.44390625 39.09765625 -16.50390625 39.09765625 C-15.77912667 34.68715933 -14.3499751 30.60615382 -12.81640625 26.42578125 C-12.55384033 25.70275818 -12.29127441 24.97973511 -12.02075195 24.23480225 C-11.46773174 22.71465405 -10.91292875 21.19515336 -10.35644531 19.67626953 C-9.50228143 17.34321824 -8.65505343 15.00773099 -7.80859375 12.671875 C-7.26994085 11.19386107 -6.73089229 9.71599128 -6.19140625 8.23828125 C-5.93721924 7.53729309 -5.68303223 6.83630493 -5.42114258 6.11407471 C-3.21940917 0.12556198 -3.21940917 0.12556198 0 0 Z M2.49609375 9.09765625 C1.84699221 10.67965256 1.20194681 12.26331349 0.55859375 13.84765625 C0.19894531 14.729375 -0.16070313 15.61109375 -0.53125 16.51953125 C-1.63508882 19.29506706 -1.63508882 19.29506706 -2.50390625 23.09765625 C0.79609375 23.09765625 4.09609375 23.09765625 7.49609375 23.09765625 C7.044666 21.32504994 6.58468852 19.55461945 6.12109375 17.78515625 C5.86585938 16.79902344 5.610625 15.81289063 5.34765625 14.796875 C4.57696201 11.91707465 4.57696201 11.91707465 2.49609375 9.09765625 Z " fill="#F7F4EE" transform="translate(534.50390625,462.90234375)"/>
<path d="M0 0 C11.55 0 23.1 0 35 0 C35 2.31 35 4.62 35 7 C30.71 7 26.42 7 22 7 C22 17.56 22 28.12 22 39 C19.03 39 16.06 39 13 39 C13 28.44 13 17.88 13 7 C8.71 7 4.42 7 0 7 C0 4.69 0 2.38 0 0 Z " fill="#F6F4ED" transform="translate(205,463)"/>
<path d="M0 0 C11.22 0 22.44 0 34 0 C34 2.31 34 4.62 34 7 C29.71 7 25.42 7 21 7 C21 17.56 21 28.12 21 39 C18.03 39 15.06 39 12 39 C12 28.44 12 17.88 12 7 C8.04 7 4.08 7 0 7 C0 4.69 0 2.38 0 0 Z " fill="#F6F3ED" transform="translate(749,463)"/>
<path d="M0 0 C11.22 0 22.44 0 34 0 C34 2.31 34 4.62 34 7 C29.71 7 25.42 7 21 7 C21 17.56 21 28.12 21 39 C18.03 39 15.06 39 12 39 C12 28.44 12 17.88 12 7 C8.04 7 4.08 7 0 7 C0 4.69 0 2.38 0 0 Z " fill="#F6F3ED" transform="translate(574,463)"/>
<path d="M0 0 C2.97 0 5.94 0 9 0 C9 10.56 9 21.12 9 32 C15.93 32 22.86 32 30 32 C30 34.31 30 36.62 30 39 C20.1 39 10.2 39 0 39 C0 26.13 0 13.26 0 0 Z " fill="#F7F3ED" transform="translate(932,463)"/>
<path d="M0 0 C2.97 0 5.94 0 9 0 C9 10.56 9 21.12 9 32 C15.93 32 22.86 32 30 32 C30 34.31 30 36.62 30 39 C20.1 39 10.2 39 0 39 C0 26.13 0 13.26 0 0 Z " fill="#F7F4EE" transform="translate(283,463)"/>
<path d="M0 0 C2.97 0 5.94 0 9 0 C9 12.87 9 25.74 9 39 C6.03 39 3.06 39 0 39 C0 26.13 0 13.26 0 0 Z " fill="#F6F4ED" transform="translate(874,463)"/>
<path d="M0 0 C2.97 0 5.94 0 9 0 C9 12.87 9 25.74 9 39 C6.03 39 3.06 39 0 39 C0 26.13 0 13.26 0 0 Z " fill="#F6F4ED" transform="translate(735,463)"/>
<path d="M0 0 C2.97 0 5.94 0 9 0 C9 12.87 9 25.74 9 39 C6.03 39 3.06 39 0 39 C0 26.13 0 13.26 0 0 Z " fill="#F6F3EE" transform="translate(503,463)"/>
<path d="M0 0 C2.97 0 5.94 0 9 0 C9 12.87 9 25.74 9 39 C6.03 39 3.06 39 0 39 C0 26.13 0 13.26 0 0 Z " fill="#F6F4ED" transform="translate(319,463)"/>
<path d="M0 0 C2.97 0 5.94 0 9 0 C9 12.87 9 25.74 9 39 C6.03 39 3.06 39 0 39 C0 26.13 0 13.26 0 0 Z " fill="#F6F4ED" transform="translate(150,463)"/>
<path d="M0 0 C3.10889391 1.49805359 5.83106378 3.2692896 8.67578125 5.22412109 C9.22360764 5.59862396 9.77143402 5.97312683 10.33586121 6.35897827 C12.07078837 7.54651388 13.80104739 8.74065289 15.53125 9.93505859 C16.71258764 10.7453963 17.89422534 11.55529676 19.07617188 12.36474609 C21.96051986 14.34147042 24.84072215 16.32414009 27.71875 18.31005859 C26.72875 18.80505859 26.72875 18.80505859 25.71875 19.31005859 C22.35797106 17.64850757 19.08883653 15.88863376 15.8359375 14.02685547 C11.40223145 11.60582419 11.40223145 11.60582419 6.453125 12.00146484 C5.55078125 12.43330078 4.6484375 12.86513672 3.71875 13.31005859 C1.703125 14.14208984 1.703125 14.14208984 -0.28125 14.31005859 C-3.078125 12.94677734 -3.078125 12.94677734 -6.03125 10.99755859 C-7.01609375 10.36205078 -8.0009375 9.72654297 -9.015625 9.07177734 C-9.76328125 8.49041016 -10.5109375 7.90904297 -11.28125 7.31005859 C-11.28125 6.65005859 -11.28125 5.99005859 -11.28125 5.31005859 C-9.48828125 3.73193359 -9.48828125 3.73193359 -7.09375 2.06005859 C-6.31644531 1.49802734 -5.53914062 0.93599609 -4.73828125 0.35693359 C-2.28125 -0.68994141 -2.28125 -0.68994141 0 0 Z " fill="#8B8B8C" transform="translate(559.28125,66.68994140625)"/>
<path d="M0 0 C1.64320519 1.15468473 3.24881596 2.36471734 4.8125 3.625 C5.99779297 4.57246094 5.99779297 4.57246094 7.20703125 5.5390625 C7.79871094 6.02117187 8.39039063 6.50328125 9 7 C4.87802656 9.7479823 1.10711845 11.95516769 -3.9375 12.0625 C-8.28213572 10.5551774 -11.48737554 7.9153 -15 5 C-14 2 -14 2 -12.109375 0.76171875 C-10.94148437 0.22998047 -10.94148437 0.22998047 -9.75 -0.3125 C-8.98171875 -0.67988281 -8.2134375 -1.04726562 -7.421875 -1.42578125 C-4.21125687 -2.18700845 -2.88894036 -1.53686219 0 0 Z " fill="#8B8C8E" transform="translate(776,81)"/>
<path d="M0 0 C6.77722682 1.22461674 10.96002921 3.68685984 16.3125 7.9375 C17.01439453 8.47568359 17.71628906 9.01386719 18.43945312 9.56835938 C21.46854911 11.91020575 24.33295947 14.24651583 27 17 C20.84300205 16.67749058 17.13433225 13.61960509 12.375 10.0625 C10.88453667 8.96770091 9.39240448 7.87516939 7.8984375 6.78515625 C7.24536621 6.29926025 6.59229492 5.81336426 5.91943359 5.31274414 C4.01132743 4.00774708 2.08958581 2.98263397 0 2 C0 1.34 0 0.68 0 0 Z " fill="#908D8D" transform="translate(843,120)"/>
<path d="M0 0 C3.96 1.98 7.92 3.96 12 6 C11.67 6.66 11.34 7.32 11 8 C6.1725201 6.58707905 2.2837641 4.57025846 -2 2 C-1.34 1.34 -0.68 0.68 0 0 Z " fill="#938E8B" transform="translate(608,94)"/>
</svg>
